<svg width="154" height="127" viewBox="0 0 154 127" fill="none" xmlns="http://www.w3.org/2000/svg">
<rect x="2.13307" y="101.935" width="102" height="134" rx="9" transform="rotate(-80 2.13307 101.935)" stroke="#E6EFF8" stroke-width="2"/>
<line x1="8.67853" y1="59.0562" x2="142.612" y2="82.6724" stroke="#E6EFF8" stroke-width="2"/>
<path d="M93.8169 74.1016L104.236 15.0131" stroke="#E6EFF8" stroke-width="2"/>
<path d="M22.2038 79.1077L15.763 91.1379L12.3883 90.5428L20.8275 76.149L22.9751 76.5276L22.2038 79.1077ZM23.4328 92.4902L21.4844 78.9809L21.6104 76.287L23.7791 76.6694L26.8181 93.0872L23.4328 92.4902ZM24.2534 86.7229L23.815 89.2089L15.6798 87.7745L16.1182 85.2884L24.2534 86.7229Z" fill="#B8CFEB"/>
<path d="M35.2126 88.9062L31.2878 88.2141L31.7243 85.7386L35.6491 86.4307C36.2557 86.5376 36.7668 86.5259 37.1824 86.3956C37.5993 86.2582 37.9277 86.0252 38.1674 85.6967C38.4071 85.3681 38.5668 84.9781 38.6464 84.5267C38.7272 84.0683 38.7143 83.626 38.6076 83.2C38.5009 82.774 38.2783 82.4075 37.9398 82.1005C37.6012 81.7936 37.1287 81.5866 36.5221 81.4797L33.6975 80.9816L31.4199 93.8986L28.2462 93.339L30.9622 77.936L36.9605 78.9936C38.1665 79.2063 39.1612 79.6071 39.9445 80.1961C40.7361 80.7793 41.294 81.4921 41.6181 82.3346C41.9422 83.1771 42.0178 84.0886 41.845 85.0689C41.6696 86.0633 41.2887 86.8833 40.7022 87.5289C40.1157 88.1745 39.3539 88.6183 38.4167 88.8603C37.4867 89.1035 36.4186 89.1188 35.2126 88.9062Z" fill="#B8CFEB"/>
<path d="M44.9265 80.3983L50.6709 81.4111C51.8487 81.6188 52.8296 81.9736 53.6138 82.4755C54.405 82.9786 54.9688 83.6161 55.3054 84.3881C55.6419 85.1601 55.7213 86.0504 55.5435 87.0589C55.398 87.884 55.1319 88.568 54.7454 89.1107C54.3671 89.6475 53.8892 90.0687 53.3118 90.3741C52.7427 90.6737 52.0991 90.8802 51.381 90.9935L50.2827 91.3453L45.2894 90.4648L45.7047 87.9856L49.418 88.6403C49.9751 88.7386 50.4545 88.7213 50.8561 88.5885C51.2576 88.4557 51.5812 88.2291 51.8267 87.9088C52.0793 87.5898 52.2466 87.1975 52.3287 86.732C52.4158 86.2383 52.3993 85.7955 52.2794 85.4035C52.1594 85.0114 51.9294 84.6873 51.5891 84.4309C51.2489 84.1746 50.7967 83.9967 50.2325 83.8972L47.6618 83.4439L45.3842 96.3609L42.2105 95.8013L44.9265 80.3983ZM50.8218 97.3197L48.5202 89.8346L51.8775 90.4048L54.2438 97.7703L54.2177 97.9184L50.8218 97.3197Z" fill="#B8CFEB"/>
<path d="M70.164 92.4184L70.0353 93.1484C69.8289 94.3191 69.4849 95.342 69.0034 96.2169C68.5218 97.0919 67.9341 97.8064 67.2401 98.3603C66.5474 98.9072 65.7686 99.2825 64.9036 99.4863C64.0457 99.6914 63.1302 99.7081 62.1569 99.5365C61.1907 99.3661 60.336 99.0373 59.593 98.5499C58.857 98.0638 58.2535 97.4447 57.7825 96.6927C57.3128 95.9336 56.9978 95.0599 56.8375 94.0718C56.6843 93.0849 56.7109 92.006 56.9174 90.8353L57.0461 90.1054C57.2537 88.9276 57.5977 87.9047 58.078 87.0368C58.5595 86.1618 59.1473 85.4473 59.8412 84.8934C60.5423 84.3407 61.3217 83.9618 62.1796 83.7568C63.0445 83.553 63.9601 83.5362 64.9263 83.7066C65.8996 83.8782 66.7542 84.2071 67.4902 84.6932C68.2333 85.1805 68.8362 85.8031 69.2988 86.561C69.7686 87.3201 70.08 88.1931 70.2333 89.1801C70.3948 90.1612 70.3717 91.2406 70.164 92.4184ZM66.8299 92.5831L66.9623 91.832C67.1066 91.0139 67.1594 90.2815 67.1207 89.6348C67.082 88.988 66.9554 88.4276 66.7409 87.9534C66.5263 87.4793 66.2296 87.0997 65.8508 86.8148C65.4733 86.5228 65.0165 86.3295 64.4805 86.235C63.9445 86.1405 63.4492 86.1659 62.9945 86.3111C62.5482 86.4506 62.1431 86.7064 61.7793 87.0786C61.4226 87.452 61.1155 87.9359 60.8579 88.5305C60.6004 89.125 60.3995 89.8313 60.2552 90.6494L60.1228 91.4005C59.9798 92.2116 59.927 92.944 59.9644 93.5978C60.0031 94.2445 60.1291 94.8085 60.3424 95.2897C60.5569 95.7639 60.853 96.1469 61.2305 96.4389C61.6081 96.7309 62.0649 96.9242 62.6009 97.0187C63.1369 97.1132 63.6322 97.0878 64.0868 96.9426C64.5415 96.7973 64.9472 96.538 65.3039 96.1646C65.6619 95.7841 65.9696 95.2966 66.2272 94.7021C66.486 94.1005 66.6869 93.3942 66.8299 92.5831Z" fill="#B8CFEB"/>
<path d="M78.2497 95.1858L74.2931 94.4881L74.6562 92.3051L77.978 92.8909C78.5634 92.9941 79.056 93.0046 79.4559 92.9224C79.8571 92.8331 80.1748 92.6601 80.4092 92.4033C80.6518 92.1406 80.8105 91.7978 80.8851 91.3746C80.9697 90.895 80.9464 90.4909 80.8152 90.1624C80.6911 89.8351 80.4505 89.5709 80.0933 89.3697C79.7431 89.1698 79.2718 89.0176 78.6794 88.9132L76.479 88.5252L74.2014 101.442L71.0277 100.883L73.7436 85.4795L79.1178 86.4271C80.0134 86.585 80.799 86.8108 81.4744 87.1044C82.1569 87.3993 82.7145 87.763 83.1473 88.1957C83.58 88.6283 83.8802 89.1321 84.0479 89.7071C84.2168 90.275 84.2379 90.9186 84.111 91.638C83.9991 92.2727 83.7513 92.8326 83.3676 93.3176C82.991 93.8039 82.4661 94.1622 81.7928 94.3925C81.1266 94.6241 80.3002 94.6711 79.3137 94.5335L78.2497 95.1858ZM76.9202 101.922L72.2337 101.095L73.9079 98.8379L77.3567 99.446C77.9138 99.5443 78.3843 99.5363 78.768 99.4222C79.1529 99.301 79.4574 99.1002 79.6814 98.8197C79.9054 98.5392 80.0528 98.198 80.1237 97.796C80.2033 97.3446 80.1947 96.9395 80.098 96.5807C80.0084 96.2231 79.8133 95.9269 79.513 95.6921C79.2138 95.4503 78.7927 95.2815 78.2497 95.1858L75.1923 94.6467L75.5978 92.4712L79.4062 93.1427L79.985 94.1283C80.9255 94.2796 81.6509 94.5784 82.1613 95.0247C82.6799 95.4652 83.0218 95.98 83.187 96.569C83.3592 97.1594 83.3907 97.7648 83.2812 98.3855C83.1071 99.3728 82.7453 100.167 82.1957 100.768C81.6473 101.362 80.9272 101.755 80.0353 101.947C79.1504 102.14 78.1121 102.132 76.9202 101.922Z" fill="#B8CFEB"/>
<path d="M93.3792 91.6579L86.9385 103.688L83.5638 103.093L92.003 88.6991L94.1505 89.0778L93.3792 91.6579ZM94.6082 105.04L92.6599 91.531L92.7858 88.8372L94.9545 89.2195L97.9935 105.637L94.6082 105.04ZM95.4288 99.273L94.9905 101.759L86.8552 100.325L87.2936 97.8385L95.4288 99.273Z" fill="#B8CFEB"/>
<path d="M104.15 106.723L100.797 106.132L101.255 103.66L104.587 104.247C105.419 104.394 106.154 104.331 106.791 104.058C107.429 103.778 107.957 103.3 108.375 102.625C108.799 101.95 109.102 101.099 109.283 100.069L109.416 99.3177C109.555 98.5278 109.593 97.8182 109.529 97.1889C109.473 96.5608 109.318 96.0137 109.066 95.5474C108.814 95.0811 108.469 94.7041 108.033 94.4162C107.598 94.1213 107.073 93.9198 106.46 93.8116L103.011 93.2035L103.449 90.7174L106.898 91.3255C107.928 91.5071 108.838 91.8494 109.63 92.3525C110.429 92.8498 111.085 93.4782 111.599 94.2378C112.112 94.9973 112.458 95.8583 112.638 96.8207C112.825 97.7773 112.822 98.8057 112.628 99.906L112.499 100.636C112.307 101.729 111.958 102.697 111.453 103.538C110.955 104.381 110.335 105.072 109.593 105.61C108.86 106.143 108.028 106.509 107.098 106.708C106.177 106.902 105.194 106.907 104.15 106.723ZM105.311 91.0457L102.595 106.449L99.4217 105.889L102.138 90.4861L105.311 91.0457Z" fill="#B8CFEB"/>
<path d="M121.794 96.6682L115.354 108.698L111.979 108.103L120.418 93.7095L122.566 94.0881L121.794 96.6682ZM123.023 110.051L121.075 96.5414L121.201 93.8475L123.37 94.2299L126.409 110.648L123.023 110.051ZM123.844 104.283L123.406 106.769L115.27 105.335L115.709 102.849L123.844 104.283Z" fill="#B8CFEB"/>
<path d="M31.0311 23.3613L29.9201 29.6626L28.626 29.4344L29.7371 23.1332L31.0311 23.3613ZM32.97 23.7032L32.7906 24.7202L27.6493 23.8137L27.8286 22.7966L32.97 23.7032Z" fill="#B8CFEB"/>
<path d="M33.71 23.8337L36.06 24.2481C36.5418 24.333 36.9431 24.4782 37.2639 24.6835C37.5876 24.8893 37.8183 25.1501 37.9559 25.4659C38.0936 25.7817 38.1261 26.1459 38.0533 26.5585C37.9938 26.8961 37.885 27.1759 37.7268 27.3979C37.5721 27.6175 37.3766 27.7898 37.1404 27.9147C36.9076 28.0373 36.6443 28.1218 36.3505 28.1681L35.9012 28.312L33.8585 27.9518L34.0284 26.9376L35.5475 27.2055C35.7754 27.2457 35.9715 27.2386 36.1358 27.1843C36.3 27.1299 36.4324 27.0372 36.5328 26.9062C36.6362 26.7757 36.7046 26.6152 36.7382 26.4248C36.7738 26.2228 36.7671 26.0417 36.718 25.8813C36.669 25.7209 36.5748 25.5883 36.4357 25.4834C36.2965 25.3786 36.1115 25.3058 35.8807 25.2651L34.829 25.0797L33.8973 30.3639L32.5989 30.1349L33.71 23.8337ZM36.1217 30.7561L35.1802 27.694L36.5536 27.9273L37.5216 30.9405L37.511 31.0011L36.1217 30.7561Z" fill="#B8CFEB"/>
<path d="M41.7601 26.3643L39.1252 31.2857L37.7447 31.0423L41.1971 25.1539L42.0756 25.3088L41.7601 26.3643ZM42.2628 31.8389L41.4658 26.3124L41.5173 25.2103L42.4045 25.3668L43.6477 32.0831L42.2628 31.8389ZM42.5985 29.4796L42.4192 30.4966L39.0912 29.9098L39.2705 28.8927L42.5985 29.4796Z" fill="#B8CFEB"/>
<path d="M50.4715 26.7892L49.3604 33.0904L48.0621 32.8615L46.2751 28.1912L45.5303 32.4151L44.232 32.1862L45.3431 25.8849L46.6414 26.1139L48.4319 30.7893L49.1775 26.561L50.4715 26.7892Z" fill="#B8CFEB"/>
<path d="M54.0611 32.2192C54.081 32.1066 54.0815 32.0026 54.0626 31.9071C54.0472 31.8091 54.0013 31.7148 53.9251 31.624C53.8494 31.5303 53.7374 31.4317 53.589 31.3282C53.4407 31.2247 53.2452 31.1099 53.0027 30.9839C52.7334 30.8412 52.4805 30.6895 52.244 30.5288C52.0105 30.3686 51.8091 30.1948 51.6399 30.0073C51.474 29.8174 51.3529 29.6101 51.2765 29.3854C51.203 29.1613 51.1902 28.9136 51.238 28.6424C51.2843 28.3798 51.3839 28.1519 51.537 27.9588C51.6906 27.7628 51.8847 27.6066 52.1194 27.4903C52.3546 27.3711 52.6209 27.2946 52.9184 27.2608C53.2188 27.2275 53.5392 27.2409 53.8797 27.3009C54.3442 27.3828 54.7348 27.538 55.0515 27.7664C55.3683 27.9947 55.5961 28.2714 55.7352 28.5964C55.8771 28.9219 55.915 29.2722 55.8489 29.6473L54.5592 29.4199C54.5917 29.2352 54.5813 29.0668 54.5278 28.9145C54.4777 28.7599 54.3819 28.6285 54.2403 28.5203C54.1017 28.4125 53.9155 28.338 53.6818 28.2968C53.4567 28.2571 53.2631 28.2587 53.1009 28.3015C52.9391 28.3414 52.8106 28.4124 52.7152 28.5146C52.6204 28.6139 52.5605 28.7342 52.5355 28.8756C52.5167 28.9824 52.5256 29.0836 52.5623 29.1793C52.6019 29.2755 52.6684 29.3706 52.7619 29.4644C52.8555 29.5582 52.9743 29.6521 53.1184 29.7459C53.2625 29.8397 53.4313 29.9364 53.625 30.036C53.95 30.2004 54.2309 30.3705 54.4677 30.5461C54.7074 30.7222 54.9009 30.9066 55.0484 31.0992C55.1959 31.2918 55.2964 31.4984 55.3497 31.719C55.403 31.9396 55.4068 32.1798 55.361 32.4394C55.3127 32.7135 55.216 32.9493 55.0711 33.1469C54.9262 33.3445 54.7396 33.5005 54.5111 33.6149C54.2827 33.7293 54.0217 33.8008 53.7281 33.8293C53.4345 33.8579 53.1146 33.8416 52.7684 33.7806C52.4568 33.7257 52.1566 33.6311 51.8679 33.4969C51.5798 33.3598 51.3263 33.1857 51.1077 32.9746C50.892 32.764 50.7334 32.5159 50.6321 32.2303C50.5307 31.9447 50.5113 31.6245 50.5739 31.2696L51.8766 31.4993C51.842 31.6955 51.843 31.8667 51.8797 32.013C51.9164 32.1593 51.9822 32.2839 52.077 32.3869C52.1748 32.4904 52.2968 32.5744 52.4431 32.6389C52.5923 32.7039 52.7593 32.7527 52.9439 32.7852C53.1689 32.8249 53.3592 32.8257 53.5146 32.7877C53.673 32.7502 53.7967 32.6812 53.8858 32.5809C53.9777 32.4811 54.0362 32.3605 54.0611 32.2192Z" fill="#B8CFEB"/>
<path d="M59.4347 29.4808L56.7998 34.4022L55.4193 34.1588L58.8717 28.2704L59.7502 28.4253L59.4347 29.4808ZM59.9375 34.9555L59.1404 29.4289L59.1919 28.3269L60.0791 28.4833L61.3223 35.1996L59.9375 34.9555ZM60.2732 32.5961L60.0938 33.6131L56.7658 33.0263L56.9451 32.0092L60.2732 32.5961Z" fill="#B8CFEB"/>
<path d="M65.8499 33.8427L67.1439 34.0708C67.0432 34.4904 66.8599 34.8463 66.5942 35.1386C66.3313 35.4314 65.999 35.6375 65.5971 35.7571C65.1982 35.8771 64.7404 35.8916 64.224 35.8005C63.8201 35.7293 63.4702 35.5962 63.1744 35.4013C62.879 35.2034 62.6405 34.9531 62.4589 34.6504C62.2802 34.3482 62.1645 34.0005 62.1118 33.6075C62.0591 33.2144 62.0735 32.7871 62.1549 32.3255L62.232 31.8883C62.3134 31.4267 62.4475 31.0205 62.6343 30.6697C62.8245 30.3165 63.0567 30.0287 63.3309 29.8063C63.608 29.5845 63.9192 29.4311 64.2643 29.3462C64.6095 29.2613 64.9797 29.2537 65.375 29.3234C65.9001 29.416 66.3262 29.5893 66.6533 29.8433C66.9832 30.0978 67.2182 30.41 67.3583 30.7798C67.5013 31.15 67.5553 31.5523 67.5204 31.9864L66.222 31.7575C66.2524 31.501 66.2398 31.2772 66.1843 31.0859C66.1293 30.8918 66.0216 30.7345 65.8614 30.614C65.7046 30.4911 65.4819 30.4043 65.1934 30.3534C64.977 30.3152 64.7809 30.3223 64.6051 30.3746C64.4293 30.4269 64.2721 30.5256 64.1334 30.6707C63.9948 30.8159 63.8759 31.0091 63.7768 31.2504C63.6812 31.4894 63.6038 31.7762 63.5448 32.1109L63.4662 32.5567C63.4087 32.8827 63.3826 33.1741 63.3879 33.4309C63.3937 33.6848 63.4321 33.9057 63.5031 34.0938C63.5774 34.2794 63.6878 34.4298 63.8341 34.5448C63.9838 34.6575 64.174 34.7342 64.4048 34.7749C64.6761 34.8227 64.9073 34.8188 65.0985 34.7633C65.2898 34.7078 65.4466 34.603 65.5689 34.4491C65.6942 34.2957 65.7878 34.0935 65.8499 33.8427Z" fill="#B8CFEB"/>
<path d="M71.6491 34.8652L72.9431 35.0934C72.8424 35.5129 72.6591 35.8689 72.3934 36.1611C72.1306 36.4539 71.7982 36.6601 71.3963 36.7796C70.9974 36.8997 70.5396 36.9142 70.0232 36.8231C69.6193 36.7519 69.2694 36.6188 68.9736 36.4238C68.6782 36.226 68.4398 35.9757 68.2581 35.6729C68.0794 35.3707 67.9637 35.0231 67.911 34.63C67.8583 34.237 67.8727 33.8096 67.9541 33.348L68.0312 32.9109C68.1126 32.4493 68.2467 32.0431 68.4335 31.6922C68.6237 31.339 68.8559 31.0513 69.1301 30.8289C69.4072 30.607 69.7184 30.4537 70.0635 30.3688C70.4087 30.2839 70.779 30.2763 71.1742 30.3459C71.6993 30.4385 72.1254 30.6118 72.4525 30.8659C72.7824 31.1204 73.0174 31.4325 73.1575 31.8023C73.3005 32.1726 73.3545 32.5748 73.3196 33.0089L72.0213 32.78C72.0516 32.5236 72.039 32.2997 71.9835 32.1085C71.9285 31.9143 71.8209 31.757 71.6606 31.6365C71.5038 31.5137 71.2811 31.4268 70.9926 31.376C70.7762 31.3378 70.5801 31.3449 70.4043 31.3972C70.2285 31.4495 70.0713 31.5482 69.9326 31.6933C69.794 31.8384 69.6751 32.0317 69.5761 32.273C69.4804 32.512 69.403 32.7988 69.344 33.1335L69.2654 33.5792C69.2079 33.9053 69.1818 34.1967 69.1871 34.4534C69.1929 34.7073 69.2313 34.9283 69.3023 35.1163C69.3766 35.302 69.487 35.4523 69.6333 35.5674C69.783 35.68 69.9732 35.7567 70.2041 35.7974C70.4753 35.8452 70.7065 35.8414 70.8978 35.7859C71.089 35.7303 71.2458 35.6256 71.3682 35.4717C71.4934 35.3182 71.587 35.1161 71.6491 34.8652Z" fill="#B8CFEB"/>
<path d="M75.9187 31.2762L74.8077 37.5775L73.5137 37.3493L74.6247 31.0481L75.9187 31.2762Z" fill="#B8CFEB"/>
<path d="M81.7813 35.4068L81.7286 35.7054C81.6442 36.1844 81.5034 36.6028 81.3065 36.9608C81.1095 37.3187 80.869 37.611 80.5851 37.8376C80.3017 38.0613 79.9831 38.2149 79.6293 38.2982C79.2783 38.3821 78.9038 38.389 78.5056 38.3188C78.1104 38.2491 77.7607 38.1145 77.4568 37.9152C77.1557 37.7163 76.9088 37.463 76.7161 37.1554C76.5239 36.8448 76.3951 36.4874 76.3295 36.0832C76.2668 35.6795 76.2777 35.2381 76.3622 34.7592L76.4148 34.4606C76.4998 33.9787 76.6405 33.5603 76.837 33.2052C77.034 32.8473 77.2744 32.555 77.5583 32.3284C77.8451 32.1023 78.164 31.9473 78.5149 31.8634C78.8688 31.78 79.2433 31.7732 79.6386 31.8429C80.0367 31.9131 80.3864 32.0476 80.6875 32.2465C80.9914 32.4459 81.2381 32.7006 81.4273 33.0106C81.6195 33.3212 81.7469 33.6783 81.8096 34.082C81.8757 34.4834 81.8662 34.925 81.7813 35.4068ZM80.4173 35.4742L80.4715 35.1669C80.5305 34.8323 80.5521 34.5326 80.5363 34.2681C80.5204 34.0035 80.4687 33.7742 80.3809 33.5802C80.2931 33.3863 80.1717 33.231 80.0168 33.1144C79.8623 32.995 79.6755 32.9159 79.4562 32.8772C79.2369 32.8386 79.0343 32.849 78.8483 32.9084C78.6657 32.9654 78.5 33.0701 78.3512 33.2223C78.2052 33.3751 78.0796 33.5731 77.9742 33.8163C77.8689 34.0595 77.7867 34.3485 77.7277 34.6831L77.6735 34.9904C77.615 35.3222 77.5934 35.6218 77.6087 35.8893C77.6245 36.1539 77.6761 36.3846 77.7633 36.5814C77.8511 36.7754 77.9722 36.9321 78.1267 37.0516C78.2811 37.171 78.468 37.2501 78.6872 37.2888C78.9065 37.3274 79.1092 37.317 79.2952 37.2576C79.4811 37.1982 79.6471 37.0921 79.793 36.9393C79.9395 36.7837 80.0654 36.5843 80.1707 36.3411C80.2766 36.095 80.3588 35.806 80.4173 35.4742ZM79.0937 31.4657L80.177 30.2823L81.5316 30.5212L80.1064 31.6443L79.0937 31.4657Z" fill="#B8CFEB"/>
<path d="M88.3741 33.4725L87.263 39.7737L85.9647 39.5448L84.1777 34.8744L83.4329 39.0983L82.1346 38.8694L83.2457 32.5682L84.544 32.7971L86.3345 37.4725L87.0801 33.2443L88.3741 33.4725Z" fill="#B8CFEB"/>
<path d="M41.274 43.8497L39.9021 43.6078L40.0893 42.5966L41.4526 42.837C41.793 42.897 42.0936 42.8712 42.3542 42.7595C42.6154 42.6449 42.8313 42.4494 43.002 42.1731C43.1756 41.8973 43.2995 41.5488 43.3738 41.1276L43.428 40.8203C43.485 40.4972 43.5005 40.2069 43.4744 39.9494C43.4513 39.6925 43.3882 39.4686 43.285 39.2779C43.1817 39.0871 43.0409 38.9329 42.8623 38.8151C42.6843 38.6945 42.4697 38.612 42.2187 38.5678L40.8079 38.319L40.9872 37.302L42.3981 37.5508C42.8193 37.625 43.1917 37.7651 43.5154 37.9709C43.8425 38.1743 44.111 38.4314 44.321 38.7421C44.531 39.0528 44.6726 39.4051 44.746 39.7988C44.8228 40.1901 44.8215 40.6108 44.7421 41.0609L44.6894 41.3595C44.6106 41.8068 44.4679 42.2025 44.2614 42.5469C44.0578 42.8918 43.8042 43.1743 43.5006 43.3945C43.2004 43.6123 42.8602 43.762 42.4799 43.8437C42.103 43.923 41.701 43.925 41.274 43.8497ZM41.7489 37.4363L40.6378 43.7375L39.3395 43.5086L40.4506 37.2074L41.7489 37.4363Z" fill="#B8CFEB"/>
<path d="M47.5957 38.4672L46.4846 44.7685L45.1906 44.5403L46.3017 38.2391L47.5957 38.4672Z" fill="#B8CFEB"/>
<path d="M53.2757 42.5701L52.8354 45.0672C52.7164 45.1682 52.5423 45.2699 52.3131 45.3723C52.0843 45.4717 51.7997 45.542 51.4593 45.5832C51.1188 45.6243 50.7192 45.6044 50.2605 45.5235C49.8537 45.4518 49.4946 45.32 49.1834 45.1283C48.8726 44.9337 48.6189 44.6852 48.4223 44.3828C48.2287 44.0809 48.1 43.731 48.0363 43.333C47.9731 42.9322 47.9842 42.4894 48.0697 42.0047L48.1391 41.6108C48.2246 41.1261 48.3627 40.7057 48.5534 40.3496C48.747 39.9941 48.9835 39.7071 49.263 39.4886C49.5425 39.2701 49.8558 39.1216 50.2028 39.043C50.5499 38.9643 50.921 38.9599 51.3163 39.0296C51.8645 39.1262 52.2988 39.295 52.6193 39.536C52.9402 39.774 53.1653 40.0666 53.2945 40.4136C53.4271 40.7583 53.4794 41.1364 53.4515 41.548L52.1921 41.3259C52.198 41.1068 52.1702 40.91 52.1088 40.7356C52.0473 40.5611 51.9408 40.4144 51.7892 40.2955C51.6405 40.177 51.4349 40.0947 51.1724 40.0484C50.956 40.0102 50.7548 40.0209 50.5688 40.0803C50.3862 40.1373 50.2222 40.2408 50.0767 40.3907C49.9313 40.5405 49.8062 40.7357 49.7013 40.976C49.5965 41.2163 49.5148 41.5024 49.4563 41.8342L49.3853 42.2366C49.3273 42.5656 49.3077 42.8626 49.3264 43.1276C49.3456 43.3898 49.402 43.6184 49.4955 43.8134C49.5925 44.006 49.7256 44.1619 49.895 44.281C50.0644 44.4001 50.2717 44.4813 50.517 44.5245C50.7218 44.5607 50.8951 44.5734 51.0368 44.5627C51.1814 44.5525 51.2998 44.5302 51.3922 44.4959C51.4879 44.4592 51.5629 44.4219 51.6172 44.3839L51.8141 43.2673L50.6283 43.0582L50.7916 42.1321L53.2757 42.5701Z" fill="#B8CFEB"/>
<path d="M56.2339 39.9904L55.1229 46.2916L53.8289 46.0635L54.9399 39.7622L56.2339 39.9904Z" fill="#B8CFEB"/>
<path d="M60.1376 40.6787L59.0265 46.9799L57.7325 46.7518L58.8436 40.4505L60.1376 40.6787ZM62.0764 41.0206L61.8971 42.0376L56.7557 41.131L56.935 40.114L62.0764 41.0206Z" fill="#B8CFEB"/>
<path d="M64.7211 42.598L62.0862 47.5195L60.7057 47.276L64.1581 41.3876L65.0366 41.5425L64.7211 42.598ZM65.2239 48.0727L64.4268 42.5461L64.4783 41.4441L65.3655 41.6005L66.6088 48.3169L65.2239 48.0727ZM65.5596 45.7133L65.3802 46.7303L62.0522 46.1435L62.2315 45.1265L65.5596 45.7133Z" fill="#B8CFEB"/>
<path d="M71.4224 48.1215L71.2438 49.1342L68.0715 48.5748L68.2501 47.5621L71.4224 48.1215ZM69.6024 42.3476L68.4913 48.6489L67.193 48.4199L68.3041 42.1187L69.6024 42.3476Z" fill="#B8CFEB"/>
<g clip-path="url(#clip0_638_89440)">
<g clip-path="url(#clip1_638_89440)">
<g clip-path="url(#clip2_638_89440)">
<path d="M126.102 36.0628C126.106 36.0639 126.111 36.0642 126.115 36.0636C126.119 36.0631 126.123 36.0617 126.126 36.0595C126.13 36.0573 126.133 36.0544 126.135 36.051C126.137 36.0476 126.139 36.0438 126.139 36.0397C126.14 36.0357 126.14 36.0315 126.139 36.0275C126.138 36.0236 126.136 36.0198 126.134 36.0166C126.131 36.0134 126.128 36.0107 126.124 36.0088C126.121 36.0069 126.117 36.0057 126.113 36.0054C122.359 34.7503 119.077 36.9988 118.505 40.2395C117.998 43.1157 119.715 46.0483 122.861 46.6031C123.801 46.7687 124.858 46.7176 125.728 46.2584C125.969 46.1229 126.082 46.0439 126.21 45.7698C126.21 45.7698 126.468 45.2023 126.432 44.6228C126.426 44.5426 126.407 44.5392 126.323 44.5639C125.627 44.6984 124.45 44.7681 123.528 44.6055C121.017 44.162 119.788 41.8299 120.17 39.6632C120.562 37.4389 123.039 35.3846 126.102 36.0628Z" fill="#B8CFEB"/>
<path d="M129.429 39.0613C129.76 37.1823 126.692 35.9689 124.507 36.1375C124.446 36.1465 124.459 36.1881 124.497 36.1949C125.943 36.2918 127.529 37.5008 127.336 38.5935C127.198 39.3798 126.206 39.6202 125.632 39.7363C125.59 39.7487 125.602 39.7906 125.64 39.7973C126.687 39.8039 127.575 40.0383 128.29 40.2448C128.367 40.2584 128.412 40.2265 128.476 40.1985C128.908 39.9977 129.32 39.6749 129.429 39.0613Z" fill="#B8CFEB"/>
<path d="M122.181 40.4724C125.652 41.0844 127.024 43.2837 126.679 45.2405C126.395 46.8513 124.783 47.3581 123.487 47.3073C123.479 47.3059 123.471 47.3077 123.465 47.3121C123.459 47.3166 123.454 47.3234 123.453 47.331C123.452 47.3387 123.453 47.3465 123.458 47.3529C123.462 47.3593 123.469 47.3636 123.477 47.3649C126.392 47.879 129.129 46.8193 129.501 44.7099C129.683 43.6732 129.195 42.8568 128.674 42.1126C128.61 42.0223 128.59 42.0187 128.527 42.047C128.141 42.2165 127.676 42.6088 127.329 43.4572C127.326 43.4763 127.287 43.4696 127.291 43.4505C127.576 42.0573 128.617 41.3126 130.285 41.6068C130.323 41.6135 130.33 41.5753 130.295 41.5494C128.079 39.9918 124.929 39.5751 122.187 40.4361C122.146 40.4466 122.162 40.469 122.181 40.4724Z" fill="#B8CFEB"/>
</g>
</g>
<path d="M123.633 53.9161C123.293 53.9615 122.949 53.9594 122.61 53.9098C121.856 53.7768 121.816 53.0871 121.914 52.5327C122.065 51.6728 122.453 51.2933 123.069 51.4018C123.243 51.4299 123.411 51.4861 123.567 51.5684L124.071 51.8831L124.207 51.171L124.136 51.127C123.783 50.8961 123.39 50.7341 122.977 50.6494C121.873 50.4547 121.02 51.1201 120.804 52.3449C120.599 53.511 121.148 54.4157 122.175 54.5968C122.622 54.6756 123.05 54.6457 123.707 54.4906L123.812 54.465L123.748 53.9026L123.633 53.9161Z" fill="#B8CFEB"/>
<path d="M111.183 49.6825C111.702 49.5669 111.997 49.2463 112.099 48.6667C112.198 48.1024 112.007 47.627 111.574 47.3531C111.271 47.1603 110.972 47.0743 110.042 46.9103L108.074 46.5635L107.975 47.127L108.578 47.3262L107.758 51.9752L109.322 52.251C110.09 52.3864 110.421 52.3967 110.797 52.2977C111.07 52.2311 111.317 52.0848 111.506 51.8774C111.695 51.67 111.818 51.4109 111.86 51.1332C111.981 50.4459 111.749 49.9766 111.183 49.6825ZM109.677 47.5515L109.982 47.6053C110.39 47.6772 110.711 47.7338 110.878 47.9365C110.989 48.0727 111.03 48.2735 110.989 48.5018C110.896 49.0287 110.698 49.2088 110.065 49.1616L109.611 49.1296L109.345 49.4362L109.677 47.5515ZM110.287 51.5039C110.007 51.6466 109.636 51.597 109.183 51.517L108.985 51.4822L109.292 49.7403L109.318 49.7496L109.68 49.8134C110.079 49.8837 110.397 49.9525 110.573 50.1527C110.718 50.3239 110.772 50.5744 110.722 50.8554C110.669 51.1555 110.512 51.3923 110.289 51.5057" fill="#B8CFEB"/>
<path d="M119.597 50.0511C119.275 49.9944 118.845 50.0357 118.342 50.1487C118.351 50.0605 118.374 49.844 118.374 49.844L116.743 49.7652L116.645 50.3242L117.231 50.4276L116.681 53.5486L117.727 53.7331C117.727 53.7331 118.223 50.9773 118.251 50.8193C118.528 50.7728 118.81 50.7695 119.088 50.8094C119.256 50.839 119.364 50.8903 119.419 50.9676C119.501 51.0876 119.464 51.2866 119.421 51.5192L118.991 53.9567L120.047 54.1429L120.487 51.6489C120.589 51.0708 120.596 50.8768 120.455 50.6095C120.301 50.313 120.012 50.1243 119.597 50.0511Z" fill="#B8CFEB"/>
<path d="M126.5 51.269C125.325 51.0619 124.456 51.6961 124.241 52.9179C124.022 54.1565 124.604 55.0221 125.801 55.2331C126.971 55.4393 127.834 54.8042 128.049 53.5824C128.268 52.343 127.689 51.4779 126.5 51.2683L126.5 51.269ZM125.914 54.5507C125.574 54.4906 125.144 54.2764 125.349 53.118C125.55 51.9786 125.982 51.8959 126.377 51.9655C126.717 52.0254 127.147 52.2382 126.944 53.3913C126.74 54.5444 126.311 54.6183 125.915 54.5484" fill="#B8CFEB"/>
<path d="M116.218 49.6317L115.188 49.45L115.16 49.6073C114.938 49.427 114.674 49.3066 114.392 49.2577C113.362 49.0761 112.482 49.7807 112.275 50.9513C112.078 52.0731 112.533 52.8801 113.463 53.0441C113.702 53.0863 114.033 53.0328 114.559 52.8437L114.498 53.1912L114.519 53.1949L116.011 53.3006L116.122 52.6736L115.695 52.5984L116.218 49.6317ZM114.664 52.4332C114.494 52.4329 114.324 52.4185 114.156 52.39C113.506 52.2753 113.223 51.7955 113.358 51.0296C113.498 50.2346 113.982 49.846 114.685 49.97C114.82 49.993 114.952 50.0292 115.08 50.0781L114.664 52.4332Z" fill="#B8CFEB"/>
<path d="M133.746 50.8373L133.692 50.8325L133.564 50.8249L132.142 50.7576L132.059 51.2265L132.569 51.3163C132.554 51.4011 132.372 52.4327 132.353 52.5381C131.964 52.3254 131.406 52.1042 130.845 52.1935C130.073 52.3101 129.545 52.895 129.358 53.843C129.185 54.7007 129.506 55.4879 130.174 55.8466C130.664 56.1095 131.389 56.0389 131.805 55.9225C131.796 55.9995 131.764 56.2348 131.764 56.2348L133.201 56.2969L133.283 55.8272L132.834 55.7479C132.85 55.6525 133.743 50.8392 133.743 50.8392L133.746 50.8373ZM131.844 55.4373C131.348 55.4812 130.805 55.4846 130.537 55.0146C130.381 54.7406 130.404 54.3778 130.468 54.0143C130.475 53.9738 130.482 53.931 130.49 53.8898C130.569 53.4919 130.721 53.2542 130.966 53.0596C131.354 52.7517 131.895 52.9226 132.266 53.1826C132.266 53.1826 131.855 55.3613 131.842 55.4369" fill="#B8CFEB"/>
<path d="M135.963 52.9352C135.736 52.8852 135.502 52.8757 135.272 52.9072C134.453 53.0233 133.895 53.625 133.7 54.6023C133.522 55.4858 133.866 56.2993 134.578 56.6712C135.207 57.0018 136.224 56.9425 136.901 56.7139L136.938 56.7023L136.856 56.1368L136.49 56.1848C135.965 56.2347 135.275 56.3769 134.948 55.8246C134.77 55.5255 134.809 55.1301 134.861 54.8181L136.902 55.2197L137.208 55.2736L137.215 55.2293C137.239 55.1405 137.259 55.052 137.274 54.9665C137.588 53.1857 136.026 52.9511 135.958 52.9367L135.963 52.9352ZM134.976 54.2951C134.998 54.2304 135.161 53.4671 135.846 53.5878C136.531 53.7086 136.419 54.4629 136.414 54.5487L134.976 54.2951Z" fill="#B8CFEB"/>
<path d="M112.78 57.8094C113.299 57.6938 113.594 57.3734 113.696 56.7938C113.796 56.2295 113.603 55.7538 113.171 55.48C112.869 55.2874 112.568 55.2012 111.639 55.0374L109.671 54.6904L109.572 55.254L110.174 55.4539L109.355 60.1022L110.919 60.3781C111.687 60.5134 112.018 60.5238 112.395 60.4248C112.667 60.358 112.914 60.2115 113.103 60.0041C113.292 59.7967 113.415 59.5377 113.457 59.2601C113.578 58.5729 113.346 58.1044 112.78 57.8094ZM111.274 55.6786L111.58 55.7324C111.986 55.8041 112.307 55.8606 112.473 56.0632C112.586 56.1997 112.625 56.4002 112.585 56.6285C112.492 57.1562 112.295 57.3356 111.661 57.2885L111.207 57.2564L110.942 57.5632L111.274 55.6786ZM111.884 59.6324C111.605 59.7753 111.233 59.7255 110.779 59.6455L110.583 59.6109L110.891 57.8675L110.916 57.8767L111.278 57.9407C111.676 58.0108 111.995 58.0796 112.171 58.2798C112.317 58.4513 112.37 58.7016 112.321 58.9827C112.268 59.2828 112.109 59.5202 111.886 59.6328" fill="#B8CFEB"/>
<path d="M124.561 58.7726C123.386 58.5654 122.522 59.2004 122.307 60.4222C122.088 61.6609 122.669 62.5263 123.862 62.7366C125.032 62.9429 125.895 62.3077 126.111 61.0859C126.329 59.8465 125.75 58.9814 124.561 58.7718L124.561 58.7726ZM123.975 62.0502C123.633 61.99 123.206 61.7761 123.411 60.6177C123.612 59.4784 124.043 59.3953 124.439 59.4652C124.78 59.5253 125.209 59.738 125.006 60.8911C124.802 62.0442 124.371 62.1178 123.975 62.0479" fill="#B8CFEB"/>
<path d="M128.422 62.7116L127.661 62.6931C127.495 62.6639 127.46 62.6127 127.44 62.5675C127.42 62.5223 127.424 62.4994 127.477 62.2038C127.482 62.171 127.803 60.3536 127.84 60.142L128.888 60.3268L129.002 59.6785L127.956 59.494L128.134 58.4868L127.059 58.387L126.423 61.996C126.352 62.3969 126.34 62.6586 126.476 62.8896C126.612 63.1206 126.832 63.2516 127.198 63.3161C127.592 63.3734 127.993 63.3565 128.381 63.2665L128.492 63.2436L128.422 62.7116Z" fill="#B8CFEB"/>
<path d="M116.291 57.3144C115.117 57.1073 114.252 57.7422 114.036 58.964C113.818 60.2026 114.4 61.0682 115.592 61.2784C116.764 61.4849 117.624 60.8494 117.84 59.6275C118.058 58.3882 117.48 57.5232 116.291 57.3136L116.291 57.3144ZM115.705 60.5921C115.365 60.5321 114.937 60.318 115.141 59.1596C115.342 58.0203 115.773 57.9372 116.169 58.007C116.51 58.067 116.94 58.2799 116.736 59.433C116.533 60.5861 116.103 60.6598 115.706 60.5898" fill="#B8CFEB"/>
<path d="M121.116 58.4801C120.889 58.2972 120.619 58.1754 120.331 58.1259C119.278 57.9403 118.382 58.6484 118.176 59.8214C117.977 60.9477 118.445 61.7586 119.394 61.9258C119.639 61.969 119.887 61.9459 120.497 61.8149L120.443 62.1204C120.328 62.7763 120.057 62.9231 119.235 62.7782C118.812 62.6979 118.398 62.5722 118.002 62.4032L117.89 63.0377C118.646 63.3498 118.963 63.4577 119.364 63.5284C119.874 63.6183 120.327 63.6093 120.667 63.4967C121.168 63.3324 121.402 63.0169 121.519 62.3533L122.197 58.5061L121.144 58.3205L121.116 58.4801ZM120.589 61.2957C120.422 61.2954 120.256 61.2814 120.092 61.2538C119.455 61.1415 119.179 60.6683 119.313 59.9108C119.451 59.1243 119.925 58.7385 120.614 58.8601C120.746 58.8827 120.875 58.9181 121 58.9658L120.589 61.2957Z" fill="#B8CFEB"/>
<path d="M132.849 60.4096L131.819 60.2279L131.791 60.3859C131.57 60.2055 131.306 60.0852 131.025 60.0367C129.992 59.8547 129.114 60.5596 128.907 61.731C128.709 62.8528 129.164 63.6589 130.094 63.8229C130.333 63.865 130.664 63.8115 131.192 63.6227L131.13 63.9717L132.642 64.0809L132.753 63.4547L132.326 63.3794L132.849 60.4096ZM131.295 63.2142C131.125 63.2139 130.955 63.1995 130.787 63.1711C130.137 63.0565 129.853 62.5765 129.988 61.8114C130.128 61.0157 130.612 60.6269 131.316 60.7511C131.451 60.7741 131.583 60.8104 131.71 60.8592L131.295 63.2142Z" fill="#B8CFEB"/>
<path d="M132.536 59.3733L132.427 58.5266L132.309 58.5522L130.547 58.9289L130.606 59.433L132.536 59.3733Z" fill="#B8CFEB"/>
</g>
<defs>
<clipPath id="clip0_638_89440">
<rect width="32.9905" height="29.9914" fill="white" transform="translate(109.225 32.0479) rotate(10)"/>
</clipPath>
<clipPath id="clip1_638_89440">
<rect width="11.9956" height="11.9966" fill="white" transform="translate(119.433 34.6089) rotate(10)"/>
</clipPath>
<clipPath id="clip2_638_89440">
<rect width="11.8677" height="11.7216" fill="white" transform="translate(119.472 34.7554) rotate(10)"/>
</clipPath>
</defs>
</svg>
