<svg width="32" height="32" viewBox="0 0 32 32" fill="none" xmlns="http://www.w3.org/2000/svg">
<rect x="1" y="5" width="30" height="22" rx="4" fill="#0040A8"/>
<path fill-rule="evenodd" clip-rule="evenodd" d="M19.3985 22C22.6196 22 25.2308 19.3137 25.2308 16C25.2308 12.6864 22.6196 10.0001 19.3985 10.0001C17.9549 10.0001 16.6338 10.5397 15.6153 11.4335C14.5969 10.5397 13.2758 10.0002 11.8323 10.0002C8.61119 10.0002 6 12.6864 6 16.0001C6 19.3138 8.61119 22 11.8323 22C13.2759 22 14.597 21.4605 15.6154 20.5667C16.6338 21.4604 17.9549 22 19.3985 22Z" fill="#FF5E00"/>
<path fill-rule="evenodd" clip-rule="evenodd" d="M15.9999 11.4334C14.9407 10.5396 13.5668 10.0001 12.0655 10.0001C8.71564 10.0001 6 12.6864 6 16C6 19.3137 8.71564 22 12.0655 22C13.5669 22 14.9409 21.4604 16 20.5666C14.6958 19.4661 13.8688 17.8285 13.8688 15.9999C13.8688 14.1714 14.6958 12.5339 15.9999 11.4334Z" fill="#ED0006"/>
<path fill-rule="evenodd" clip-rule="evenodd" d="M16.0001 20.5665C17.3042 19.466 18.1312 17.8285 18.1312 15.9999C18.1312 14.1713 17.3042 12.5338 16.0001 11.4333C17.0592 10.5395 18.4332 10 19.9345 10C23.2844 10 26 12.6863 26 15.9999C26 19.3136 23.2844 21.9998 19.9345 21.9998C18.4332 21.9998 17.0592 21.4603 16.0001 20.5665Z" fill="#F9A000"/>
</svg>
