<svg width="154" height="127" viewBox="0 0 154 127" fill="none" xmlns="http://www.w3.org/2000/svg">
<rect x="2.13307" y="101.935" width="102" height="134" rx="9" transform="rotate(-80 2.13307 101.935)" stroke="#E6EFF8" stroke-width="2"/>
<line x1="8.67853" y1="59.0562" x2="142.612" y2="82.6724" stroke="#E6EFF8" stroke-width="2"/>
<path d="M93.8169 74.1016L104.236 15.0131" stroke="#E6EFF8" stroke-width="2"/>
<path d="M35.7581 89.0024L31.8333 88.3103L32.2698 85.8349L36.1946 86.5269C36.8012 86.6339 37.3123 86.6222 37.7279 86.4918C38.1448 86.3545 38.4732 86.1215 38.7129 85.7929C38.9526 85.4643 39.1123 85.0743 39.1919 84.6229C39.2727 84.1645 39.2598 83.7223 39.1531 83.2962C39.0464 82.8702 38.8238 82.5037 38.4853 82.1968C38.1467 81.8898 37.6742 81.6829 37.0676 81.5759L34.243 81.0779L31.9654 93.9948L28.7917 93.4352L31.5077 78.0322L37.506 79.0899C38.712 79.3025 39.7067 79.7033 40.49 80.2923C41.2816 80.8755 41.8395 81.5883 42.1636 82.4309C42.4877 83.2734 42.5633 84.1848 42.3905 85.1651C42.2151 86.1595 41.8342 86.9796 41.2477 87.6251C40.6612 88.2707 39.8994 88.7145 38.9622 88.9565C38.0322 89.1998 36.9642 89.215 35.7581 89.0024Z" fill="#B8CFEB"/>
<path d="M49.5141 83.9233L43.0734 95.9535L39.6987 95.3584L48.1379 80.9646L50.2854 81.3432L49.5141 83.9233ZM50.7431 97.3059L48.7948 83.7965L48.9207 81.1026L51.0894 81.485L54.1284 97.9028L50.7431 97.3059ZM51.5637 91.5385L51.1254 94.0245L42.9901 92.5901L43.4285 90.104L51.5637 91.5385Z" fill="#B8CFEB"/>
<path d="M68.9939 92.223L67.9175 98.3271C67.6268 98.574 67.2012 98.8225 66.6407 99.0728C66.0815 99.316 65.3859 99.4878 64.5537 99.5883C63.7215 99.6888 62.7447 99.6402 61.6233 99.4425C60.6289 99.2671 59.7513 98.9451 58.9904 98.4765C58.2307 98.0007 57.6106 97.3933 57.1301 96.6541C56.6567 95.9161 56.3421 95.0607 56.1864 94.0879C56.0319 93.1081 56.0591 92.0257 56.2681 90.8409L56.4378 89.8782C56.6467 88.6933 56.9843 87.6657 57.4505 86.7953C57.9237 85.9261 58.5019 85.2245 59.1851 84.6905C59.8683 84.1565 60.634 83.7934 61.4824 83.6012C62.3307 83.409 63.238 83.3981 64.2042 83.5684C65.5442 83.8047 66.6059 84.2173 67.3892 84.8063C68.1738 85.3882 68.724 86.1034 69.0398 86.9517C69.3639 87.7942 69.4918 88.7185 69.4235 89.7245L66.345 89.1817C66.3595 88.6461 66.2916 88.1651 66.1413 87.7387C65.9911 87.3122 65.7307 86.9536 65.3602 86.6629C64.9968 86.3733 64.4941 86.172 63.8524 86.0588C63.3234 85.9656 62.8316 85.9916 62.3769 86.1368C61.9306 86.2763 61.5297 86.5292 61.1742 86.8956C60.8187 87.2619 60.5128 87.7388 60.2565 88.3263C60.0002 88.9138 59.8006 89.613 59.6576 90.4241L59.4841 91.4079C59.3423 92.2119 59.2943 92.9379 59.34 93.5859C59.387 94.2269 59.5248 94.7856 59.7534 95.2623C59.9904 95.7331 60.3159 96.1141 60.73 96.4053C61.144 96.6964 61.6508 96.8949 62.2503 97.0006C62.751 97.0889 63.1746 97.1199 63.521 97.0937C63.8744 97.0688 64.164 97.0144 64.3896 96.9306C64.6236 96.8409 64.807 96.7496 64.9397 96.6567L65.421 93.9273L62.5223 93.4162L62.9215 91.1523L68.9939 92.223Z" fill="#B8CFEB"/>
<path d="M78.6487 89.0605L72.2079 101.091L68.8332 100.496L77.2724 86.1018L79.4199 86.4804L78.6487 89.0605ZM79.8777 102.443L77.9293 88.9337L78.0553 86.2398L80.2239 86.6222L83.263 103.04L79.8777 102.443ZM80.6983 96.6757L80.2599 99.1617L72.1247 97.7273L72.563 95.2412L80.6983 96.6757Z" fill="#B8CFEB"/>
<path d="M89.4199 104.126L86.0664 103.534L86.524 101.063L89.8564 101.65C90.6886 101.797 91.4233 101.734 92.0605 101.461C92.6989 101.181 93.2268 100.703 93.644 100.027C94.0683 99.3531 94.3712 98.5012 94.5528 97.4715L94.6852 96.7204C94.8245 95.9305 94.8624 95.2209 94.7988 94.5916C94.7423 93.9635 94.5879 93.4163 94.3356 92.9501C94.0833 92.4838 93.7389 92.1067 93.3025 91.8189C92.8672 91.524 92.3428 91.3225 91.7293 91.2143L88.2805 90.6062L88.7189 88.1201L92.1676 88.7282C93.1973 88.9098 94.1078 89.2521 94.8989 89.7552C95.6984 90.2525 96.3548 90.8809 96.8681 91.6404C97.3814 92.4 97.7277 93.2609 97.907 94.2234C98.0947 95.18 98.0915 96.2084 97.8975 97.3086L97.7688 98.0386C97.5761 99.1317 97.2273 100.099 96.7225 100.941C96.2248 101.784 95.6049 102.475 94.8628 103.013C94.129 103.545 93.2973 103.911 92.3677 104.111C91.4463 104.305 90.4637 104.31 89.4199 104.126ZM90.5808 88.4484L87.8648 103.851L84.6911 103.292L87.4071 87.8888L90.5808 88.4484Z" fill="#B8CFEB"/>
<path d="M112.856 99.9462L112.727 100.676C112.521 101.847 112.177 102.87 111.696 103.745C111.214 104.62 110.626 105.334 109.932 105.888C109.24 106.435 108.461 106.81 107.596 107.014C106.738 107.219 105.822 107.236 104.849 107.064C103.883 106.894 103.028 106.565 102.285 106.078C101.549 105.592 100.946 104.973 100.475 104.221C100.005 103.461 99.69 102.588 99.5297 101.6C99.3765 100.613 99.4031 99.5339 99.6095 98.3631L99.7383 97.6332C99.9459 96.4554 100.29 95.4325 100.77 94.5646C101.252 93.6896 101.839 92.9751 102.533 92.4212C103.234 91.8685 104.014 91.4897 104.872 91.2846C105.737 91.0808 106.652 91.0641 107.619 91.2345C108.592 91.4061 109.446 91.7349 110.182 92.221C110.926 92.7084 111.528 93.331 111.991 94.0889C112.461 94.848 112.772 95.721 112.925 96.7079C113.087 97.689 113.064 98.7684 112.856 99.9462ZM109.522 100.111L109.655 99.3599C109.799 98.5418 109.852 97.8093 109.813 97.1626C109.774 96.5158 109.648 95.9554 109.433 95.4812C109.219 95.0071 108.922 94.6276 108.543 94.3426C108.165 94.0506 107.709 93.8573 107.173 93.7628C106.637 93.6683 106.141 93.6937 105.687 93.839C105.24 93.9784 104.835 94.2342 104.472 94.6064C104.115 94.9798 103.808 95.4638 103.55 96.0583C103.293 96.6528 103.092 97.3591 102.947 98.1772L102.815 98.9283C102.672 99.7394 102.619 100.472 102.657 101.126C102.695 101.772 102.821 102.336 103.035 102.818C103.249 103.292 103.545 103.675 103.923 103.967C104.3 104.259 104.757 104.452 105.293 104.547C105.829 104.641 106.324 104.616 106.779 104.47C107.234 104.325 107.639 104.066 107.996 103.692C108.354 103.312 108.662 102.824 108.919 102.23C109.178 101.628 109.379 100.922 109.522 100.111Z" fill="#B8CFEB"/>
<path d="M31.0311 23.3613L29.9201 29.6626L28.626 29.4344L29.7371 23.1332L31.0311 23.3613ZM32.97 23.7032L32.7906 24.7202L27.6493 23.8137L27.8286 22.7966L32.97 23.7032Z" fill="#B8CFEB"/>
<path d="M33.71 23.8337L36.06 24.2481C36.5418 24.333 36.9431 24.4782 37.2639 24.6835C37.5876 24.8893 37.8183 25.1501 37.9559 25.4659C38.0936 25.7817 38.1261 26.1459 38.0533 26.5585C37.9938 26.8961 37.885 27.1759 37.7268 27.3979C37.5721 27.6175 37.3766 27.7898 37.1404 27.9147C36.9076 28.0373 36.6443 28.1218 36.3505 28.1681L35.9012 28.312L33.8585 27.9518L34.0284 26.9376L35.5475 27.2055C35.7754 27.2457 35.9715 27.2386 36.1358 27.1843C36.3 27.1299 36.4324 27.0372 36.5328 26.9062C36.6362 26.7757 36.7046 26.6152 36.7382 26.4248C36.7738 26.2228 36.7671 26.0417 36.718 25.8813C36.669 25.7209 36.5748 25.5883 36.4357 25.4834C36.2965 25.3786 36.1115 25.3058 35.8807 25.2651L34.829 25.0797L33.8973 30.3639L32.5989 30.1349L33.71 23.8337ZM36.1217 30.7561L35.1802 27.694L36.5536 27.9273L37.5216 30.9405L37.511 31.0011L36.1217 30.7561Z" fill="#B8CFEB"/>
<path d="M41.7601 26.3643L39.1252 31.2857L37.7447 31.0423L41.1971 25.1539L42.0756 25.3088L41.7601 26.3643ZM42.2628 31.8389L41.4658 26.3124L41.5173 25.2103L42.4045 25.3668L43.6477 32.0831L42.2628 31.8389ZM42.5985 29.4796L42.4192 30.4966L39.0912 29.9098L39.2705 28.8927L42.5985 29.4796Z" fill="#B8CFEB"/>
<path d="M50.4715 26.7892L49.3604 33.0904L48.0621 32.8615L46.2751 28.1912L45.5303 32.4151L44.232 32.1862L45.3431 25.8849L46.6414 26.1139L48.4319 30.7893L49.1775 26.561L50.4715 26.7892Z" fill="#B8CFEB"/>
<path d="M54.0611 32.2192C54.081 32.1066 54.0815 32.0026 54.0626 31.9071C54.0472 31.8091 54.0013 31.7148 53.9251 31.624C53.8494 31.5303 53.7374 31.4317 53.589 31.3282C53.4407 31.2247 53.2452 31.1099 53.0027 30.9839C52.7334 30.8412 52.4805 30.6895 52.244 30.5288C52.0105 30.3686 51.8091 30.1948 51.6399 30.0073C51.474 29.8174 51.3529 29.6101 51.2765 29.3854C51.203 29.1613 51.1902 28.9136 51.238 28.6424C51.2843 28.3798 51.3839 28.1519 51.537 27.9588C51.6906 27.7628 51.8847 27.6066 52.1194 27.4903C52.3546 27.3711 52.6209 27.2946 52.9184 27.2608C53.2188 27.2275 53.5392 27.2409 53.8797 27.3009C54.3442 27.3828 54.7348 27.538 55.0515 27.7664C55.3683 27.9947 55.5961 28.2714 55.7352 28.5964C55.8771 28.9219 55.915 29.2722 55.8489 29.6473L54.5592 29.4199C54.5917 29.2352 54.5813 29.0668 54.5278 28.9145C54.4777 28.7599 54.3819 28.6285 54.2403 28.5203C54.1017 28.4125 53.9155 28.338 53.6818 28.2968C53.4567 28.2571 53.2631 28.2587 53.1009 28.3015C52.9391 28.3414 52.8106 28.4124 52.7152 28.5146C52.6204 28.6139 52.5605 28.7342 52.5355 28.8756C52.5167 28.9824 52.5256 29.0836 52.5623 29.1793C52.6019 29.2755 52.6684 29.3706 52.7619 29.4644C52.8555 29.5582 52.9743 29.6521 53.1184 29.7459C53.2625 29.8397 53.4313 29.9364 53.625 30.036C53.95 30.2004 54.2309 30.3705 54.4677 30.5461C54.7074 30.7222 54.9009 30.9066 55.0484 31.0992C55.1959 31.2918 55.2964 31.4984 55.3497 31.719C55.403 31.9396 55.4068 32.1798 55.361 32.4394C55.3127 32.7135 55.216 32.9493 55.0711 33.1469C54.9262 33.3445 54.7396 33.5005 54.5111 33.6149C54.2827 33.7293 54.0217 33.8008 53.7281 33.8293C53.4345 33.8579 53.1146 33.8416 52.7684 33.7806C52.4568 33.7257 52.1566 33.6311 51.8679 33.4969C51.5798 33.3598 51.3263 33.1857 51.1077 32.9746C50.892 32.764 50.7334 32.5159 50.6321 32.2303C50.5307 31.9447 50.5113 31.6245 50.5739 31.2696L51.8766 31.4993C51.842 31.6955 51.843 31.8667 51.8797 32.013C51.9164 32.1593 51.9822 32.2839 52.077 32.3869C52.1748 32.4904 52.2968 32.5744 52.4431 32.6389C52.5923 32.7039 52.7593 32.7527 52.9439 32.7852C53.1689 32.8249 53.3592 32.8257 53.5146 32.7877C53.673 32.7502 53.7967 32.6812 53.8858 32.5809C53.9777 32.4811 54.0362 32.3605 54.0611 32.2192Z" fill="#B8CFEB"/>
<path d="M59.4347 29.4808L56.7998 34.4022L55.4193 34.1588L58.8717 28.2704L59.7502 28.4253L59.4347 29.4808ZM59.9375 34.9555L59.1404 29.4289L59.1919 28.3269L60.0791 28.4833L61.3223 35.1996L59.9375 34.9555ZM60.2732 32.5961L60.0938 33.6131L56.7658 33.0263L56.9451 32.0092L60.2732 32.5961Z" fill="#B8CFEB"/>
<path d="M65.8499 33.8427L67.1439 34.0708C67.0432 34.4904 66.8599 34.8463 66.5942 35.1386C66.3313 35.4314 65.999 35.6375 65.5971 35.7571C65.1982 35.8771 64.7404 35.8916 64.224 35.8005C63.8201 35.7293 63.4702 35.5962 63.1744 35.4013C62.879 35.2034 62.6405 34.9531 62.4589 34.6504C62.2802 34.3482 62.1645 34.0005 62.1118 33.6075C62.0591 33.2144 62.0735 32.7871 62.1549 32.3255L62.232 31.8883C62.3134 31.4267 62.4475 31.0205 62.6343 30.6697C62.8245 30.3165 63.0567 30.0287 63.3309 29.8063C63.608 29.5845 63.9192 29.4311 64.2643 29.3462C64.6095 29.2613 64.9797 29.2537 65.375 29.3234C65.9001 29.416 66.3262 29.5893 66.6533 29.8433C66.9832 30.0978 67.2182 30.41 67.3583 30.7798C67.5013 31.15 67.5553 31.5523 67.5204 31.9864L66.222 31.7575C66.2524 31.501 66.2398 31.2772 66.1843 31.0859C66.1293 30.8918 66.0216 30.7345 65.8614 30.614C65.7046 30.4911 65.4819 30.4043 65.1934 30.3534C64.977 30.3152 64.7809 30.3223 64.6051 30.3746C64.4293 30.4269 64.2721 30.5256 64.1334 30.6707C63.9948 30.8159 63.8759 31.0091 63.7768 31.2504C63.6812 31.4894 63.6038 31.7762 63.5448 32.1109L63.4662 32.5567C63.4087 32.8827 63.3826 33.1741 63.3879 33.4309C63.3937 33.6848 63.4321 33.9057 63.5031 34.0938C63.5774 34.2794 63.6878 34.4298 63.8341 34.5448C63.9838 34.6575 64.174 34.7342 64.4048 34.7749C64.6761 34.8227 64.9073 34.8188 65.0985 34.7633C65.2898 34.7078 65.4466 34.603 65.5689 34.4491C65.6942 34.2957 65.7878 34.0935 65.8499 33.8427Z" fill="#B8CFEB"/>
<path d="M71.6491 34.8652L72.9431 35.0934C72.8424 35.5129 72.6591 35.8689 72.3934 36.1611C72.1306 36.4539 71.7982 36.6601 71.3963 36.7796C70.9974 36.8997 70.5396 36.9142 70.0232 36.8231C69.6193 36.7519 69.2694 36.6188 68.9736 36.4238C68.6782 36.226 68.4398 35.9757 68.2581 35.6729C68.0794 35.3707 67.9637 35.0231 67.911 34.63C67.8583 34.237 67.8727 33.8096 67.9541 33.348L68.0312 32.9109C68.1126 32.4493 68.2467 32.0431 68.4335 31.6922C68.6237 31.339 68.8559 31.0513 69.1301 30.8289C69.4072 30.607 69.7184 30.4537 70.0635 30.3688C70.4087 30.2839 70.779 30.2763 71.1742 30.3459C71.6993 30.4385 72.1254 30.6118 72.4525 30.8659C72.7824 31.1204 73.0174 31.4325 73.1575 31.8023C73.3005 32.1726 73.3545 32.5748 73.3196 33.0089L72.0213 32.78C72.0516 32.5236 72.039 32.2997 71.9835 32.1085C71.9285 31.9143 71.8209 31.757 71.6606 31.6365C71.5038 31.5137 71.2811 31.4268 70.9926 31.376C70.7762 31.3378 70.5801 31.3449 70.4043 31.3972C70.2285 31.4495 70.0713 31.5482 69.9326 31.6933C69.794 31.8384 69.6751 32.0317 69.5761 32.273C69.4804 32.512 69.403 32.7988 69.344 33.1335L69.2654 33.5792C69.2079 33.9053 69.1818 34.1967 69.1871 34.4534C69.1929 34.7073 69.2313 34.9283 69.3023 35.1163C69.3766 35.302 69.487 35.4523 69.6333 35.5674C69.783 35.68 69.9732 35.7567 70.2041 35.7974C70.4753 35.8452 70.7065 35.8414 70.8978 35.7859C71.089 35.7303 71.2458 35.6256 71.3682 35.4717C71.4934 35.3182 71.587 35.1161 71.6491 34.8652Z" fill="#B8CFEB"/>
<path d="M75.9187 31.2762L74.8077 37.5775L73.5137 37.3493L74.6247 31.0481L75.9187 31.2762Z" fill="#B8CFEB"/>
<path d="M81.7813 35.4068L81.7286 35.7054C81.6442 36.1844 81.5034 36.6028 81.3065 36.9608C81.1095 37.3187 80.869 37.611 80.5851 37.8376C80.3017 38.0613 79.9831 38.2149 79.6293 38.2982C79.2783 38.3821 78.9038 38.389 78.5056 38.3188C78.1104 38.2491 77.7607 38.1145 77.4568 37.9152C77.1557 37.7163 76.9088 37.463 76.7161 37.1554C76.5239 36.8448 76.3951 36.4874 76.3295 36.0832C76.2668 35.6795 76.2777 35.2381 76.3622 34.7592L76.4148 34.4606C76.4998 33.9787 76.6405 33.5603 76.837 33.2052C77.034 32.8473 77.2744 32.555 77.5583 32.3284C77.8451 32.1023 78.164 31.9473 78.5149 31.8634C78.8688 31.78 79.2433 31.7732 79.6386 31.8429C80.0367 31.9131 80.3864 32.0476 80.6875 32.2465C80.9914 32.4459 81.2381 32.7006 81.4273 33.0106C81.6195 33.3212 81.7469 33.6783 81.8096 34.082C81.8757 34.4834 81.8662 34.925 81.7813 35.4068ZM80.4173 35.4742L80.4715 35.1669C80.5305 34.8323 80.5521 34.5326 80.5363 34.2681C80.5204 34.0035 80.4687 33.7742 80.3809 33.5802C80.2931 33.3863 80.1717 33.231 80.0168 33.1144C79.8623 32.995 79.6755 32.9159 79.4562 32.8772C79.2369 32.8386 79.0343 32.849 78.8483 32.9084C78.6657 32.9654 78.5 33.0701 78.3512 33.2223C78.2052 33.3751 78.0796 33.5731 77.9742 33.8163C77.8689 34.0595 77.7867 34.3485 77.7277 34.6831L77.6735 34.9904C77.615 35.3222 77.5934 35.6218 77.6087 35.8893C77.6245 36.1539 77.6761 36.3846 77.7633 36.5814C77.8511 36.7754 77.9722 36.9321 78.1267 37.0516C78.2811 37.171 78.468 37.2501 78.6872 37.2888C78.9065 37.3274 79.1092 37.317 79.2952 37.2576C79.4811 37.1982 79.6471 37.0921 79.793 36.9393C79.9395 36.7837 80.0654 36.5843 80.1707 36.3411C80.2766 36.095 80.3588 35.806 80.4173 35.4742ZM79.0937 31.4657L80.177 30.2823L81.5316 30.5212L80.1064 31.6443L79.0937 31.4657Z" fill="#B8CFEB"/>
<path d="M88.3741 33.4725L87.263 39.7737L85.9647 39.5448L84.1777 34.8744L83.4329 39.0983L82.1346 38.8694L83.2457 32.5682L84.544 32.7971L86.3345 37.4725L87.0801 33.2443L88.3741 33.4725Z" fill="#B8CFEB"/>
<path d="M41.274 43.8497L39.9021 43.6078L40.0893 42.5966L41.4526 42.837C41.793 42.897 42.0936 42.8712 42.3542 42.7595C42.6154 42.6449 42.8313 42.4494 43.002 42.1731C43.1756 41.8973 43.2995 41.5488 43.3738 41.1276L43.428 40.8203C43.485 40.4972 43.5005 40.2069 43.4744 39.9494C43.4513 39.6925 43.3882 39.4686 43.285 39.2779C43.1817 39.0871 43.0409 38.9329 42.8623 38.8151C42.6843 38.6945 42.4697 38.612 42.2187 38.5678L40.8079 38.319L40.9872 37.302L42.3981 37.5508C42.8193 37.625 43.1917 37.7651 43.5154 37.9709C43.8425 38.1743 44.111 38.4314 44.321 38.7421C44.531 39.0528 44.6726 39.4051 44.746 39.7988C44.8228 40.1901 44.8215 40.6108 44.7421 41.0609L44.6894 41.3595C44.6106 41.8068 44.4679 42.2025 44.2614 42.5469C44.0578 42.8918 43.8042 43.1743 43.5006 43.3945C43.2004 43.6123 42.8602 43.762 42.4799 43.8437C42.103 43.923 41.701 43.925 41.274 43.8497ZM41.7489 37.4363L40.6378 43.7375L39.3395 43.5086L40.4506 37.2074L41.7489 37.4363Z" fill="#B8CFEB"/>
<path d="M47.5957 38.4672L46.4846 44.7685L45.1906 44.5403L46.3017 38.2391L47.5957 38.4672Z" fill="#B8CFEB"/>
<path d="M53.2757 42.5701L52.8354 45.0672C52.7164 45.1682 52.5423 45.2699 52.3131 45.3723C52.0843 45.4717 51.7997 45.542 51.4593 45.5832C51.1188 45.6243 50.7192 45.6044 50.2605 45.5235C49.8537 45.4518 49.4946 45.32 49.1834 45.1283C48.8726 44.9337 48.6189 44.6852 48.4223 44.3828C48.2287 44.0809 48.1 43.731 48.0363 43.333C47.9731 42.9322 47.9842 42.4894 48.0697 42.0047L48.1391 41.6108C48.2246 41.1261 48.3627 40.7057 48.5534 40.3496C48.747 39.9941 48.9835 39.7071 49.263 39.4886C49.5425 39.2701 49.8558 39.1216 50.2028 39.043C50.5499 38.9643 50.921 38.9599 51.3163 39.0296C51.8645 39.1262 52.2988 39.295 52.6193 39.536C52.9402 39.774 53.1653 40.0666 53.2945 40.4136C53.4271 40.7583 53.4794 41.1364 53.4515 41.548L52.1921 41.3259C52.198 41.1068 52.1702 40.91 52.1088 40.7356C52.0473 40.5611 51.9408 40.4144 51.7892 40.2955C51.6405 40.177 51.4349 40.0947 51.1724 40.0484C50.956 40.0102 50.7548 40.0209 50.5688 40.0803C50.3862 40.1373 50.2222 40.2408 50.0767 40.3907C49.9313 40.5405 49.8062 40.7357 49.7013 40.976C49.5965 41.2163 49.5148 41.5024 49.4563 41.8342L49.3853 42.2366C49.3273 42.5656 49.3077 42.8626 49.3264 43.1276C49.3456 43.3898 49.402 43.6184 49.4955 43.8134C49.5925 44.006 49.7256 44.1619 49.895 44.281C50.0644 44.4001 50.2717 44.4813 50.517 44.5245C50.7218 44.5607 50.8951 44.5734 51.0368 44.5627C51.1814 44.5525 51.2998 44.5302 51.3922 44.4959C51.4879 44.4592 51.5629 44.4219 51.6172 44.3839L51.8141 43.2673L50.6283 43.0582L50.7916 42.1321L53.2757 42.5701Z" fill="#B8CFEB"/>
<path d="M56.2339 39.9904L55.1229 46.2916L53.8289 46.0635L54.9399 39.7622L56.2339 39.9904Z" fill="#B8CFEB"/>
<path d="M60.1376 40.6787L59.0265 46.9799L57.7325 46.7518L58.8436 40.4505L60.1376 40.6787ZM62.0764 41.0206L61.8971 42.0376L56.7557 41.131L56.935 40.114L62.0764 41.0206Z" fill="#B8CFEB"/>
<path d="M64.7211 42.598L62.0862 47.5195L60.7057 47.276L64.1581 41.3876L65.0366 41.5425L64.7211 42.598ZM65.2239 48.0727L64.4268 42.5461L64.4783 41.4441L65.3655 41.6005L66.6088 48.3169L65.2239 48.0727ZM65.5596 45.7133L65.3802 46.7303L62.0522 46.1435L62.2315 45.1265L65.5596 45.7133Z" fill="#B8CFEB"/>
<path d="M71.4224 48.1215L71.2438 49.1342L68.0715 48.5748L68.2501 47.5621L71.4224 48.1215ZM69.6024 42.3476L68.4913 48.6489L67.193 48.4199L68.3041 42.1187L69.6024 42.3476Z" fill="#B8CFEB"/>
<g clip-path="url(#clip0_638_89427)">
<g clip-path="url(#clip1_638_89427)">
<g clip-path="url(#clip2_638_89427)">
<path d="M125.985 36.0628C125.989 36.0639 125.993 36.0642 125.997 36.0636C126.001 36.0631 126.005 36.0617 126.009 36.0595C126.012 36.0573 126.015 36.0544 126.018 36.051C126.02 36.0476 126.021 36.0438 126.022 36.0397C126.023 36.0357 126.023 36.0315 126.022 36.0275C126.021 36.0236 126.019 36.0198 126.016 36.0166C126.014 36.0134 126.011 36.0107 126.007 36.0088C126.003 36.0069 125.999 36.0057 125.995 36.0054C122.242 34.7503 118.959 36.9988 118.388 40.2395C117.881 43.1157 119.598 46.0483 122.744 46.6031C123.684 46.7687 124.741 46.7176 125.611 46.2584C125.852 46.1229 125.965 46.0439 126.092 45.7698C126.092 45.7698 126.351 45.2023 126.314 44.6228C126.309 44.5426 126.289 44.5392 126.206 44.5639C125.51 44.6984 124.333 44.7681 123.411 44.6055C120.899 44.162 119.671 41.8299 120.053 39.6632C120.445 37.4389 122.922 35.3846 125.985 36.0628Z" fill="#B8CFEB"/>
<path d="M129.311 39.0613C129.643 37.1823 126.575 35.9689 124.39 36.1375C124.329 36.1465 124.342 36.1881 124.38 36.1949C125.826 36.2918 127.412 37.5008 127.219 38.5935C127.08 39.3798 126.089 39.6202 125.514 39.7363C125.473 39.7487 125.485 39.7906 125.523 39.7973C126.57 39.8039 127.458 40.0383 128.173 40.2448C128.25 40.2584 128.295 40.2265 128.359 40.1985C128.791 39.9977 129.203 39.6749 129.311 39.0613Z" fill="#B8CFEB"/>
<path d="M122.064 40.4724C125.535 41.0844 126.906 43.2837 126.561 45.2405C126.277 46.8513 124.666 47.3581 123.37 47.3073C123.362 47.3059 123.354 47.3077 123.348 47.3121C123.341 47.3166 123.337 47.3234 123.336 47.331C123.334 47.3387 123.336 47.3465 123.341 47.3529C123.345 47.3593 123.352 47.3636 123.36 47.3649C126.275 47.879 129.011 46.8193 129.383 44.7099C129.566 43.6732 129.077 42.8568 128.556 42.1126C128.493 42.0223 128.473 42.0187 128.41 42.047C128.024 42.2165 127.559 42.6088 127.212 43.4572C127.209 43.4763 127.17 43.4696 127.174 43.4505C127.459 42.0573 128.5 41.3126 130.168 41.6068C130.206 41.6135 130.213 41.5753 130.178 41.5494C127.962 39.9918 124.812 39.5751 122.07 40.4361C122.029 40.4466 122.045 40.469 122.064 40.4724Z" fill="#B8CFEB"/>
</g>
</g>
<path d="M123.515 53.9161C123.176 53.9615 122.832 53.9594 122.493 53.9098C121.738 53.7768 121.699 53.0871 121.796 52.5327C121.948 51.6728 122.336 51.2933 122.952 51.4018C123.126 51.4299 123.294 51.4861 123.45 51.5684L123.953 51.8831L124.09 51.171L124.019 51.127C123.666 50.8961 123.273 50.7341 122.86 50.6494C121.756 50.4547 120.903 51.1201 120.687 52.3449C120.481 53.511 121.031 54.4157 122.058 54.5968C122.504 54.6756 122.933 54.6457 123.59 54.4906L123.695 54.465L123.631 53.9026L123.515 53.9161Z" fill="#B8CFEB"/>
<path d="M111.066 49.6825C111.585 49.5669 111.879 49.2463 111.982 48.6667C112.081 48.1024 111.89 47.627 111.457 47.3531C111.154 47.1603 110.854 47.0743 109.924 46.9103L107.957 46.5635L107.858 47.127L108.461 47.3262L107.641 51.9752L109.205 52.251C109.973 52.3864 110.303 52.3967 110.68 52.2977C110.953 52.2311 111.199 52.0848 111.389 51.8774C111.578 51.67 111.701 51.4109 111.743 51.1332C111.864 50.4459 111.632 49.9766 111.066 49.6825ZM109.559 47.5515L109.865 47.6053C110.273 47.6772 110.593 47.7338 110.761 47.9365C110.872 48.0727 110.912 48.2735 110.872 48.5018C110.779 49.0287 110.581 49.2088 109.948 49.1616L109.494 49.1296L109.228 49.4362L109.559 47.5515ZM110.17 51.5039C109.89 51.6466 109.519 51.597 109.066 51.517L108.868 51.4822L109.175 49.7403L109.201 49.7496L109.563 49.8134C109.961 49.8837 110.28 49.9525 110.456 50.1527C110.6 50.3239 110.655 50.5744 110.605 50.8554C110.552 51.1555 110.395 51.3923 110.172 51.5057" fill="#B8CFEB"/>
<path d="M119.48 50.0511C119.158 49.9944 118.727 50.0357 118.225 50.1487C118.234 50.0605 118.256 49.844 118.256 49.844L116.626 49.7652L116.528 50.3242L117.114 50.4276L116.564 53.5486L117.61 53.7331C117.61 53.7331 118.106 50.9773 118.134 50.8193C118.411 50.7728 118.693 50.7695 118.971 50.8094C119.139 50.839 119.247 50.8903 119.302 50.9676C119.384 51.0876 119.347 51.2866 119.304 51.5192L118.874 53.9567L119.93 54.1429L120.37 51.6489C120.472 51.0708 120.479 50.8768 120.338 50.6095C120.184 50.313 119.895 50.1243 119.48 50.0511Z" fill="#B8CFEB"/>
<path d="M126.383 51.269C125.208 51.0619 124.339 51.6961 124.124 52.9179C123.905 54.1565 124.487 55.0221 125.684 55.2331C126.854 55.4393 127.717 54.8042 127.932 53.5824C128.151 52.343 127.572 51.4779 126.383 51.2683L126.383 51.269ZM125.797 54.5507C125.456 54.4906 125.027 54.2764 125.232 53.118C125.432 51.9786 125.865 51.8959 126.26 51.9655C126.6 52.0254 127.03 52.2382 126.827 53.3913C126.623 54.5444 126.194 54.6183 125.797 54.5484" fill="#B8CFEB"/>
<path d="M116.101 49.6317L115.071 49.45L115.043 49.6073C114.821 49.427 114.557 49.3066 114.275 49.2577C113.245 49.0761 112.365 49.7807 112.158 50.9513C111.96 52.0731 112.416 52.8801 113.346 53.0441C113.585 53.0863 113.916 53.0328 114.442 52.8437L114.381 53.1912L114.402 53.1949L115.894 53.3006L116.005 52.6736L115.578 52.5984L116.101 49.6317ZM114.547 52.4332C114.377 52.4329 114.207 52.4185 114.039 52.39C113.389 52.2753 113.105 51.7955 113.24 51.0296C113.381 50.2346 113.865 49.846 114.568 49.97C114.703 49.993 114.835 50.0292 114.963 50.0781L114.547 52.4332Z" fill="#B8CFEB"/>
<path d="M133.629 50.8373L133.574 50.8325L133.447 50.8249L132.025 50.7576L131.942 51.2265L132.451 51.3163C132.436 51.4011 132.255 52.4327 132.236 52.5381C131.847 52.3254 131.289 52.1042 130.728 52.1935C129.956 52.3101 129.428 52.895 129.241 53.843C129.068 54.7007 129.388 55.4879 130.057 55.8466C130.547 56.1095 131.272 56.0389 131.688 55.9225C131.678 55.9995 131.646 56.2348 131.646 56.2348L133.083 56.2969L133.166 55.8272L132.716 55.7479C132.733 55.6525 133.626 50.8392 133.626 50.8392L133.629 50.8373ZM131.727 55.4373C131.23 55.4812 130.687 55.4846 130.42 55.0146C130.263 54.7406 130.286 54.3778 130.351 54.0143C130.358 53.9738 130.365 53.931 130.373 53.8898C130.451 53.4919 130.603 53.2542 130.849 53.0596C131.237 52.7517 131.778 52.9226 132.149 53.1826C132.149 53.1826 131.738 55.3613 131.725 55.4369" fill="#B8CFEB"/>
<path d="M135.845 52.9352C135.619 52.8852 135.385 52.8757 135.155 52.9072C134.335 53.0233 133.778 53.625 133.583 54.6023C133.404 55.4858 133.749 56.2993 134.461 56.6712C135.09 57.0018 136.106 56.9425 136.784 56.7139L136.82 56.7023L136.739 56.1368L136.373 56.1848C135.848 56.2347 135.158 56.3769 134.83 55.8246C134.652 55.5255 134.691 55.1301 134.744 54.8181L136.785 55.2197L137.09 55.2736L137.098 55.2293C137.122 55.1405 137.142 55.052 137.157 54.9665C137.471 53.1857 135.909 52.9511 135.84 52.9367L135.845 52.9352ZM134.859 54.2951C134.881 54.2304 135.044 53.4671 135.729 53.5878C136.414 53.7086 136.302 54.4629 136.297 54.5487L134.859 54.2951Z" fill="#B8CFEB"/>
<path d="M112.663 57.8094C113.182 57.6938 113.477 57.3734 113.579 56.7938C113.679 56.2295 113.486 55.7538 113.054 55.48C112.752 55.2874 112.451 55.2012 111.522 55.0374L109.554 54.6904L109.455 55.254L110.057 55.4539L109.238 60.1022L110.802 60.3781C111.57 60.5134 111.901 60.5238 112.277 60.4248C112.55 60.358 112.797 60.2115 112.986 60.0041C113.175 59.7967 113.298 59.5377 113.34 59.2601C113.461 58.5729 113.228 58.1044 112.663 57.8094ZM111.157 55.6786L111.462 55.7324C111.869 55.8041 112.189 55.8606 112.356 56.0632C112.469 56.1997 112.508 56.4002 112.467 56.6285C112.374 57.1562 112.177 57.3356 111.544 57.2885L111.09 57.2564L110.825 57.5632L111.157 55.6786ZM111.767 59.6324C111.487 59.7753 111.116 59.7255 110.662 59.6455L110.466 59.6109L110.773 57.8675L110.799 57.8767L111.161 57.9407C111.559 58.0108 111.878 58.0796 112.053 58.2798C112.2 58.4513 112.253 58.7016 112.203 58.9827C112.151 59.2828 111.992 59.5202 111.769 59.6328" fill="#B8CFEB"/>
<path d="M124.444 58.7726C123.269 58.5654 122.405 59.2004 122.189 60.4222C121.971 61.6609 122.552 62.5263 123.745 62.7366C124.915 62.9429 125.778 62.3077 125.994 61.0859C126.212 59.8465 125.632 58.9814 124.444 58.7718L124.444 58.7726ZM123.857 62.0502C123.516 61.99 123.089 61.7761 123.293 60.6177C123.494 59.4784 123.926 59.3953 124.322 59.4652C124.662 59.5253 125.092 59.738 124.889 60.8911C124.685 62.0442 124.254 62.1178 123.858 62.0479" fill="#B8CFEB"/>
<path d="M128.305 62.7116L127.544 62.6931C127.378 62.6639 127.342 62.6127 127.323 62.5675C127.303 62.5223 127.307 62.4994 127.359 62.2038C127.365 62.171 127.686 60.3536 127.723 60.142L128.771 60.3268L128.885 59.6785L127.839 59.494L128.016 58.4868L126.942 58.387L126.305 61.996C126.235 62.3969 126.223 62.6586 126.359 62.8896C126.495 63.1206 126.715 63.2516 127.081 63.3161C127.475 63.3734 127.876 63.3565 128.264 63.2665L128.375 63.2436L128.305 62.7116Z" fill="#B8CFEB"/>
<path d="M116.174 57.3144C114.999 57.1073 114.135 57.7422 113.919 58.964C113.701 60.2026 114.283 61.0682 115.475 61.2784C116.646 61.4849 117.507 60.8494 117.723 59.6275C117.941 58.3882 117.363 57.5232 116.174 57.3136L116.174 57.3144ZM115.588 60.5921C115.248 60.5321 114.82 60.318 115.024 59.1596C115.225 58.0203 115.656 57.9372 116.052 58.007C116.392 58.067 116.822 58.2799 116.619 59.433C116.416 60.5861 115.986 60.6598 115.588 60.5898" fill="#B8CFEB"/>
<path d="M120.999 58.4801C120.772 58.2972 120.502 58.1754 120.214 58.1259C119.161 57.9403 118.265 58.6484 118.058 59.8214C117.86 60.9477 118.328 61.7586 119.276 61.9258C119.521 61.969 119.77 61.9459 120.38 61.8149L120.326 62.1204C120.211 62.7763 119.94 62.9231 119.118 62.7782C118.695 62.6979 118.281 62.5722 117.884 62.4032L117.772 63.0377C118.528 63.3498 118.846 63.4577 119.247 63.5284C119.757 63.6183 120.21 63.6093 120.55 63.4967C121.051 63.3324 121.285 63.0169 121.402 62.3533L122.08 58.5061L121.027 58.3205L120.999 58.4801ZM120.472 61.2957C120.305 61.2954 120.139 61.2814 119.975 61.2538C119.338 61.1415 119.062 60.6683 119.195 59.9108C119.334 59.1243 119.808 58.7385 120.497 58.8601C120.629 58.8827 120.758 58.9181 120.882 58.9658L120.472 61.2957Z" fill="#B8CFEB"/>
<path d="M132.732 60.4096L131.701 60.2279L131.673 60.3859C131.452 60.2055 131.189 60.0852 130.908 60.0367C129.875 59.8547 128.996 60.5596 128.79 61.731C128.592 62.8528 129.047 63.6589 129.977 63.8229C130.216 63.865 130.547 63.8115 131.074 63.6227L131.013 63.9717L132.525 64.0809L132.635 63.4547L132.209 63.3794L132.732 60.4096ZM131.178 63.2142C131.008 63.2139 130.838 63.1995 130.67 63.1711C130.02 63.0565 129.736 62.5765 129.871 61.8114C130.011 61.0157 130.495 60.6269 131.199 60.7511C131.334 60.7741 131.466 60.8104 131.593 60.8592L131.178 63.2142Z" fill="#B8CFEB"/>
<path d="M132.419 59.3733L132.31 58.5266L132.192 58.5522L130.43 58.9289L130.489 59.433L132.419 59.3733Z" fill="#B8CFEB"/>
</g>
<defs>
<clipPath id="clip0_638_89427">
<rect width="32.9905" height="29.9914" fill="white" transform="translate(109.108 32.0479) rotate(10)"/>
</clipPath>
<clipPath id="clip1_638_89427">
<rect width="11.9956" height="11.9966" fill="white" transform="translate(119.316 34.6089) rotate(10)"/>
</clipPath>
<clipPath id="clip2_638_89427">
<rect width="11.8677" height="11.7216" fill="white" transform="translate(119.355 34.7554) rotate(10)"/>
</clipPath>
</defs>
</svg>
