<svg width="32" height="32" viewBox="0 0 32 32" fill="none" xmlns="http://www.w3.org/2000/svg">
<rect x="1.00049" y="5" width="30.0001" height="22" rx="4" fill="#1C83E1"/>
<path fill-rule="evenodd" clip-rule="evenodd" d="M11.0007 18.9532H9.26986L7.97191 14.2986C7.9103 14.0845 7.7795 13.8952 7.58708 13.806C7.10689 13.5818 6.57775 13.4033 6.00051 13.3134V13.1342H8.78883C9.17365 13.1342 9.46228 13.4033 9.51038 13.716L10.1838 17.0735L11.9139 13.1342H13.5966L11.0007 18.9532ZM14.5587 18.9532H12.9241L14.2701 13.1342H15.9048L14.5587 18.9532ZM18.0196 14.7462C18.0677 14.4328 18.3564 14.2536 18.6931 14.2536C19.2222 14.2086 19.7986 14.2986 20.2796 14.522L20.5683 13.2692C20.0872 13.09 19.5581 13 19.0779 13C17.4913 13 16.3368 13.806 16.3368 14.9247C16.3368 15.7757 17.1546 16.2225 17.7318 16.4917C18.3564 16.7601 18.5969 16.9393 18.5488 17.2078C18.5488 17.6104 18.0677 17.7896 17.5875 17.7896C17.0103 17.7896 16.4331 17.6554 15.9048 17.4312L15.6161 18.6848C16.1934 18.9082 16.8179 18.9982 17.3951 18.9982C19.1741 19.0425 20.2796 18.2372 20.2796 17.0286C20.2796 15.5065 18.0196 15.4173 18.0196 14.7462ZM26.0006 18.9532L24.7026 13.1342H23.3085C23.0199 13.1342 22.7312 13.3134 22.635 13.5818L20.2315 18.9532H21.9143L22.2502 18.103H24.3178L24.5102 18.9532H26.0006ZM23.549 14.7012L24.0292 16.8943H22.6831L23.549 14.7012Z" fill="white"/>
</svg>
