<svg xmlns="http://www.w3.org/2000/svg" width="24" height="24" viewBox="0 0 24 24">
    <g fill="none" fill-rule="evenodd" stroke-linecap="round" stroke-linejoin="round">
        <g stroke="#0040A8">
            <g>
                <g>
                    <g>
                        <g>
                            <path d="M1.452 18.871H.968c-.535 0-.968-.433-.968-.968V.968C0 .433.433 0 .968 0h13.548c.535 0 .968.433.968.968v16.935c0 .535-.433.968-.968.968H11.13h0" transform="translate(-208.000000, -320.000000) translate(0.000000, 256.000000) translate(192.000000, 48.000000) translate(16.000000, 16.000000) translate(4.000000, 1.000000)"/>
                            <path d="M8.946 16.323v4.506c0 .19-.075.363-.191.436-.117.073-.25.032-.34-.103l-1.953-2.25-1.953 2.25c-.089.135-.223.176-.339.103-.116-.073-.192-.245-.192-.436v-4.506h4.968zM5.972 5.292c.049-.097.152-.159.264-.159.112 0 .215.062.264.159L7.585 7.39l2.43.337c.111.015.203.09.237.191.035.102.006.214-.075.288l-1.76 1.628.416 2.302c.019.105-.026.211-.116.274-.09.063-.21.071-.309.022l-2.173-1.086-2.177 1.089c-.098.05-.218.04-.308-.022-.09-.063-.135-.17-.116-.275l.415-2.301-1.76-1.628c-.08-.074-.11-.186-.075-.288.035-.102.127-.176.237-.191l2.432-.337 1.089-2.101z" transform="translate(-208.000000, -320.000000) translate(0.000000, 256.000000) translate(192.000000, 48.000000) translate(16.000000, 16.000000) translate(4.000000, 1.000000)"/>
                        </g>
                    </g>
                </g>
            </g>
        </g>
    </g>
</svg>
