<svg xmlns="http://www.w3.org/2000/svg" width="353" height="353" viewBox="0 0 353 353">
    <defs>
        <linearGradient id="43r9izvg6a" x1="74.619%" x2="42.738%" y1="9.78%" y2="94.146%">
            <stop offset="0%" stop-color="#B9DCFE"/>
            <stop offset="100%" stop-color="#FFF"/>
        </linearGradient>
    </defs>
    <g fill="none" fill-rule="evenodd">
        <g>
            <g transform="translate(-4794 -515) translate(4794.373 515.982)">
                <g fill="url(#43r9izvg6a)" opacity=".202" transform="rotate(-47 247.363 103.455)">
                    <path d="M240.784 21.501c28.488 26.152 31.506 79.153 10.821 111.86-20.611 32.708-64.999 45.121-105.117 61.928-40.118 16.737-76.04 37.938-102.615 29.988C17.226 217.327-.147 180.226 0 148.565c.148-31.592 17.815-57.814 38.132-82.152 20.39-24.409 43.357-47.004 81.856-58.65C158.413-3.953 212.37-4.65 240.784 21.501z"/>
                </g>
                <path fill="#FDC130" d="M178.483 134.892c9.903.797 19.472 8.08 21.114 18.011.821 4.988-.34 9.937-1.498 14.918l-.288 1.247c-.62 2.701-1.19 5.415-1.395 8.15-.146 1.966-.113 3.982-.066 6l.023.931c.122 5.121.176 10.206-2.522 14.452-3.413 5.48-10.493 7.719-16.933 7.436-6.44-.283-12.827-2.29-19.062-3.37-6.234-1.082-13.392-1.004-18.702 2.572-3.233 2.239-5.593 5.661-9.108 7.436-6.208 3.114-14.392-.514-17.496-6.741-1.89-4.357-2.165-9.165-.91-13.602-.744-3.21-.768-6.572-.028-9.85 1.342-5.937 5.079-11.087 10.356-14.276 3.423-2.074 6.679-3.118 12.87-4.421l.687-.144 3.12-.637.244-.051 1.092-.234.692-.155c3.134-.72 5.859-1.608 8.172-2.722 1.03-1.907 1.818-3.944 2.341-6.064.872-3.14.667-7.256 2.566-9.958 4.464-6.613 17.368-9.546 24.731-8.928zm-31.823 28.336l-.325.115c-1.691.585-3.525 1.091-5.501 1.533l-.822.18-.887.187-2.79.57c-6.617 1.355-9.854 2.341-13.167 4.348-4.745 2.868-8.101 7.494-9.306 12.822-.38 1.684-.536 3.394-.474 5.088.372-.678.786-1.337 1.24-1.975 4.138-5.667 9.72-10.11 16.162-12.866 1.026-.514 2.07-1 3.115-1.478l1.044-.478c3.825-1.752 7.586-3.535 10.465-6.535.435-.488.85-.992 1.246-1.51z"/>
                <path fill="#002C76" d="M154.077 190.25c-11.89 3.08-21.912 7.016-28.204 17.845 10.326 14.915 44.556 42.661 83 8.11-4-7.946-14.073-17.14-19.79-20.653-10.523-6.474-23.115-8.381-35.006-5.302z"/>
                <path fill="#FFC7BC" d="M152.54 148.35l.004.025c.14.779 3.808 19.856 28.012 23.319l1.303 21.27c.18 2.99-1.353 5.812-3.921 7.224h-.124c-.946.508-2.018.712-3.078.587-3.033-.427-5.406-2.9-5.783-6.023l-1.638-11.844c-8.415 0-18.938-4.339-21.023-15.136-1.76-9.115 2.122-19.303 9.975-23.96-1.554 1.207-2.833 2.718-3.727 4.539z"/>
                <path fill="#002C76" fill-rule="nonzero" d="M171.873 116.811c-32.032 0-58 25.968-58 58 0 32.033 25.968 58 58 58 32.033 0 58-25.967 58-58 0-32.032-25.967-58-58-58zm0 2.698c30.543 0 55.303 24.76 55.303 55.302 0 30.543-24.76 55.303-55.303 55.303-30.542 0-55.302-24.76-55.302-55.303 0-30.542 24.76-55.302 55.302-55.302z"/>
                <circle cx="287.373" cy="73.311" r="7.5" fill="#0040A8"/>
                <path fill="#002C76" fill-rule="nonzero" d="M76.995 256c2.867 0 5.554-.36 8.062-1.081v-33.026c.007-2.148.066-3.392.179-3.73.12-.361.597-.541 1.433-.541h11.823c.836 0 1.463-.54 1.881-1.622.418-1.081.627-2.282.627-3.604 0-1.441-.209-2.702-.627-3.783-.418-1.081-.985-1.622-1.702-1.622H87.744c-1.075 0-1.792-.15-2.15-.45-.358-.3-.537-1.292-.537-2.973V137.44c0-.96-.598-1.441-1.792-1.441s-2.09.36-2.687 1.081l-54.28 72.072c-.596.72-.985 1.562-1.164 2.523-.179.96-.179 1.892 0 2.792.18.901.478 1.652.896 2.253.418.6.926.9 1.523.9h37.62c1.552 0 2.447.12 2.686.361.239.24.358 1.081.358 2.523v34.414c2.867.72 5.793 1.081 8.778 1.081zm-10.569-49.009H37.585C42.48 200.505 47.587 193.508 52.9 186c5.314-7.508 10.42-14.505 15.316-20.991v39.28c0 1.32-.06 2.101-.179 2.342-.12.24-.657.36-1.612.36z"/>
                <path fill="#002C76" fill-rule="nonzero" d="M76.995 256c2.867 0 5.554-.36 8.062-1.081v-33.026c.007-2.148.066-3.392.179-3.73.12-.361.597-.541 1.433-.541h11.823c.836 0 1.463-.54 1.881-1.622.418-1.081.627-2.282.627-3.604 0-1.441-.209-2.702-.627-3.783-.418-1.081-.985-1.622-1.702-1.622H87.744c-1.075 0-1.792-.15-2.15-.45-.358-.3-.537-1.292-.537-2.973V137.44c0-.96-.598-1.441-1.792-1.441s-2.09.36-2.687 1.081l-54.28 72.072c-.596.72-.985 1.562-1.164 2.523-.179.96-.179 1.892 0 2.792.18.901.478 1.652.896 2.253.418.6.926.9 1.523.9h37.62c1.552 0 2.447.12 2.686.361.239.24.358 1.081.358 2.523v34.414c2.867.72 5.793 1.081 8.778 1.081zm-10.569-49.009H37.585C42.48 200.505 47.587 193.508 52.9 186c5.314-7.508 10.42-14.505 15.316-20.991v39.28c0 1.32-.06 2.101-.179 2.342-.12.24-.657.36-1.612.36z"/>
                <path fill="#FDC130" fill-rule="nonzero" d="M287.995 223c2.867 0 5.554-.36 8.062-1.081v-33.026c.007-2.148.066-3.392.179-3.73.12-.361.597-.541 1.433-.541h11.823c.836 0 1.463-.54 1.881-1.622.418-1.081.627-2.282.627-3.604 0-1.441-.209-2.702-.627-3.783-.418-1.081-.985-1.622-1.702-1.622h-10.927c-1.075 0-1.792-.15-2.15-.45-.358-.3-.537-1.292-.537-2.973V104.44c0-.96-.598-1.441-1.792-1.441s-2.09.36-2.687 1.081l-54.28 72.072c-.596.72-.985 1.562-1.164 2.523-.179.96-.179 1.892 0 2.792.18.901.478 1.652.896 2.253.418.6.926.9 1.523.9h37.62c1.552 0 2.447.12 2.686.361.239.24.358 1.081.358 2.523v34.414c2.867.72 5.793 1.081 8.778 1.081zm-10.569-49.009h-28.841c4.896-6.486 10.002-13.483 15.316-20.991 5.314-7.508 10.42-14.505 15.316-20.991v39.28c0 1.32-.06 2.101-.179 2.342-.12.24-.657.36-1.612.36z"/>
                <circle cx="53.278" cy="297.252" r="11" fill="#E33031"/>
            </g>
        </g>
    </g>
</svg>
