<svg width="300" height="300" viewBox="0 0 300 300" fill="none" xmlns="http://www.w3.org/2000/svg">
<mask id="mask0_1987_45547" style="mask-type:alpha" maskUnits="userSpaceOnUse" x="0" y="0" width="300" height="300">
<rect width="300" height="300" fill="white"/>
</mask>
<g mask="url(#mask0_1987_45547)">
<path opacity="0.201683" fill-rule="evenodd" clip-rule="evenodd" d="M289.669 90.1644C309.083 134.02 299.46 181.587 280.637 212.371C261.814 243.154 233.875 257.07 208.046 265.757C182.217 274.528 158.498 278.07 114.606 275.456C70.714 272.757 6.64822 263.986 -3.56517 237.672C-13.6941 211.359 30.1137 167.503 68.5194 119.43C106.925 71.2726 139.929 18.8985 180.782 12.6575C221.551 6.41646 270.17 46.3928 289.669 90.1644Z" fill="url(#paint0_linear_1987_45547)"/>
<mask id="mask1_1987_45547" style="mask-type:alpha" maskUnits="userSpaceOnUse" x="59" y="83" width="64" height="48">
<path fill-rule="evenodd" clip-rule="evenodd" d="M59.52 101.354L113.112 83.9408L122.595 113.125L69.0025 130.538L59.52 101.354Z" fill="white"/>
</mask>
<g mask="url(#mask1_1987_45547)">
<path fill-rule="evenodd" clip-rule="evenodd" d="M119.587 103.868L110.981 116.191C110.263 117.22 109.037 117.753 107.799 117.576L63.882 111.313C62.9258 111.177 61.5454 109 62.1453 108.241L72.7172 97.0659L119.587 103.868Z" fill="#FF2C2D"/>
</g>
<path fill-rule="evenodd" clip-rule="evenodd" d="M78.4502 50.78L68.4749 61.7908C68.1699 62.1276 67.9748 62.5521 67.9159 63.0069L61.9986 108.763C61.9171 109.393 62.7063 109.74 63.0964 109.246L72.7177 97.0657L72.5593 96.2324L78.4502 50.78Z" fill="#003EAC"/>
<path fill-rule="evenodd" clip-rule="evenodd" d="M118.643 104.002C118.33 104.104 118.004 104.132 117.675 104.084L74.591 97.9392C74.0123 97.857 73.4977 97.551 73.1418 97.0782C72.7859 96.6054 72.6319 96.0225 72.7077 95.4365L78.3476 51.8248C78.4559 50.9876 79.0381 50.2802 79.8308 50.0227C80.1434 49.9211 80.469 49.8934 80.7986 49.9402L123.882 56.0854C124.461 56.168 124.976 56.4736 125.331 56.9463C125.687 57.4191 125.841 58.0021 125.766 58.5882L120.126 102.2C120.018 103.037 119.436 103.744 118.643 104.002Z" fill="white"/>
<path fill-rule="evenodd" clip-rule="evenodd" d="M79.7222 49.6881C78.828 49.9786 78.135 50.7674 78.0045 51.7755L72.3645 95.3872C72.1833 96.7907 73.16 98.0889 74.5463 98.2865L117.63 104.432C118.021 104.487 118.401 104.45 118.752 104.336C119.646 104.045 120.339 103.257 120.469 102.248L126.109 58.6366C126.291 57.2333 125.314 55.9354 123.927 55.7376L80.8435 49.5927C80.4533 49.537 80.0723 49.5743 79.7222 49.6881ZM79.9389 50.3566C80.2018 50.2712 80.4758 50.2479 80.7534 50.2875L123.837 56.4324C124.843 56.5758 125.554 57.5209 125.422 58.5391L119.782 102.151C119.691 102.855 119.201 103.451 118.534 103.668C118.271 103.753 117.997 103.776 117.72 103.737L74.6359 97.5916C73.6301 97.4482 72.9191 96.5034 73.0507 95.4855L78.6905 51.8738C78.7817 51.1688 79.2718 50.5734 79.9389 50.3566Z" fill="#002975"/>
<circle cx="100.805" cy="76.5493" r="8.019" transform="rotate(7 100.805 76.5493)" fill="#D8D8D8"/>
<path d="M80.3281 50.3937L80.332 50.3943L124.22 56.7266C124.22 56.7267 124.221 56.7268 124.221 56.7268C124.847 56.8213 125.323 57.4353 125.242 58.1148C125.241 58.1156 125.241 58.1164 125.241 58.1173L119.472 102.503L119.471 102.509C119.415 102.97 119.102 103.344 118.698 103.475C118.538 103.527 118.371 103.541 118.196 103.515L118.191 103.514L74.2347 97.265C74.234 97.2649 74.2332 97.2647 74.2325 97.2646C73.6068 97.1698 73.1313 96.5563 73.2129 95.8776C73.213 95.8767 73.2132 95.8758 73.2133 95.8748L79.0521 51.4067L79.0521 51.4067L79.0529 51.4003C79.1095 50.9386 79.423 50.5647 79.8267 50.4336C79.9864 50.3817 80.1529 50.3675 80.3281 50.3937Z" stroke="#002C76" stroke-width="1.5"/>
<mask id="mask2_1987_45547" style="mask-type:alpha" maskUnits="userSpaceOnUse" x="121" y="91" width="64" height="48">
<path fill-rule="evenodd" clip-rule="evenodd" d="M121.28 109.084L174.872 91.6708L184.354 120.855L130.762 138.268L121.28 109.084Z" fill="white"/>
</mask>
<g mask="url(#mask2_1987_45547)">
<path fill-rule="evenodd" clip-rule="evenodd" d="M181.346 111.598L172.74 123.921C172.022 124.95 170.797 125.483 169.559 125.306L125.642 119.043C124.685 118.907 123.305 116.73 123.905 115.971L134.477 104.796L181.346 111.598Z" fill="#FF2C2D"/>
</g>
<path fill-rule="evenodd" clip-rule="evenodd" d="M140.21 58.51L130.234 69.5208C129.929 69.8576 129.734 70.2821 129.675 70.7369L123.758 116.493C123.677 117.123 124.466 117.47 124.856 116.976L134.477 104.796L134.319 103.962L140.21 58.51Z" fill="#003EAC"/>
<path fill-rule="evenodd" clip-rule="evenodd" d="M180.402 111.732C180.09 111.834 179.764 111.862 179.435 111.814L136.351 105.669C135.772 105.587 135.257 105.281 134.901 104.808C134.545 104.335 134.391 103.752 134.467 103.166L140.107 59.5548C140.215 58.7176 140.798 58.0102 141.59 57.7527C141.903 57.6511 142.228 57.6234 142.558 57.6702L185.642 63.8153C186.221 63.8979 186.735 64.2036 187.091 64.6763C187.447 65.1491 187.601 65.732 187.525 66.3182L181.886 109.93C181.777 110.767 181.195 111.474 180.402 111.732Z" fill="white"/>
<path fill-rule="evenodd" clip-rule="evenodd" d="M141.482 57.4181C140.588 57.7086 139.895 58.4973 139.764 59.5055L134.124 103.117C133.943 104.521 134.92 105.819 136.306 106.017L179.39 112.162C179.78 112.217 180.161 112.18 180.511 112.066C181.405 111.775 182.098 110.987 182.229 109.978L187.869 66.3666C188.05 64.9633 187.073 63.6654 185.687 63.4675L142.603 57.3227C142.213 57.267 141.832 57.3043 141.482 57.4181ZM141.698 58.0866C141.961 58.0012 142.235 57.9779 142.513 58.0175L185.597 64.1624C186.602 64.3058 187.313 65.2509 187.182 66.269L181.542 109.881C181.451 110.585 180.961 111.181 180.294 111.398C180.031 111.483 179.757 111.506 179.479 111.467L136.395 105.322C135.39 105.178 134.679 104.233 134.81 103.215L140.45 59.6038C140.541 58.8988 141.031 58.3034 141.698 58.0866Z" fill="#002975"/>
<circle cx="162.564" cy="84.2793" r="8.019" transform="rotate(7 162.564 84.2793)" fill="#D8D8D8"/>
<path d="M142.088 58.1237L142.092 58.1243L185.979 64.4566C185.98 64.4567 185.98 64.4567 185.981 64.4568C186.607 64.5513 187.083 65.1653 187.001 65.8447C187.001 65.8456 187.001 65.8464 187.001 65.8473L181.232 110.233L181.231 110.239C181.174 110.7 180.861 111.074 180.457 111.205C180.297 111.257 180.131 111.271 179.956 111.245L179.951 111.244L135.994 104.995C135.993 104.995 135.993 104.995 135.992 104.995C135.366 104.9 134.891 104.286 134.972 103.608C134.973 103.607 134.973 103.606 134.973 103.605L140.812 59.1367L140.812 59.1367L140.812 59.1303C140.869 58.6686 141.183 58.2947 141.586 58.1635C141.746 58.1117 141.912 58.0974 142.088 58.1237Z" stroke="#002C76" stroke-width="1.5"/>
<mask id="mask3_1987_45547" style="mask-type:alpha" maskUnits="userSpaceOnUse" x="181" y="99" width="64" height="48">
<path fill-rule="evenodd" clip-rule="evenodd" d="M181.13 116.959L234.722 99.5458L244.204 128.73L190.612 146.143L181.13 116.959Z" fill="white"/>
</mask>
<g mask="url(#mask3_1987_45547)">
<path fill-rule="evenodd" clip-rule="evenodd" d="M241.196 119.473L232.59 131.796C231.872 132.825 230.647 133.358 229.409 133.181L185.492 126.918C184.535 126.782 183.155 124.605 183.755 123.846L194.327 112.671L241.196 119.473Z" fill="#FF2C2D"/>
</g>
<path fill-rule="evenodd" clip-rule="evenodd" d="M200.06 66.385L190.085 77.3958C189.78 77.7326 189.584 78.1571 189.526 78.6119L183.608 124.368C183.527 124.998 184.316 125.345 184.706 124.851L194.327 112.671L194.169 111.837L200.06 66.385Z" fill="#003EAC"/>
<path fill-rule="evenodd" clip-rule="evenodd" d="M240.252 119.607C239.94 119.709 239.614 119.737 239.285 119.689L196.201 113.544C195.622 113.462 195.107 113.156 194.751 112.683C194.396 112.21 194.241 111.627 194.317 111.041L199.957 67.4298C200.066 66.5926 200.648 65.8852 201.44 65.6277C201.753 65.5261 202.079 65.4984 202.408 65.5452L245.492 71.6903C246.071 71.7729 246.586 72.0786 246.941 72.5513C247.297 73.0241 247.451 73.607 247.376 74.1932L241.736 117.805C241.627 118.642 241.045 119.349 240.252 119.607Z" fill="white"/>
<path fill-rule="evenodd" clip-rule="evenodd" d="M201.332 65.2931C200.438 65.5836 199.745 66.3723 199.614 67.3805L193.974 110.992C193.793 112.396 194.77 113.694 196.156 113.892L239.24 120.037C239.63 120.092 240.011 120.055 240.361 119.941C241.255 119.65 241.949 118.862 242.079 117.853L247.719 74.2416C247.9 72.8383 246.923 71.5404 245.537 71.3425L202.453 65.1977C202.063 65.142 201.682 65.1793 201.332 65.2931ZM201.549 65.9616C201.811 65.8762 202.085 65.8529 202.363 65.8925L245.447 72.0374C246.452 72.1808 247.164 73.1259 247.032 74.144L241.392 117.756C241.301 118.46 240.811 119.056 240.144 119.273C239.881 119.358 239.607 119.381 239.329 119.342L196.246 113.197C195.24 113.053 194.529 112.108 194.66 111.09L200.3 67.4788C200.391 66.7738 200.881 66.1784 201.549 65.9616Z" fill="#002975"/>
<circle cx="222.414" cy="92.1543" r="8.019" transform="rotate(7 222.414 92.1543)" fill="#D8D8D8"/>
<path d="M201.938 65.9987L201.942 65.9993L245.829 72.3316C245.83 72.3317 245.83 72.3317 245.831 72.3318C246.457 72.4263 246.933 73.0403 246.851 73.7197C246.851 73.7206 246.851 73.7214 246.851 73.7223L241.082 118.108L241.081 118.114C241.025 118.575 240.711 118.949 240.307 119.08C240.148 119.132 239.981 119.146 239.806 119.12L239.801 119.119L195.844 112.87C195.844 112.87 195.843 112.87 195.842 112.87C195.216 112.775 194.741 112.161 194.823 111.483C194.823 111.482 194.823 111.481 194.823 111.48L200.662 67.0117L200.662 67.0117L200.663 67.0053C200.719 66.5436 201.033 66.1697 201.436 66.0385C201.596 65.9867 201.762 65.9724 201.938 65.9987Z" stroke="#002C76" stroke-width="1.5"/>
<mask id="mask4_1987_45547" style="mask-type:alpha" maskUnits="userSpaceOnUse" x="51" y="141" width="64" height="48">
<path fill-rule="evenodd" clip-rule="evenodd" d="M51.4402 159.047L105.032 141.634L114.515 170.818L60.9227 188.231L51.4402 159.047Z" fill="white"/>
</mask>
<g mask="url(#mask4_1987_45547)">
<path fill-rule="evenodd" clip-rule="evenodd" d="M111.507 161.561L102.901 173.885C102.183 174.913 100.958 175.447 99.7194 175.27L55.8021 169.007C54.8459 168.871 53.4656 166.693 54.0654 165.934L64.6374 154.759L111.507 161.561Z" fill="#FF2C2D"/>
</g>
<path fill-rule="evenodd" clip-rule="evenodd" d="M70.3705 108.473L60.3952 119.484C60.0902 119.821 59.8951 120.245 59.8362 120.7L53.9189 166.457C53.8374 167.086 54.6266 167.433 55.0167 166.939L64.638 154.759L64.4796 153.926L70.3705 108.473Z" fill="#003EAC"/>
<path fill-rule="evenodd" clip-rule="evenodd" d="M110.563 161.695C110.251 161.797 109.925 161.825 109.596 161.778L66.5114 155.633C65.9327 155.55 65.4181 155.244 65.0622 154.772C64.7063 154.299 64.5523 153.716 64.6281 153.13L70.2681 109.518C70.3763 108.681 70.9585 107.974 71.7512 107.716C72.0638 107.614 72.3894 107.587 72.719 107.634L115.803 113.779C116.382 113.861 116.896 114.167 117.252 114.64C117.608 115.112 117.762 115.695 117.686 116.282L112.047 159.893C111.938 160.73 111.356 161.438 110.563 161.695Z" fill="white"/>
<path fill-rule="evenodd" clip-rule="evenodd" d="M71.6426 107.381C70.7484 107.672 70.0554 108.461 69.9249 109.469L64.2849 153.081C64.1037 154.484 65.0804 155.782 66.4667 155.98L109.551 162.125C109.941 162.18 110.322 162.143 110.672 162.029C111.566 161.739 112.259 160.95 112.39 159.942L118.029 116.33C118.211 114.927 117.234 113.629 115.848 113.431L72.7639 107.286C72.3737 107.23 71.9927 107.268 71.6426 107.381ZM71.8593 108.05C72.1223 107.965 72.3962 107.941 72.6738 107.981L115.757 114.126C116.763 114.269 117.474 115.214 117.343 116.232L111.703 159.844C111.612 160.549 111.122 161.144 110.455 161.361C110.192 161.446 109.917 161.47 109.64 161.43L66.5564 155.285C65.5505 155.142 64.8395 154.197 64.9712 153.179L70.6109 109.567C70.7021 108.862 71.1922 108.267 71.8593 108.05Z" fill="#002975"/>
<circle cx="92.7246" cy="134.243" r="8.019" transform="rotate(7 92.7246 134.243)" fill="#D8D8D8"/>
<path d="M72.2483 108.087L72.2522 108.088L116.14 114.42C116.14 114.42 116.141 114.42 116.141 114.42C116.767 114.515 117.244 115.129 117.162 115.808C117.162 115.809 117.161 115.81 117.161 115.811L111.392 160.197L111.392 160.202C111.335 160.663 111.022 161.037 110.618 161.168C110.458 161.22 110.291 161.235 110.116 161.208L110.111 161.208L66.1549 154.958C66.1541 154.958 66.1534 154.958 66.1526 154.958C65.527 154.863 65.0514 154.25 65.1331 153.571C65.1332 153.57 65.1333 153.569 65.1334 153.568L70.9723 109.1L70.9723 109.1L70.9731 109.094C71.0297 108.632 71.3432 108.258 71.7469 108.127C71.9066 108.075 72.073 108.061 72.2483 108.087Z" stroke="#002C76" stroke-width="1.5"/>
<mask id="mask5_1987_45547" style="mask-type:alpha" maskUnits="userSpaceOnUse" x="174" y="156" width="64" height="47">
<path fill-rule="evenodd" clip-rule="evenodd" d="M174.83 173.66L228.422 156.246L237.904 185.431L184.312 202.844L174.83 173.66Z" fill="white"/>
</mask>
<g mask="url(#mask5_1987_45547)">
<path fill-rule="evenodd" clip-rule="evenodd" d="M234.896 176.174L226.29 188.497C225.572 189.525 224.347 190.059 223.109 189.882L179.192 183.619C178.235 183.483 176.855 181.306 177.455 180.546L188.027 169.372L234.896 176.174Z" fill="#FF2C2D"/>
</g>
<path fill-rule="evenodd" clip-rule="evenodd" d="M193.76 123.086L183.785 134.096C183.479 134.433 183.284 134.858 183.226 135.313L177.308 181.069C177.227 181.699 178.016 182.045 178.406 181.551L188.027 169.371L187.869 168.538L193.76 123.086Z" fill="#003EAC"/>
<path fill-rule="evenodd" clip-rule="evenodd" d="M233.952 176.308C233.64 176.409 233.314 176.437 232.985 176.39L189.901 170.245C189.322 170.163 188.807 169.857 188.451 169.384C188.095 168.911 187.941 168.328 188.017 167.742L193.657 124.13C193.766 123.293 194.348 122.586 195.14 122.328C195.453 122.227 195.779 122.199 196.108 122.246L239.192 128.391C239.771 128.474 240.285 128.779 240.641 129.252C240.997 129.725 241.151 130.308 241.075 130.894L235.436 174.505C235.327 175.343 234.745 176.05 233.952 176.308Z" fill="white"/>
<path fill-rule="evenodd" clip-rule="evenodd" d="M195.032 121.994C194.138 122.284 193.445 123.073 193.314 124.081L187.674 167.693C187.493 169.096 188.47 170.395 189.856 170.592L232.94 176.737C233.33 176.793 233.711 176.755 234.061 176.642C234.955 176.351 235.648 175.562 235.779 174.554L241.419 130.942C241.6 129.539 240.623 128.241 239.237 128.043L196.153 121.898C195.763 121.843 195.382 121.88 195.032 121.994ZM195.248 122.662C195.511 122.577 195.785 122.554 196.063 122.593L239.147 128.738C240.152 128.881 240.864 129.827 240.732 130.845L235.092 174.456C235.001 175.161 234.511 175.757 233.844 175.973C233.581 176.059 233.307 176.082 233.029 176.043L189.946 169.897C188.94 169.754 188.229 168.809 188.36 167.791L194 124.18C194.091 123.475 194.581 122.879 195.248 122.662Z" fill="#002975"/>
<circle cx="216.114" cy="148.855" r="8.019" transform="rotate(7 216.114 148.855)" fill="#D8D8D8"/>
<path d="M195.638 122.699L195.642 122.7L239.529 129.032C239.53 129.032 239.53 129.032 239.531 129.033C240.157 129.127 240.633 129.741 240.551 130.42C240.551 130.421 240.551 130.422 240.551 130.423L234.782 174.809L234.781 174.814C234.725 175.276 234.411 175.649 234.007 175.781C233.848 175.833 233.681 175.847 233.506 175.821L233.501 175.82L189.544 169.571C189.544 169.571 189.543 169.57 189.542 169.57C188.916 169.475 188.441 168.862 188.522 168.183C188.523 168.182 188.523 168.181 188.523 168.18L194.362 123.712L194.362 123.712L194.363 123.706C194.419 123.244 194.733 122.87 195.136 122.739C195.296 122.687 195.462 122.673 195.638 122.699Z" stroke="#002C76" stroke-width="1.5"/>
<mask id="mask6_1987_45547" style="mask-type:alpha" maskUnits="userSpaceOnUse" x="45" y="199" width="64" height="48">
<path fill-rule="evenodd" clip-rule="evenodd" d="M45.1401 217.323L98.7324 199.91L108.215 229.094L54.6226 246.507L45.1401 217.323Z" fill="white"/>
</mask>
<g mask="url(#mask6_1987_45547)">
<path fill-rule="evenodd" clip-rule="evenodd" d="M105.207 219.837L96.6009 232.16C95.883 233.188 94.6575 233.722 93.4194 233.545L49.5021 227.282C48.5459 227.146 47.1655 224.969 47.7654 224.209L58.3373 213.035L105.207 219.837Z" fill="#FF2C2D"/>
</g>
<path fill-rule="evenodd" clip-rule="evenodd" d="M64.0703 166.749L54.0951 177.76C53.79 178.096 53.5949 178.521 53.5361 178.976L47.6187 224.732C47.5372 225.362 48.3264 225.708 48.7165 225.214L58.3378 213.034L58.1794 212.201L64.0703 166.749Z" fill="#003EAC"/>
<path fill-rule="evenodd" clip-rule="evenodd" d="M104.263 219.971C103.95 220.072 103.625 220.1 103.295 220.053L60.2111 213.908C59.6324 213.826 59.1178 213.52 58.7619 213.047C58.406 212.574 58.252 211.991 58.3278 211.405L63.9678 167.794C64.0761 166.956 64.6582 166.249 65.4509 165.991C65.7635 165.89 66.0891 165.862 66.4187 165.909L109.502 172.054C110.081 172.137 110.596 172.442 110.952 172.915C111.308 173.388 111.462 173.971 111.386 174.557L105.746 218.169C105.638 219.006 105.056 219.713 104.263 219.971Z" fill="white"/>
<path fill-rule="evenodd" clip-rule="evenodd" d="M65.3423 165.657C64.4481 165.947 63.7551 166.736 63.6246 167.744L57.9847 211.356C57.8034 212.759 58.7801 214.058 60.1664 214.255L103.25 220.4C103.641 220.456 104.021 220.419 104.372 220.305C105.266 220.014 105.959 219.225 106.089 218.217L111.729 174.605C111.911 173.202 110.934 171.904 109.547 171.706L66.4636 165.561C66.0734 165.506 65.6924 165.543 65.3423 165.657ZM65.559 166.325C65.822 166.24 66.0959 166.217 66.3735 166.256L109.457 172.401C110.463 172.545 111.174 173.49 111.042 174.508L105.403 218.119C105.311 218.824 104.821 219.42 104.154 219.636C103.891 219.722 103.617 219.745 103.34 219.706L60.2561 213.56C59.2502 213.417 58.5392 212.472 58.6709 211.454L64.3106 167.843C64.4018 167.138 64.8919 166.542 65.559 166.325Z" fill="#002975"/>
<circle cx="86.4246" cy="192.518" r="8.019" transform="rotate(7 86.4246 192.518)" fill="#D8D8D8"/>
<path d="M65.948 166.362L65.9519 166.363L109.839 172.695C109.84 172.695 109.84 172.696 109.841 172.696C110.467 172.79 110.943 173.404 110.861 174.084C110.861 174.084 110.861 174.085 110.861 174.086L105.092 218.472L105.091 218.477C105.035 218.939 104.721 219.313 104.318 219.444C104.158 219.496 103.991 219.51 103.816 219.484L103.811 219.483L59.8546 213.234C59.8538 213.234 59.8531 213.233 59.8523 213.233C59.2267 213.139 58.7511 212.525 58.8328 211.846C58.8329 211.845 58.833 211.845 58.8331 211.844L64.672 167.375L64.672 167.375L64.6728 167.369C64.7294 166.907 65.0429 166.533 65.4466 166.402C65.6063 166.35 65.7727 166.336 65.948 166.362Z" stroke="#002C76" stroke-width="1.5"/>
<mask id="mask7_1987_45547" style="mask-type:alpha" maskUnits="userSpaceOnUse" x="106" y="207" width="64" height="48">
<path fill-rule="evenodd" clip-rule="evenodd" d="M106.899 225.054L160.491 207.641L169.974 236.825L116.382 254.238L106.899 225.054Z" fill="white"/>
</mask>
<g mask="url(#mask7_1987_45547)">
<path fill-rule="evenodd" clip-rule="evenodd" d="M166.966 227.568L158.36 239.891C157.642 240.919 156.417 241.453 155.178 241.276L111.261 235.013C110.305 234.877 108.925 232.7 109.524 231.94L120.096 220.766L166.966 227.568Z" fill="#FF2C2D"/>
</g>
<path fill-rule="evenodd" clip-rule="evenodd" d="M125.829 174.48L115.854 185.491C115.549 185.827 115.354 186.252 115.295 186.707L109.378 232.463C109.296 233.093 110.085 233.439 110.476 232.945L120.097 220.765L119.938 219.932L125.829 174.48Z" fill="#003EAC"/>
<path fill-rule="evenodd" clip-rule="evenodd" d="M166.022 227.702C165.709 227.803 165.384 227.831 165.054 227.784L121.97 221.639C121.391 221.557 120.877 221.251 120.521 220.778C120.165 220.305 120.011 219.722 120.087 219.136L125.727 175.525C125.835 174.687 126.417 173.98 127.21 173.722C127.523 173.621 127.848 173.593 128.178 173.64L171.261 179.785C171.84 179.868 172.355 180.173 172.711 180.646C173.067 181.119 173.221 181.702 173.145 182.288L167.505 225.9C167.397 226.737 166.815 227.444 166.022 227.702Z" fill="white"/>
<path fill-rule="evenodd" clip-rule="evenodd" d="M127.101 173.388C126.207 173.678 125.514 174.467 125.384 175.475L119.744 219.087C119.562 220.49 120.539 221.789 121.925 221.986L165.009 228.131C165.4 228.187 165.781 228.149 166.131 228.036C167.025 227.745 167.718 226.956 167.849 225.948L173.488 182.336C173.67 180.933 172.693 179.635 171.306 179.437L128.223 173.292C127.832 173.237 127.451 173.274 127.101 173.388ZM127.318 174.056C127.581 173.971 127.855 173.948 128.133 173.987L171.216 180.132C172.222 180.276 172.933 181.221 172.802 182.239L167.162 225.85C167.071 226.555 166.58 227.151 165.913 227.367C165.65 227.453 165.376 227.476 165.099 227.437L122.015 221.291C121.009 221.148 120.298 220.203 120.43 219.185L126.07 175.574C126.161 174.869 126.651 174.273 127.318 174.056Z" fill="#002975"/>
<circle cx="148.184" cy="200.249" r="8.019" transform="rotate(7 148.184 200.249)" fill="#D8D8D8"/>
<path d="M127.707 174.093L127.711 174.094L171.599 180.426C171.599 180.426 171.6 180.426 171.6 180.427C172.226 180.521 172.703 181.135 172.621 181.814C172.621 181.815 172.62 181.816 172.62 181.817L166.851 226.203L166.851 226.208C166.794 226.67 166.481 227.044 166.077 227.175C165.917 227.227 165.75 227.241 165.575 227.215L165.57 227.214L121.614 220.965C121.613 220.965 121.612 220.964 121.612 220.964C120.986 220.869 120.51 220.256 120.592 219.577C120.592 219.576 120.592 219.575 120.592 219.575L126.431 175.106L126.431 175.106L126.432 175.1C126.489 174.638 126.802 174.264 127.206 174.133C127.366 174.081 127.532 174.067 127.707 174.093Z" stroke="#002C76" stroke-width="1.5"/>
<mask id="mask8_1987_45547" style="mask-type:alpha" maskUnits="userSpaceOnUse" x="166" y="215" width="64" height="48">
<path fill-rule="evenodd" clip-rule="evenodd" d="M166.749 232.928L220.342 215.515L229.824 244.699L176.232 262.112L166.749 232.928Z" fill="white"/>
</mask>
<g mask="url(#mask8_1987_45547)">
<path fill-rule="evenodd" clip-rule="evenodd" d="M226.816 235.442L218.21 247.765C217.492 248.793 216.267 249.327 215.029 249.15L171.111 242.887C170.155 242.751 168.775 240.574 169.375 239.814L179.946 228.64L226.816 235.442Z" fill="#FF2C2D"/>
</g>
<path fill-rule="evenodd" clip-rule="evenodd" d="M185.679 182.354L175.704 193.365C175.399 193.701 175.204 194.126 175.145 194.581L169.228 240.337C169.146 240.967 169.936 241.313 170.326 240.819L179.947 228.639L179.789 227.806L185.679 182.354Z" fill="#003EAC"/>
<path fill-rule="evenodd" clip-rule="evenodd" d="M225.872 235.576C225.559 235.677 225.234 235.705 224.904 235.658L181.82 229.513C181.242 229.431 180.727 229.125 180.371 228.652C180.015 228.179 179.861 227.596 179.937 227.01L185.577 183.399C185.685 182.561 186.267 181.854 187.06 181.596C187.373 181.495 187.698 181.467 188.028 181.514L231.112 187.659C231.69 187.742 232.205 188.047 232.561 188.52C232.917 188.993 233.071 189.576 232.995 190.162L227.355 233.774C227.247 234.611 226.665 235.318 225.872 235.576Z" fill="white"/>
<path fill-rule="evenodd" clip-rule="evenodd" d="M186.951 181.262C186.057 181.552 185.364 182.341 185.234 183.349L179.594 226.961C179.412 228.364 180.389 229.663 181.776 229.86L224.859 236.005C225.25 236.061 225.631 236.024 225.981 235.91C226.875 235.619 227.568 234.83 227.699 233.822L233.338 190.21C233.52 188.807 232.543 187.509 231.157 187.311L188.073 181.166C187.683 181.111 187.302 181.148 186.951 181.262ZM187.168 181.93C187.431 181.845 187.705 181.822 187.983 181.861L231.066 188.006C232.072 188.15 232.783 189.095 232.652 190.113L227.012 233.724C226.921 234.429 226.431 235.025 225.763 235.241C225.5 235.327 225.226 235.35 224.949 235.311L181.865 229.165C180.859 229.022 180.148 228.077 180.28 227.059L185.92 183.448C186.011 182.743 186.501 182.147 187.168 181.93Z" fill="#002975"/>
<circle cx="208.033" cy="208.123" r="8.019" transform="rotate(7 208.033 208.123)" fill="#D8D8D8"/>
<path d="M187.557 181.967L187.561 181.968L231.449 188.3C231.449 188.3 231.45 188.3 231.45 188.301C232.076 188.395 232.553 189.009 232.471 189.688C232.471 189.689 232.471 189.69 232.47 189.691L226.701 234.077L226.701 234.082C226.644 234.544 226.331 234.918 225.927 235.049C225.767 235.101 225.6 235.115 225.425 235.089L225.42 235.088L181.464 228.839C181.463 228.839 181.462 228.838 181.462 228.838C180.836 228.743 180.36 228.13 180.442 227.451C180.442 227.45 180.442 227.449 180.443 227.449L186.281 182.98L186.281 182.98L186.282 182.974C186.339 182.512 186.652 182.138 187.056 182.007C187.216 181.955 187.382 181.941 187.557 181.967Z" stroke="#002C76" stroke-width="1.5"/>
<mask id="mask9_1987_45547" style="mask-type:alpha" maskUnits="userSpaceOnUse" x="122" y="132" width="74" height="55">
<path fill-rule="evenodd" clip-rule="evenodd" d="M122.805 153.015L184.678 132.911L195.407 165.931L133.534 186.034L122.805 153.015Z" fill="white"/>
</mask>
<g mask="url(#mask9_1987_45547)">
<path fill-rule="evenodd" clip-rule="evenodd" d="M192.004 155.457L182.004 169.486C181.169 170.656 179.753 171.269 178.328 171.077L127.764 164.275C126.663 164.127 125.087 161.669 125.784 160.804L138.042 148.064L192.004 155.457Z" fill="#FF2C2D"/>
</g>
<path fill-rule="evenodd" clip-rule="evenodd" d="M144.962 95.5541L133.392 108.104C133.039 108.488 132.811 108.97 132.74 109.487L125.611 161.398C125.513 162.112 126.42 162.5 126.873 161.937L138.042 148.064L137.865 147.12L144.962 95.5541Z" fill="#003EAC"/>
<path fill-rule="evenodd" clip-rule="evenodd" d="M190.915 155.615C190.554 155.732 190.179 155.766 189.8 155.715L140.195 149.041C139.529 148.952 138.938 148.608 138.531 148.075C138.124 147.541 137.95 146.881 138.042 146.217L144.837 96.7387C144.967 95.7889 145.643 94.9831 146.558 94.6857C146.919 94.5684 147.294 94.5348 147.674 94.5857L197.278 101.26C197.944 101.349 198.535 101.692 198.942 102.226C199.349 102.759 199.522 103.419 199.431 104.084L192.637 153.562C192.506 154.512 191.83 155.318 190.915 155.615Z" fill="white"/>
<path fill-rule="evenodd" clip-rule="evenodd" d="M146.435 94.3073C145.403 94.6427 144.599 95.5416 144.442 96.6854L137.647 146.163C137.428 147.756 138.545 149.221 140.141 149.435L189.745 156.109C190.195 156.169 190.634 156.125 191.038 155.993C192.071 155.658 192.875 154.759 193.032 153.615L199.827 104.137C200.045 102.545 198.928 101.08 197.332 100.865L147.728 94.1916C147.279 94.1311 146.839 94.176 146.435 94.3073ZM146.68 95.0636C146.984 94.965 147.3 94.9368 147.619 94.9798L197.223 101.654C198.382 101.809 199.195 102.876 199.036 104.031L192.241 153.509C192.131 154.308 191.563 154.987 190.792 155.237C190.489 155.336 190.173 155.364 189.853 155.321L140.249 148.647C139.091 148.491 138.278 147.425 138.437 146.27L145.231 96.7921C145.341 95.9923 145.91 95.3139 146.68 95.0636Z" fill="#002975"/>
<path fill-rule="evenodd" clip-rule="evenodd" d="M190.903 155.941C190.542 156.058 190.166 156.092 189.787 156.041L140.182 149.367C139.516 149.277 138.925 148.934 138.518 148.401C138.111 147.867 137.938 147.207 138.029 146.542L144.824 97.0644C144.955 96.1146 145.63 95.3087 146.545 95.0114C146.906 94.8941 147.282 94.8605 147.661 94.9114L197.265 101.585C197.932 101.675 198.523 102.018 198.93 102.551C199.336 103.085 199.51 103.745 199.419 104.41L192.624 153.888C192.494 154.838 190.934 155.535 190.018 155.832" fill="#002C76"/>
<path d="M190.903 155.941C190.542 156.058 190.166 156.092 189.787 156.041L140.182 149.367C139.516 149.277 138.925 148.934 138.518 148.401C138.111 147.867 137.938 147.207 138.029 146.542L144.824 97.0644C144.955 96.1146 145.63 95.3087 146.545 95.0114C146.906 94.8941 147.282 94.8605 147.661 94.9114L197.265 101.585C197.932 101.675 198.523 102.018 198.93 102.551C199.336 103.085 199.51 103.745 199.419 104.41L192.624 153.888C192.494 154.838 190.934 155.535 190.018 155.832" stroke="#002C76" stroke-width="1.04782"/>
<path fill-rule="evenodd" clip-rule="evenodd" d="M161.676 117.41L161.913 115.476C162.434 111.231 166.063 108.13 170.602 108.688C175.131 109.244 177.908 113.154 177.39 117.376L177.152 119.31L179.294 119.573C180.782 119.756 181.811 121.348 181.593 123.128L180.009 136.025C179.79 137.806 178.407 139.101 176.919 138.919L157.159 136.492C155.671 136.31 154.641 134.718 154.86 132.937L156.444 120.04C156.662 118.26 158.046 116.964 159.534 117.147L161.676 117.41ZM175.218 119.073L175.455 117.138C175.847 113.947 173.783 111.042 170.364 110.622C166.933 110.201 164.242 112.501 163.848 115.713L163.61 117.648L175.218 119.073ZM159.423 119.097C158.933 119.037 158.476 119.483 158.401 120.094L156.772 133.359C156.697 133.97 157.033 134.513 157.523 134.573L177.029 136.969C177.519 137.029 177.977 136.582 178.052 135.972L179.681 122.707C179.756 122.096 179.419 121.552 178.93 121.492L159.423 119.097Z" fill="#CCCCCC"/>
<path fill-rule="evenodd" clip-rule="evenodd" d="M168.57 127.933C169.104 127.998 169.581 127.863 170.001 127.528C170.42 127.192 170.663 126.758 170.728 126.226C170.793 125.694 170.66 125.217 170.329 124.794C169.997 124.371 169.564 124.127 169.03 124.062C168.496 123.996 168.017 124.128 167.593 124.458C167.169 124.788 166.924 125.219 166.859 125.751C166.794 126.283 166.929 126.763 167.265 127.192C167.601 127.62 168.036 127.867 168.57 127.933Z" fill="#CCCCCC"/>
<path fill-rule="evenodd" clip-rule="evenodd" d="M167.826 125.877C167.891 125.343 168.377 124.963 168.912 125.029C169.446 125.095 169.826 125.581 169.76 126.115L169.048 131.919C168.982 132.453 168.496 132.833 167.961 132.767C167.427 132.701 167.047 132.215 167.113 131.681L167.826 125.877Z" fill="#CCCCCC"/>
<circle cx="60.1785" cy="260.713" r="9.375" fill="#FDC130"/>
<circle cx="256.786" cy="195.804" r="6.25" fill="#6680AD"/>
<path d="M262.994 34.3745C262.994 39.0489 259.013 42.9045 254.018 42.9045C249.023 42.9045 245.042 39.0489 245.042 34.3745C245.042 29.7001 249.023 25.8445 254.018 25.8445C259.013 25.8445 262.994 29.7001 262.994 34.3745Z" stroke="#0040A8" stroke-width="1.69"/>
</g>
<defs>
<linearGradient id="paint0_linear_1987_45547" x1="47.2656" y1="-42.8357" x2="-26.9898" y2="266.573" gradientUnits="userSpaceOnUse">
<stop stop-color="#B9DCFE"/>
<stop offset="1" stop-color="white"/>
</linearGradient>
</defs>
</svg>
