<svg xmlns="http://www.w3.org/2000/svg" width="352" height="352" viewBox="0 0 352 352">
    <defs>
        <linearGradient id="5taws4oipa" x1="74.619%" x2="42.738%" y1="9.915%" y2="93.999%">
            <stop offset="0%" stop-color="#B9DCFE"/>
            <stop offset="100%" stop-color="#FFF"/>
        </linearGradient>
    </defs>
    <g fill="none" fill-rule="evenodd">
        <g>
            <g transform="translate(-3377 -516) translate(3371 504)">
                <path fill="url(#5taws4oipa)" d="M305.5 77.49c31.175 28.572 34.478 86.476 11.841 122.209-22.555 35.733-71.13 49.295-115.034 67.657-43.903 18.285-83.214 41.447-112.295 32.761C60.852 291.432 41.84 250.9 42 216.308c.162-34.514 19.496-63.161 41.729-89.751 22.314-26.667 47.447-51.352 89.578-64.076 42.05-12.8 101.098-13.562 132.193 15.01z" opacity=".202" transform="rotate(-28 187 178)"/>
                <circle cx="81" cy="181" r="17" fill="#0040A8"/>
                <path stroke="#002C76" stroke-linecap="round" stroke-linejoin="round" stroke-width="2.835" d="M169.094 190.887c-6.199 12.416-33.116 18.334-56.774 36.93-23.659 18.595-22.731 56.557 9.263 60.63 23.529 2.996 31.2-23.023 45.118-42.033 13.614-18.596 31.727-24.061 71.174-9.095"/>
                <path fill="#002C76" d="M231.625 178.616c4.317 32.196-29.513 64-55.393 48.205-11.966-7.303-6.933-24.975-9.166-41.627-1.887-14.072-14.602-24.51-6.254-36.795 17.49-25.738 66.152-4.538 70.813 30.217" transform="rotate(-90 195 184)"/>
                <path fill="#FDC130" d="M193.5 194c-35.623 0-64.5-29.325-64.5-65.5S157.877 63 193.5 63c35.623 0 64.5 29.325 64.5 65.5S229.123 194 193.5 194z"/>
                <path stroke="#002C76" stroke-linecap="round" stroke-linejoin="round" stroke-width="2.835" d="M255.807 251c12.87 18.873 5.116 44.375-18.027 42.491-29.653-2.414-58.708 7.49-51.733 48.509"/>
                <circle cx="247.5" cy="243.5" r="7.5" fill="#E33031"/>
                <path stroke="#E33031" stroke-linecap="round" stroke-linejoin="round" stroke-width="1.89" d="M248 231L249 216"/>
                <path fill="#E33031" fill-rule="nonzero" d="M246.953 254.001c.562.022 1.006.412 1.045.894l.002.113-.81 16.07c-.027.532-.539.945-1.143.921-.562-.022-1.006-.412-1.045-.894l-.002-.113.81-16.07c.027-.532.539-.945 1.143-.921zM273.743 234.05c.5-.168 1.04.104 1.208.608.155.468-.067.971-.5 1.175l-.104.042-15.09 5.075c-.5.168-1.04-.104-1.208-.608-.155-.468.067-.971.5-1.175l.104-.042 15.09-5.075zM234.774 246.057c.47-.173.993.062 1.168.525.163.43-.031.905-.436 1.109l-.097.042-14.183 5.21c-.47.173-.993-.062-1.168-.525-.163-.43.031-.905.436-1.109l.097-.042 14.183-5.21zM261.32 224.394c.314-.44.902-.524 1.313-.186.38.312.475.874.24 1.306l-.066.105-7.126 9.987c-.315.44-.903.524-1.314.186-.379-.312-.475-.874-.24-1.306l.066-.105 7.126-9.987zM240.235 252.414c.312-.443.92-.547 1.357-.231.403.291.521.838.292 1.268l-.065.105-7.054 10.03c-.312.443-.92.547-1.357.231-.403-.291-.521-.838-.292-1.268l.065-.105 7.054-10.03z"/>
                <path fill="#0040A8" d="M233 140.999C233 161.435 216.434 178 196 178s-37-16.565-37-37.001c0-.25.002-.501.009-.75.055-2.779.416-5.484 1.053-8.083C164.022 115.998 178.61 104 196 104c20.434 0 37 16.565 37 36.999"/>
                <path fill="#FFF" fill-rule="nonzero" d="M200 104.15l.95-.15.045.247c.028.137.067.311.117.519l.04.162c.19.754.452 1.597.795 2.505.982 2.6 2.422 5.2 4.406 7.627 4.983 6.096 12.497 10.073 23.077 10.938l.57.043-.068.959c-11.145-.785-19.085-4.923-24.324-11.332-2.053-2.512-3.543-5.203-4.56-7.895-.357-.944-.629-1.821-.828-2.61-.052-.209-.097-.4-.134-.573l-.067-.333-.019-.107z"/>
                <path fill="#FFF" d="M208.716 130.589c-1.085-2.577-4.972-3.362-8.682-1.754s-5.836 5-4.75 7.576c1.085 2.577 4.972 3.362 8.682 1.754 3.71-1.607 5.836-5 4.75-7.576M196.145 163.005c-1.655-.088-3.062.958-3.141 2.336-.08 1.378 1.196 2.566 2.851 2.654 1.655.088 3.062-.958 3.141-2.336.08-1.378-1.196-2.566-2.851-2.654"/>
                <path fill="#FFF" fill-rule="nonzero" d="M180.927 107.375l.857-.375.315.739c1.558 3.756 2.062 6.59 1.194 8.296-.74 1.453-2.052 1.849-5.366 2.056l-1.26.072c-2.72.17-3.812.45-4.428 1.282-.23.31.336 1.656 1.768 3.934l.337.526c1.092 1.673 4.574 6.782 5.587 8.313l.09.136c1.588 2.417 2.887 4.535 3.996 6.554 3.606 6.57 4.913 11.64 3.303 15.297-2.187 4.968-10.909 5.78-23.845 3.785l-.475-.074.146-.925c12.733 2.016 21.367 1.269 23.318-3.163 1.454-3.303.208-8.14-3.267-14.47-1.004-1.828-2.17-3.743-3.57-5.896l-.582-.887c-1.2-1.802-4.872-7.193-5.67-8.446l-.334-.529c-1.596-2.566-2.128-3.935-1.554-4.712.85-1.15 2.071-1.47 5.107-1.659l1.251-.071c2.946-.185 4.092-.522 4.614-1.547.726-1.428.194-4.191-1.381-7.887l-.151-.349zM216.049 142.31c.68-2.498 6.644-3.385 16.784-3.305.144.001.195.327.153.979-9.042-.022-15.542.809-16.023 2.572-.242.89.338 2.224 1.632 3.846.669.839 1.506 1.729 2.474 2.648.931.886 1.93 1.75 2.93 2.557l.506.403.777.598.046.034c.425.312.094.976-.413.83l-.362-.1c-.297-.08-.639-.17-1.021-.266-1.093-.277-2.288-.554-3.546-.812-2.206-.452-4.364-.798-6.384-.996-5.586-.546-9.374.114-10.507 2.211-1.339 2.477 6.368 8.17 17.82 14.449l.396.216-.456.826-.825-.452c-12.135-6.68-19.538-12.213-17.77-15.484 1.39-2.574 5.475-3.286 11.435-2.703 2.057.201 4.247.552 6.482 1.01.85.175 1.67.358 2.45.543l.363.087-.198-.163c-.61-.506-1.215-1.031-1.8-1.568l-.579-.54c-.996-.947-1.862-1.867-2.56-2.743-1.467-1.84-2.15-3.408-1.804-4.677z"/>
                <path fill="#FFF" d="M166.84 140.109c-.725 1.31-3.822 1.128-7.84-.232.055-2.708.411-5.345 1.04-7.877 4.789 3.19 7.688 6.514 6.8 8.109"/>
                <circle cx="198" cy="143" r="17" fill="#FFF"/>
                <circle cx="198" cy="143" r="10" fill="#002C76"/>
                <circle cx="201.5" cy="139.5" r="2.5" fill="#FFF"/>
                <circle cx="233" cy="77" r="12" fill="#E33031"/>
            </g>
        </g>
    </g>
</svg>
