<svg xmlns="http://www.w3.org/2000/svg" width="352" height="352" viewBox="0 0 352 352">
    <defs>
        <linearGradient id="dc735dkfva" x1="74.619%" x2="42.738%" y1="9.78%" y2="94.146%">
            <stop offset="0%" stop-color="#B9DCFE"/>
            <stop offset="100%" stop-color="#FFF"/>
        </linearGradient>
    </defs>
    <g fill="none" fill-rule="evenodd">
        <g>
            <g transform="translate(-2865 -516) translate(2865 516)">
                <path fill="url(#dc735dkfva)" d="M285.784 83.501c28.488 26.152 31.506 79.153 10.821 111.86-20.611 32.708-64.999 45.121-105.117 61.928-40.118 16.737-76.04 37.938-102.615 29.988-26.647-7.95-44.02-45.051-43.873-76.712.148-31.592 17.815-57.814 38.132-82.152 20.39-24.409 43.357-47.004 81.856-58.65 38.425-11.716 92.382-12.413 120.796 13.738z" opacity=".202" transform="rotate(-47 177.5 175.5)"/>
                <path stroke="#002C76" stroke-linecap="round" stroke-linejoin="round" stroke-width="2.7" d="M127.42 231.385c-12.095 14.055-43.126 15.932-48.39 26.756-6.51 13.387-1.316 26.342 11.736 23.094 11.2-2.788 11.875-17.664 4.32-23.317-6.522-4.881-15.484-6.544-23.033-3.812-21.002 7.6-28.162 44.735 4.697 57.927 14.574 5.85 29.363 1.115 37.813-7.739 11.26-11.798 28.991-28.103 48.512-20.826"/>
                <path fill="#003992" fill-rule="nonzero" d="M94.5 94c6.351 0 11.5 5.149 11.5 11.5S100.851 117 94.5 117 83 111.851 83 105.5 88.149 94 94.5 94zm0 2.12c-5.18 0-9.38 4.2-9.38 9.38 0 5.18 4.2 9.38 9.38 9.38 5.18 0 9.38-4.2 9.38-9.38 0-5.18-4.2-9.38-9.38-9.38z"/>
                <rect width="17" height="73" x="142" y="118" fill="#002C76" rx="8.5" transform="rotate(40 150.5 154.5)"/>
                <path fill="#FDC130" d="M71 242.88c.033-37.523 30.504-67.913 68.06-67.88 37.556.033 67.973 30.478 67.94 68l-136-.12z" transform="rotate(-140 139 209)"/>
                <path fill="#FFF" fill-rule="nonzero" d="M117.26 188l1.36 1.796-1.315.966-1.23.914c-.709.53-1.46 1.097-2.248 1.695-3.597 2.732-7.194 5.563-10.55 8.341-1.312 1.087-2.564 2.147-3.747 3.174l-.675.59c-6.551 5.754-10.492 10.197-10.574 11.985l-.001.093.023.008c.203.09.557.152 1.044.169l.19.003c1.203.01 2.953-.235 5.181-.722l.398-.089c4.35-.982 10.269-2.797 17.354-5.26 1.64-.57 3.33-1.17 5.06-1.798 4.1-1.485 8.275-3.062 12.361-4.651l2.035-.796c1.24-.488 2.404-.949 3.475-1.378l2.716-1.097.883 2.062-1.69.685c-1.35.544-2.873 1.15-4.533 1.802-4.745 1.864-9.65 3.729-14.454 5.47-1.74.63-3.44 1.233-5.09 1.807l-1.328.46c-6.355 2.18-11.731 3.817-15.854 4.776l-.422.096c-6.048 1.366-9.324 1.338-9.612-1.222-.322-2.855 3.979-7.701 11.998-14.665 1.197-1.039 2.462-2.11 3.788-3.208 3.382-2.8 7.004-5.65 10.625-8.401l1.385-1.048c.598-.45 1.17-.877 1.713-1.28L117.26 188z" transform="rotate(-140 112.5 204)"/>
                <path fill="#FFF" fill-rule="nonzero" d="M159 203.262l.059-2.262 1.432.043c10.932.367 16.995 1.581 17.788 4.545.516 1.93-.75 4.08-3.314 6.574-1.143 1.112-2.537 2.276-4.127 3.472-.526.395-1.064.787-1.61 1.174l-.27.187 1.014-.2 1.177-.226c3.191-.597 6.305-1.076 9.236-1.393l.863-.09c10.102-1 16.496.062 17.667 4.448 1.133 4.246-9.055 11.158-27.64 20.868l-1.148.598-1.04-2.009 2.027-1.06c15.976-8.42 26.26-15.41 25.618-17.813-.753-2.82-6.737-3.706-16.104-2.693-2.869.31-5.926.78-9.063 1.368-1.82.341-3.572.703-5.208 1.068l-.694.157c-.512.117-.982.227-1.405.328l-.918.225c-1.268.325-1.98-1.41-.85-2.072l.594-.356.6-.37c.311-.193.641-.401.986-.622 1.642-1.052 3.283-2.177 4.811-3.326 1.52-1.143 2.843-2.248 3.91-3.285 2.003-1.95 2.93-3.525 2.706-4.367-.382-1.426-6.505-2.575-16.205-2.886l-.892-.025z" transform="rotate(-140 179 221)"/>
                <path fill="#0040A8" d="M235.5 146c-28.442 0-51.5-23.057-51.5-51.502 0-.348.003-.697.012-1.043.077-3.868.58-7.633 1.466-11.25C190.989 59.7 211.296 43 235.5 43c28.442 0 51.5 23.057 51.5 51.498C287 122.943 263.942 146 235.5 146z" transform="rotate(-100 235.5 94.5)"/>
                <circle cx="219.5" cy="82.5" r="10.5" fill="#FFF" transform="rotate(35 219.5 82.5)"/>
                <circle cx="251.5" cy="106.5" r="10.5" fill="#FFF" transform="rotate(35 251.5 106.5)"/>
                <rect width="17" height="73" x="181" y="153" fill="#002C76" rx="8.5" transform="rotate(40 189.5 189.5)"/>
                <circle cx="297.5" cy="210.5" r="16.5" fill="#E33031"/>
            </g>
        </g>
    </g>
</svg>
