<svg xmlns="http://www.w3.org/2000/svg" width="352" height="352" viewBox="0 0 352 352">
    <defs>
        <linearGradient id="3uppt7daca" x1="74.619%" x2="42.738%" y1="9.78%" y2="94.146%">
            <stop offset="0%" stop-color="#B9DCFE"/>
            <stop offset="100%" stop-color="#FFF"/>
        </linearGradient>
    </defs>
    <g fill="none" fill-rule="evenodd">
        <g>
            <g transform="translate(-4401 -516) translate(4398 516)">
                <path fill="#FFF" d="M279.059 140.64c-2.13 1.387-4.33 1.777-4.915.872-.585-.906.668-2.765 2.797-4.152 2.13-1.387 4.33-1.777 4.915-.872.585.906-.668 2.765-2.797 4.152" transform="rotate(-39 278 139)"/>
                <path fill="url(#3uppt7daca)" d="M281.784 84.501c28.488 26.152 31.506 79.153 10.821 111.86-20.611 32.708-64.999 45.121-105.117 61.928-40.118 16.737-76.04 37.938-102.615 29.988-26.647-7.95-44.02-45.051-43.873-76.712.148-31.592 17.815-57.814 38.132-82.152 20.39-24.409 43.357-47.004 81.856-58.65 38.425-11.716 92.382-12.413 120.796 13.738z" opacity=".202" transform="rotate(-47 173.5 176.5)"/>
                <circle cx="63.5" cy="64.5" r="12.5" fill="#E33031"/>
                <circle cx="245" cy="301" r="7" fill="#002C76"/>
                <path fill="#002C76" fill-rule="nonzero" d="M186 265.836L170.45 122 58.207 132.136c-9.172.828-15.945 8.93-15.142 18.115l9.83 112.48c.008.097.017.194.027.29.965 9.187 9.186 15.852 18.362 14.886L186 265.836zm-18.094-140.728l14.937 138.176-111.859 11.772c-7.503.79-14.235-4.578-15.179-12.034l-.047-.42L45.918 150c-.665-7.61 4.946-14.324 12.546-15.01l109.442-9.883z"/>
                <path fill="#FFF" fill-rule="nonzero" d="M168.061 125L183 263.154 71.124 274.923c-7.504.79-14.237-4.577-15.181-12.032l-.047-.42-9.842-112.582c-.666-7.609 4.947-14.321 12.548-15.007L168.062 125z"/>
                <path fill="#002C76" d="M110.423 159.32c4.11 1.553 4.012 8.418 8.121 9.971 2.176.818 4.71-.261 6.887.556 2.155 1.085 3.536 3.28 3.59 5.705.243 2.354-.147 4.757.145 7.095.52 3.972 2.989 7.617 2.826 11.622-.227 5.967-6.496 10.233-12.376 10.478-2.792.117-5.533-.438-8.21-1.336-1.631 5.532-4.467 9.589-4.467 9.589l-.788-11.639c-5-.562-8.666-2.207-11.345-4.217l-7.268-2.254c-2.725-.281-5.32-1.31-7.504-2.975-2.014-1.83-2.842-5.28-1.04-7.323 1.333-1.504 3.753-1.994 4.5-3.858.574-1.424-.085-2.835-.846-4.263l-.363-.678c-.282-.53-.553-1.061-.756-1.598-.884-2.299-.435-4.901 1.166-6.766 1.602-1.865 4.095-2.69 6.484-2.143 1.965.442 3.686 1.782 5.684 1.913 3.054.18 5.474-2.387 7.585-4.61 2.112-2.223 5.116-4.43 7.975-3.27z" transform="scale(-1 1) rotate(6 0 -1817.52)"/>
                <path fill="#FDC130" d="M83 234.613L140.812 252c4.606-16.604-4.59-33.951-20.548-38.76-15.965-4.801-32.648 4.768-37.264 21.373z" transform="scale(-1 1) rotate(6 0 -1914.628)"/>
                <path fill="#FFC7BC" d="M124.126 199.291l.758 11.593s.317-.47.797-1.306l.31 5.236c.114 1.976-.865 3.841-2.506 4.774h-.079c-.604.336-1.289.471-1.966.388-1.938-.282-3.454-1.916-3.695-3.981l-1.046-7.828c-5.376 0-12.1-2.868-13.432-10.004-.864-4.63.401-9.678 3.31-13.165.728 2.865 4.19 12.739 17.55 14.293z" transform="scale(-1 1) rotate(6 0 -1982.29)"/>
                <path fill="#0040A8" d="M96.502 178.331l.137.034.153.04.172.048.092.027c.455.133.963.301 1.51.508 1.567.592 3.133 1.372 4.59 2.36 3.029 2.055 5.178 4.726 6.09 8.094 1.144 4.219.297 9.367-2.965 15.557-.17.325-.061.734.245.916.307.18.694.064.865-.26 3.416-6.483 4.322-11.99 3.077-16.585-1.008-3.716-3.358-6.637-6.626-8.855-1.546-1.048-3.197-1.87-4.848-2.494-.579-.219-1.116-.397-1.6-.538l-.222-.064-.237-.063c-.067-.018-.123-.031-.166-.04-.343-.079-.681.152-.755.516-.073.363.145.721.488.799z" transform="scale(-1 1) rotate(6 0 -1783.398)"/>
                <path fill="#002C76" fill-rule="nonzero" d="M173.85 163.009c1.076-.097 2.034.619 2.14 1.599.102.935-.61 1.772-1.61 1.93l-.145.018-27.086 2.435c-1.075.097-2.033-.619-2.14-1.599-.1-.935.61-1.772 1.611-1.93l.145-.018 27.086-2.435zM177.86 186.012c1.054-.119 2.007.632 2.127 1.678.115.998-.57 1.904-1.55 2.088l-.141.022-28.155 3.188c-1.055.119-2.008-.632-2.128-1.678-.115-.998.57-1.904 1.55-2.088l.141-.022 28.155-3.188zM179.913 208.012c1.032-.116 1.96.638 2.075 1.685.11.999-.562 1.903-1.52 2.085l-.14.02-28.241 3.186c-1.032.116-1.96-.638-2.075-1.685-.11-.999.562-1.903 1.52-2.085l.14-.02 28.241-3.186zM165.426 279.002c.82-.046 1.525.58 1.572 1.4.044.773-.514 1.443-1.268 1.554l-.135.014-18.02 1.028c-.822.046-1.526-.58-1.573-1.4-.044-.773.514-1.443 1.268-1.554l.135-.014 18.02-1.028zM84.43 115.006c.794-.075 1.494.555 1.564 1.407.066.804-.453 1.52-1.18 1.66l-.13.018-20.114 1.903c-.794.075-1.494-.555-1.564-1.407-.066-.804.453-1.52 1.18-1.66l.13-.018 20.114-1.903zM178.999 279.782c.034 1.03-.552 1.904-1.311 1.952l-4.25.264c-.759.047-1.402-.75-1.437-1.78-.034-1.03.552-1.904 1.311-1.952l4.25-.264c.759-.047 1.402.75 1.437 1.78z"/>
                <path fill="#0040A8" d="M169 122.548c23.27-4.139 25.163 4.086 39.49 4.086 14.271 0 15.065-10.423 29.577-6.779 14.51 3.644 26.397-2.855 35.16-2.855 8.764 0 18.565 11.93 13.405 21.87-3.218 6.196-5.708 25.552 0 35.12 4.893 8.205 5.966 11.857 4.754 23.347-.705 6.676 3.528 58.38-3.6 57.522-5.972-.72-27.994-1.527-33.65 2.071-7.067 4.495-19.068 10.905-31.52 6.701-14.127-4.769-27.232-3.871-37.521.898L169 122.548z"/>
                <path fill="#FDC130" d="M249 236c0 21.54 17.46 39 39 39s39-17.46 39-39-17.46-39-39-39-39 17.46-39 39"/>
                <path fill="#FFF" d="M311 239.5c0 3.59 1.791 6.5 4 6.5s4-2.91 4-6.5-1.791-6.5-4-6.5-4 2.91-4 6.5z"/>
                <path fill="#FFF" fill-rule="nonzero" d="M266.834 226.622c3.74-1.045 7.696-.77 11.311.801 3.877 1.883 5.785 6.593 4.41 10.894-.169.528-.705.81-1.197.628-.492-.181-.755-.756-.586-1.284 1.06-3.313-.41-6.943-3.37-8.38-3.203-1.392-6.745-1.639-10.154-.688-5.955 1.22-11.651 3.574-16.815 6.946-.445.29-1.025.14-1.295-.338-.271-.476-.13-1.098.314-1.388 5.357-3.498 11.265-5.94 17.382-7.19z"/>
                <path fill="#FFF" fill-rule="nonzero" d="M293.912 236.008c1.03-.12 1.51 1.178.626 1.697-4.194 2.464-6.805 6.743-6.96 11.403-.017.509-.465.908-1 .892-.534-.017-.953-.442-.937-.95.135-4.016 1.878-7.781 4.795-10.58l.083-.08-.491.097c-5.662 1.138-11.066 3.244-15.941 6.225l-.583.362c-.445.281-1.046.166-1.342-.258-.296-.424-.175-.995.271-1.277 6.436-4.063 13.793-6.643 21.479-7.531zM292.21 244.421c2.508-2.079 6.15-1.859 8.432.542 2 2.314 2.793 5.473 2.127 8.497-.635 2.768-1.774 5.388-3.332 7.684-2.903 4.794-6.198 9.324-9.85 13.543-.334.386-.909.42-1.283.075-.375-.344-.407-.935-.073-1.321 3.583-4.14 6.816-8.585 9.69-13.329 1.453-2.142 2.497-4.545 3.077-7.075.535-2.425-.103-4.966-1.683-6.796-1.598-1.68-4.186-1.837-5.966-.36-.391.323-.963.26-1.278-.143-.314-.403-.252-.992.139-1.317zM283.25 197.008c.521.067.89.55.823 1.077l-1.103 8.76c-.2 1.49.096 2.643.648 2.842l.022.005.091.002c.51-.017.995-.22 1.367-.568l.12-.121.102-.097 8.43-6.906c.636-.52 1.562-.04 1.55.757l-.007.105-1.932 16.517c-.227 1.91.044 3.212.815 3.616l.039.018.125.023c.681.105 1.378-.02 1.982-.355l.178-.106.098-.056c7.327-3.574 14.319-7.8 20.893-12.626.425-.312 1.02-.216 1.328.215.308.43.213 1.032-.212 1.344-6.315 4.636-13.01 8.726-20.013 12.224l-1.135.56-.151.093c-1.01.583-2.19.794-3.337.597l-.245-.048-.144-.044c-1.891-.755-2.407-2.76-2.139-5.415l.03-.268 1.656-14.166-6.576 5.387-.09.095c-.74.73-1.734 1.143-2.77 1.151l-.222-.004-.134-.016c-1.91-.371-2.543-2.422-2.28-4.778l1.13-8.98c.061-.49.476-.847.952-.842l.111.008zM282.59 258.198c1.445-.419 3.008-.167 4.25.694.088.062.167.138.23.226.928 1.281 1.176 2.923.678 4.412l-.06.166-.12.487c-1.035 4-2.87 7.744-5.391 11.013l-.348.443c-.332.415-.939.482-1.354.15-.416-.332-.483-.938-.15-1.353 2.524-3.155 4.356-6.803 5.37-10.713l.134-.535.04-.127c.343-.875.248-1.855-.248-2.647l-.021-.032-.024-.014c-.722-.436-1.595-.556-2.41-.332l-.187.058-.114.032c-6.246 1.326-11.909 4.57-16.189 9.264-.358.393-.968.422-1.361.064-.394-.359-.422-.968-.064-1.36 4.429-4.858 10.25-8.254 16.676-9.733l.492-.11.17-.053zM263.219 235.184c1.305-.306 2.671-.229 3.928.218l.287.11.15.076c1.897 1.188 2.806 3.41 2.258 5.55-.5 1.815-1.418 3.496-2.66 4.887-3.272 4-6.682 7.893-10.226 11.67-.359.382-.967.409-1.36.06-.392-.349-.42-.941-.062-1.323 3.515-3.746 6.898-7.606 10.169-11.604 1.076-1.207 1.856-2.635 2.276-4.158.328-1.284-.181-2.625-1.276-3.4l-.09-.06-.161-.061c-.81-.281-1.689-.348-2.584-.186l-.27.056c-4.842.766-9.351 2.857-12.995 6.018-.397.344-1.006.31-1.36-.076-.353-.386-.318-.978.08-1.322 3.917-3.398 8.762-5.645 13.896-6.455zM231.92 155.659c9.736-5.205 20.477-4.895 29.961 1.173 1.14.73 1.462 2.228.718 3.347-.744 1.119-2.272 1.434-3.413.704-7.82-5.002-16.463-5.33-24.51-1.184l-.395.207c-6.082 3.251-10.672 4.561-18.07 5.537-5.75.758-10.992.053-17.783-1.852l-1.08-.31c-1.06-.313-3.76-1.11-4.69-1.366l-.107-.03c-1.555-.415-2.625-.609-3.371-.609-5.35 0-9.2 1.607-11.78 4.805-.844 1.048-2.395 1.226-3.463.397-1.069-.828-1.25-2.35-.405-3.397 3.574-4.433 8.867-6.642 15.648-6.642 1.203 0 2.533.226 4.287.68l.62.166c1.316.365 4.853 1.415 5.066 1.476 6.51 1.872 11.296 2.561 16.402 1.888 6.635-.875 10.622-1.982 15.87-4.728l.495-.262zM200.493 183.21c9.075-7.333 19.135-6.569 26.698.063 1.007.883 1.084 2.39.173 3.364-.912.976-2.467 1.05-3.474.167-5.747-5.04-12.948-5.651-19.946-.175l-.3.239c-2.312 1.868-4.907 3.191-7.732 4.025-4.527 1.337-9.046 1.365-14.07.604l-.757-.12c-.692-.118-2.426-.428-2.771-.473l-.046-.006c-1.354-.102-2.366-1.248-2.26-2.56.105-1.311 1.289-2.291 2.643-2.189l.18.02c.785.101 3.09.515 3.26.542 4.568.739 8.557.757 12.387-.374 2.212-.653 4.223-1.678 6.015-3.127zM212.762 204.303c3.516-4.478 9.655-5.92 16.95-5.072 5.47.637 11.317 2.65 13.479 4.537 1.007.88 1.085 2.38.172 3.351-.873.93-2.335 1.038-3.343.276l-.134-.11c-1.275-1.112-6.212-2.812-10.765-3.342-5.607-.653-9.997.335-12.277 3.033l-.156.191c-1.566 1.995-3.352 3.367-5.328 4.123-3.653 1.399-7.284.636-11.019-1.457l-.33-.188c-.963-.56-2.883-1.852-2.886-1.854-3.854-2.141-6.587-1.68-10.463.799l-1.615 1.058c-.459.297-.894.576-1.117.706-1.234.727-2.258 1.126-3.394 1.16-1.359.04-2.494-.99-2.535-2.3-.04-1.26.947-2.32 2.23-2.435l.156-.01c.274-.007-.309.336 3.553-2.134 5.176-3.31 9.72-4.122 15.325-1.13l.318.174c.239.133 2.21 1.46 2.968 1.9 2.666 1.547 4.976 2.072 6.992 1.3 1.028-.393 2.032-1.138 3.01-2.316l.21-.26z"/>
                <path fill="#002C76" fill-rule="nonzero" d="M164.288 74.008c.747-.08 1.421.419 1.57 1.133l.021.137 25.113 230.137c.085.785-.488 1.492-1.28 1.577-.747.08-1.421-.419-1.57-1.133l-.021-.137-25.113-230.137c-.085-.785.488-1.492 1.28-1.577z"/>
            </g>
        </g>
    </g>
</svg>
