<svg xmlns="http://www.w3.org/2000/svg" width="352" height="352" viewBox="0 0 352 352">
    <defs>
        <linearGradient id="eleid7bpma" x1="74.619%" x2="42.738%" y1="4.217%" y2="100.253%">
            <stop offset="0%" stop-color="#B9DCFE"/>
            <stop offset="100%" stop-color="#FFF"/>
        </linearGradient>
    </defs>
    <g fill="none" fill-rule="evenodd">
        <g>
            <g transform="translate(-305 -516) translate(305 516)">
                <path fill="url(#eleid7bpma)" d="M270.703 91.123c26.23 25.69 29.01 77.758 9.964 109.889-18.978 32.13-59.849 44.325-96.788 60.836-36.939 16.442-70.014 37.269-94.482 29.459-24.536-7.81-40.532-44.257-40.397-75.36.136-31.035 16.403-56.795 35.11-80.704 18.774-23.979 39.921-46.176 75.37-57.617 35.38-11.51 85.06-12.194 111.223 13.497z" opacity=".202" transform="rotate(-70 171 181.5)"/>
                <path fill="#E33031" d="M287 191L187.885 216.817 171 248 270.115 222.182z" transform="rotate(-180 229 219.5)"/>
                <path fill="#0040A8" d="M116 133.123L141.097 235 158 203.877 132.903 102z" transform="rotate(-180 137 168.5)"/>
                <path fill="#FFF" d="M135 103.234L232.372 78 257 177.766 159.628 203z" transform="rotate(-180 196 140.5)"/>
                <path fill="#130A29" d="M133 102.839L158.235 205 258 179.16 232.766 77 133 102.839zm3.032 1.851l94.926-24.586 24.01 97.206-94.926 24.586-24.01-97.206z" transform="rotate(-180 195.5 141)"/>
                <circle cx="89.5" cy="62.5" r="13.5" fill="#0040A8"/>
                <circle cx="267.5" cy="272.5" r="4.5" fill="#FDC130"/>
                <path fill="#002C76" d="M309.953 132.674c.534 4.185-3.579 7.44-7.54 5.966l-32.732-12.176-13.03-4.844-21.991-8.18c-4.153-1.545-4.965-7.055-1.435-9.728l57.47-43.514 1.388-1.05c3.446-2.61 8.43-.52 8.975 3.762l8.895 69.764z"/>
                <path fill="#FDC130" d="M292.503 82.312c2.39 1.097 3.207 4.756 1.824 8.174-1.383 3.417-4.44 5.298-6.83 4.201-2.39-1.096-3.207-4.755-1.824-8.172 1.383-3.418 4.44-5.299 6.83-4.203"/>
                <path fill="#FFF" fill-rule="nonzero" d="M308.2 97l.164 1.886-1.043.101-.866.092c-.597.066-1.234.14-1.902.223-2.863.355-5.726.795-8.393 1.322l-1.132.232c-6.28 1.337-10.23 3.029-10.404 4.57-.19 1.69 2.22 3.428 6.781 5.13.692.259 1.413.51 2.24.785l3.261 1.061c2.103.698 2.422.886 2.516 1.695.087.738-.253 1.024-1.083 1.396l-.161.071c-.357.154-.82.324-1.448.534l-2.571.82-1.035.327-.808.26c-.515.167-.988.325-1.446.482l-.342.118c-5.021 1.75-7.774 3.43-7.625 4.708.094.803 2.61 2.451 6.836 4.32l.329.144c2.17.945 4.73 1.94 7.6 2.97 2.933 1.05 6.052 2.088 9.195 3.076l1.347.42c.72.223 1.41.434 2.064.632l2.726.805-.52 1.82-1.332-.389-1.421-.424c-.495-.15-1.009-.306-1.54-.47l-.537-.165c-3.62-1.12-7.24-2.312-10.622-3.524-2.683-.962-5.103-1.897-7.2-2.793l-.518-.223c-5.233-2.28-8.071-4.118-8.288-5.98-.315-2.688 2.818-4.601 8.882-6.714l.703-.241c.476-.161.973-.325 1.52-.5l3.514-1.114.73-.242-.534-.178c-.307-.101-1.889-.61-2.36-.764-.884-.29-1.649-.551-2.374-.816l-.36-.133c-5.41-2.019-8.339-4.131-8.002-7.116.332-2.941 5.062-4.869 13.052-6.447 2.716-.537 5.622-.983 8.527-1.343l.99-.12c.323-.037.635-.073.938-.106l1.096-.116.855-.082zM293.095 70.066c-.026.006-.093-.016-.253-.058-.439-.115-1.127-.156-2.022-.115-1.672.078-3.966.433-6.713 1.011-1.06.223-2.172.476-3.319.753-1.3.314-2.595.646-3.844.982l-1.546.423-1.36.388-.541-1.798 1.092-.313c.288-.081.596-.167.92-.256 1.55-.426 3.184-.851 4.831-1.25 1.164-.28 2.293-.537 3.374-.764 2.839-.597 5.221-.966 7.017-1.05 2.546-.118 4.083.287 4.258 1.789.275 2.357-4.797 5.385-17.794 11.711l-2.789 1.35-8.061 3.869c-2.439 1.176-4.335 2.108-5.943 2.926l-.628.32c-2.028 1.043-3.545 1.884-4.578 2.547-.465.298-.825.556-1.073.767l-.169.154.042.025c.508.275 2.611.592 6.156.735l2.577.093c4.916.192 5.91.421 6.173 1.838.281 1.508-4.142 4.208-15.291 10.159l-2.967 1.574c-3.46 1.826-7.14 3.728-10.843 5.616l-4.958 2.51-1.993.998-.85-1.676 2.46-1.234c.961-.484 1.995-1.006 3.088-1.561l2.771-1.412c2.766-1.415 5.503-2.83 8.131-4.21l2.44-1.288 1.657-.881c3.967-2.121 7.278-3.958 9.77-5.434l.969-.58c1.123-.682 2.025-1.264 2.687-1.737l.336-.246.268-.208-.079-.017c-.156-.033-.333-.064-.53-.092l-.47-.06c-.629-.072-1.33-.12-2.431-.166l-3.326-.124c-5.73-.233-7.714-.663-7.758-2.681-.028-1.257 1.897-2.492 6.919-5.073l.962-.491c.997-.504 2.103-1.052 3.373-1.672l3.167-1.533 8.588-4.124 2.632-1.282c4.506-2.212 7.792-3.918 10.36-5.41l.57-.334c2.768-1.651 4.388-2.956 4.543-3.38l.009-.036-.011.008z"/>
                <path fill="#FDC130" d="M270.497 127L257 122.157c2.547-7.613 6.552-12.765 9.826-12.1 3.556.72 5.038 8.032 3.67 16.943M49.064 315c-5.836-29.837 12.924-58.896 41.902-64.905 28.977-6.008 57.198 13.309 63.034 43.146L49.064 315z"/>
                <path fill="#002C76" d="M91.186 208s19.074 1.966 26.67 13.334c7.597 11.37-.963 29.19-.963 29.19L74 255l17.186-47z"/>
                <path fill="#FFC7BC" d="M88.503 266l-18.005-29.4s-11.947.687-14.136-7.212c-2.19-7.898 6.265-8.922 6.265-8.922s-2.06-11.4 7.282-18.066c9.343-6.667 21.22 1.79 25.031 10.323 5.628 12.602 3.973 21.35-9.004 25.627l10.666 15.691"/>
                <path fill="#002C76" d="M84.179 257.872c8.632-9.607-17.288-41.434-17.288-41.434C80.901 216.41 91 206.473 91 206.473s-12.545-15.151-29.097-2.307C45.35 217.01 48.1 231.126 48.1 231.126s-16.243 16.27-7.532 32.304C49.278 279.464 71.595 280 71.595 280s5.725-14.494 12.584-22.128"/>
            </g>
        </g>
    </g>
</svg>
