<svg xmlns="http://www.w3.org/2000/svg" width="352" height="352" viewBox="0 0 352 352">
    <defs>
        <linearGradient id="hshuvm9zqa" x1="74.619%" x2="42.738%" y1="9.78%" y2="94.146%">
            <stop offset="0%" stop-color="#B9DCFE"/>
            <stop offset="100%" stop-color="#FFF"/>
        </linearGradient>
    </defs>
    <g fill="none" fill-rule="evenodd">
        <g>
            <g transform="translate(-3889 -516) translate(3889 516)">
                <g fill="url(#hshuvm9zqa)" opacity=".202" transform="rotate(-47 225.945 96.703)">
                    <path d="M240.784 21.501c28.488 26.152 31.506 79.153 10.821 111.86-20.611 32.708-64.999 45.121-105.117 61.928-40.118 16.737-76.04 37.938-102.615 29.988C17.226 217.327-.147 180.226 0 148.565c.148-31.592 17.815-57.814 38.132-82.152 20.39-24.409 43.357-47.004 81.856-58.65C158.413-3.953 212.37-4.65 240.784 21.501z"/>
                </g>
                <path fill="#FDC130" d="M129.61 69.08c9.903.798 19.472 8.08 21.114 18.012.82 4.988-.34 9.937-1.498 14.918l-.289 1.246c-.62 2.702-1.19 5.415-1.394 8.151-.146 1.966-.113 3.982-.066 6l.022.931c.123 5.121.177 10.206-2.522 14.452-3.412 5.48-10.493 7.719-16.932 7.436-6.44-.283-12.828-2.29-19.062-3.371-6.234-1.08-13.392-1.003-18.703 2.573-3.232 2.239-5.592 5.66-9.107 7.436-6.209 3.114-14.393-.514-17.497-6.741-1.89-4.357-2.164-9.165-.91-13.603-.744-3.209-.768-6.572-.027-9.85 1.342-5.936 5.078-11.086 10.355-14.275 3.423-2.074 6.68-3.119 12.87-4.422l.688-.143 3.12-.637.244-.051 1.092-.235.691-.154c3.135-.72 5.86-1.609 8.172-2.722 1.03-1.907 1.818-3.944 2.342-6.064.872-3.14.667-7.256 2.565-9.958 4.464-6.613 17.369-9.546 24.732-8.929zM97.786 97.417l-.325.114c-1.69.586-3.525 1.092-5.5 1.533-.28.063-.546.121-.822.18l-.888.188-2.79.57c-6.616 1.355-9.854 2.34-13.167 4.348-4.745 2.868-8.1 7.493-9.305 12.822-.38 1.684-.536 3.393-.474 5.087.372-.677.785-1.336 1.24-1.975 4.137-5.666 9.72-10.11 16.162-12.865 1.026-.514 2.07-1 3.114-1.478l1.044-.478c3.825-1.752 7.587-3.535 10.465-6.535.435-.488.851-.992 1.246-1.51z"/>
                <path fill="#002C76" d="M105.204 124.439c-11.89 3.08-21.912 7.016-28.204 17.845 10.326 14.915 44.556 42.661 83 8.11-4-7.946-14.074-17.14-19.79-20.654-10.524-6.474-23.116-8.38-35.006-5.301z"/>
                <path fill="#FFC7BC" d="M103.667 82.54l.004.024c.14.779 3.808 19.856 28.011 23.319l1.304 21.27c.179 2.99-1.353 5.812-3.922 7.224h-.124c-.946.508-2.018.712-3.078.587-3.032-.427-5.406-2.9-5.783-6.024l-1.638-11.843c-8.414 0-18.938-4.34-21.023-15.136-1.76-9.115 2.123-19.303 9.976-23.96-1.555 1.207-2.833 2.718-3.727 4.538z"/>
                <path fill="#002C76" fill-rule="nonzero" d="M123 51c-32.033 0-58 25.967-58 58s25.967 58 58 58 58-25.967 58-58-25.967-58-58-58zm0 2.698c30.543 0 55.302 24.76 55.302 55.302 0 30.543-24.76 55.302-55.302 55.302-30.543 0-55.302-24.76-55.302-55.302 0-30.543 24.76-55.302 55.302-55.302z"/>
                <path fill="#002C76" d="M259.19 108.136c16.578 1.353 32.599 13.705 35.348 30.552 1.34 8.248-.475 16.434-2.363 24.67l-.343 1.499c-1.144 4.995-2.245 10.012-2.62 15.075-.268 3.653-.176 7.411-.087 11.163l.028 1.185c.193 8.485.179 16.882-4.236 23.92-5.713 9.296-17.567 13.093-28.348 12.613-10.78-.48-21.475-3.884-31.912-5.717-10.437-1.833-22.42-1.702-31.311 4.364-5.412 3.797-9.363 9.602-15.248 12.614-10.394 5.28-24.095-.873-29.292-11.435-3.164-7.39-3.624-15.546-1.524-23.073-1.245-5.444-1.285-11.147-.045-16.706 2.246-10.07 8.502-18.806 17.336-24.216 5.731-3.518 11.182-5.289 21.547-7.5l1.15-.242 5.225-1.082.408-.086 1.828-.397 1.158-.263c5.248-1.22 9.81-2.728 13.682-4.617 1.723-3.234 3.043-6.689 3.919-10.286 1.46-5.324 1.116-12.307 4.295-16.89 7.473-11.217 29.077-16.192 41.404-15.145zm-53.278 48.066l-.544.193c-2.831.993-5.901 1.852-9.21 2.6-.467.106-.912.205-1.375.306l-1.486.318-4.67.967c-11.078 2.298-16.498 3.97-22.045 7.375-7.943 4.864-13.562 12.71-15.578 21.749-.637 2.856-.898 5.754-.794 8.627.623-1.148 1.315-2.266 2.075-3.348 6.928-9.611 16.275-17.15 27.059-21.822 2.197-1.117 4.443-2.15 6.677-3.187l1.218-.566c6.08-2.837 12.002-5.809 16.587-10.65.728-.829 1.424-1.683 2.086-2.562z"/>
                <path fill="#FDC130" d="M279.996 212.233c-17.76-10.789-39.01-13.967-59.075-8.835-20.066 5.132-37.304 18.154-47.921 36.2L306.927 321c10.63-18.05 13.766-39.654 8.715-60.054s-17.874-37.924-35.646-48.713z"/>
                <path fill="#FFC7BC" d="M215.296 131.647s5.603 33.36 47.471 39.314l2.21 35.824c.302 5.035-2.294 9.788-6.646 12.166h-.21c-1.603.855-3.42 1.2-5.215.989-5.14-.72-9.161-4.884-9.8-10.145l-2.775-19.947c-14.257 0-32.09-7.308-35.622-25.492-2.983-15.352 3.598-32.512 16.906-40.355-2.636 2.034-4.804 4.579-6.319 7.646z"/>
                <circle cx="116.5" cy="255.5" r="21.5" fill="#E33031"/>
                <circle cx="285.5" cy="55.5" r="7.5" fill="#0040A8"/>
            </g>
        </g>
    </g>
</svg>
