<svg xmlns="http://www.w3.org/2000/svg" width="352" height="352" viewBox="0 0 352 352">
    <defs>
        <linearGradient id="mro2ph92xa" x1="74.619%" x2="42.738%" y1="15.731%" y2="87.614%">
            <stop offset="0%" stop-color="#B9DCFE"/>
            <stop offset="100%" stop-color="#FFF"/>
        </linearGradient>
    </defs>
    <g fill="none" fill-rule="evenodd">
        <g>
            <g>
                <path fill="url(#mro2ph92xa)" d="M275.936 123.014c23.577 28.63 51.837 54.529 53.945 85.966 2.03 31.438-22.093 68.415-51.056 74.187-28.963 5.773-62.766-19.814-111.714-35.182-48.87-15.368-113.04-20.516-131.854-50.94-18.892-30.424 7.572-86.044 44.966-117.872 37.394-31.828 85.874-39.785 119.52-28.005 33.647 11.701 52.617 43.217 76.193 71.846z" opacity=".202" transform="translate(-817 -516) translate(817 516) rotate(12 179.5 165)"/>
                <path fill="#130A29" fill-rule="nonzero" d="M272 244.733L194.643 212 169 272.267 246.357 305 272 244.733zm-75.93-29.2l72.39 30.631-23.53 55.302-72.39-30.632 23.53-55.301z" transform="translate(-817 -516) translate(817 516) rotate(135 220.5 258.5)"/>
                <path fill="#003EAC" d="M271.546 306.575c-3.237 8.092-22.895 7.007-43.906-2.423-21.012-9.43-35.422-23.635-32.186-31.728 3.237-8.09 22.895-7.006 43.906 2.424 21.012 9.431 35.422 23.635 32.186 31.727" transform="translate(-817 -516) translate(817 516) rotate(135 233.5 289.5)"/>
                <path fill="#FFC20A" d="M248.534 245.817c-3.32 7.731-23.489 6.695-45.046-2.316-21.558-9.011-36.343-22.585-33.022-30.317 3.32-7.732 23.488-6.696 45.046 2.315 21.558 9.012 36.343 22.585 33.022 30.318" transform="translate(-817 -516) translate(817 516) rotate(135 209.5 229.5)"/>
                <path fill="#333" fill-rule="nonzero" d="M244.317 238.22c-4.025 8.529-24.492 7.38-46.296-1.871-22.033-9.35-37.191-23.476-33.455-32.308 3.729-8.812 24.389-7.734 46.413 1.61 21.813 9.256 36.887 23.194 33.561 32.042l-.106.266-.117.262zm-2.27-1.54c2.483-6.792-11.598-19.811-32.104-28.512-20.722-8.793-40.053-9.802-42.909-3.05-2.848 6.731 11.31 19.925 32.023 28.715 20.515 8.704 39.666 9.78 42.818 3.25l.091-.2.08-.204z" transform="translate(-817 -516) translate(817 516) rotate(135 204.5 221)"/>
                <path fill="#FF2C2D" d="M210 199.712l-24.178 15.04c-2.038 1.403-4.748 1.643-7.036.62l-81.14-36.274c-1.766-.79-2.3-4.406-.66-5.403L123.732 159 210 199.712z" transform="translate(-817 -516) translate(817 516) rotate(-8 153 187.5)"/>
                <path fill="#003EAC" d="M156 79l-26.447 14.789c-.809.452-1.459 1.14-1.862 1.969L87.132 179.19c-.558 1.148.762 2.296 1.837 1.597l26.497-17.233.22-1.684L156 79z" transform="translate(-817 -516) translate(817 516) rotate(-8 121.5 130)"/>
                <path fill="#FFF" d="M199.199 196.557l-79.68-38.418c-1.07-.515-1.875-1.418-2.268-2.54-.392-1.122-.323-2.33.193-3.4l38.417-79.681c.738-1.53 2.313-2.518 4.012-2.518.67 0 1.32.149 1.929.443l79.679 38.418c1.07.516 1.876 1.418 2.268 2.54.392 1.122.323 2.33-.193 3.4l-38.417 79.681c-.737 1.53-2.312 2.518-4.012 2.518-.67 0-1.32-.148-1.928-.443z" transform="translate(-817 -516) translate(817 516) rotate(-8 180.5 133.5)"/>
                <path fill="#002C76" fill-rule="nonzero" d="M159.344 72.707c-1.248.064-2.387.765-3 1.875l-.092.18-37.188 77.128c-.845 1.754-.158 3.85 1.53 4.772l.167.086 77.129 37.188c.501.24 1.036.362 1.577.362 1.325 0 2.551-.718 3.193-1.889l.088-.17 37.187-77.13c.846-1.753.16-3.849-1.53-4.771l-.167-.086-77.129-37.188c-.429-.206-.883-.325-1.345-.354l-.231-.008-.189.005zm.504-2.7c.733.037 1.457.202 2.143.492l.292.132 77.129 37.187c3.087 1.489 4.421 5.15 3.05 8.262l-.093.203-37.187 77.13c-1.068 2.214-3.3 3.587-5.715 3.587-.84 0-1.672-.167-2.458-.498l-.292-.132-77.129-37.188c-3.087-1.488-4.42-5.15-3.05-8.263l.092-.202 37.188-77.13c1.033-2.14 3.152-3.495 5.474-3.582l.24-.005.316.008z" transform="translate(-817 -516) translate(817 516) rotate(-8 179.5 133.5)"/>
                <path fill="#000" d="M137.869 106.92l2.723 2.21c.757.62 1.559 1.279 2.398 1.974l1.28 1.062c3.409 2.838 6.796 5.725 9.982 8.532.47.414.933.824 1.388 1.23l1.343 1.203c9.647 8.694 14.531 14.04 13.974 16.639-.448 2.089-2.628 2.242-6.235 1.346l-.5-.13c-2.767-.732-6.424-2.09-10.77-3.943l-.837-.36c-.843-.364-1.704-.743-2.582-1.136-1.213-.544-2.434-1.103-3.653-1.672 2.22 1.924 4.409 3.868 6.497 5.784 1.078.99 2.113 1.956 3.098 2.896l.338.323c7.498 7.183 11.387 11.98 10.882 14.673-.267 1.42-1.5 1.94-3.124 1.792-1.14-.104-2.634-.534-4.493-1.259-2.73-1.066-6.234-2.769-10.358-4.991l-1-.544-1.026-.562c-1.053-.582-2.134-1.19-3.239-1.82-1.977-1.13-3.983-2.303-5.982-3.497 1.21 1.235 2.4 2.47 3.55 3.688l1.051 1.119 1.013 1.093c6.556 7.134 9.839 11.577 9.274 13.833-.564 2.25-3.078 1.973-7.967.1l-.837-.327-.896-.362c-3.026-1.24-6.725-2.963-11.39-5.277l-2.694-1.347-2.082-1.054-1.46-.744-11.022-5.668c-2.093-1.067-3.726-1.887-5.088-2.547l-1.075-.515c-1.698-.802-5.756-2.212-13.47-4.698l-4.794-1.534-19.574-6.195c-6.161-1.956-11.435-3.649-16.463-5.289l-2.585-.845c-1.912-.628-3.772-1.242-5.583-1.846l-3.206-1.074-3.107-1.052c-22.872-7.789-23.105-10.554-2.484-3.438l3.275 1.123c2.372.808 4.831 1.634 7.389 2.484l2.216.734 3.417 1.123c5.691 1.862 11.625 3.767 18.759 6.03l19.137 6.056c10.752 3.425 15.983 5.2 18.12 6.21l.642.306c1.113.535 2.403 1.174 3.982 1.973l1.957.995 11.167 5.742 2.503 1.27c5.446 2.752 9.705 4.796 13.116 6.258l.694.294.938.387c2.232.904 3.973 1.482 5.17 1.709.358.068.652.1.872.104-.197-.622-.944-1.948-2.196-3.644-1.525-2.064-3.725-4.646-6.46-7.62l-.495-.538c-.5-.54-1.016-1.091-1.545-1.65-2.41-2.552-4.996-5.18-7.582-7.734-.905-.894-1.745-1.715-2.5-2.445l-.944-.91 1.505-1.915 2.377 1.494c.67.416 1.383.858 2.136 1.32l1.48.905c2.97 1.808 5.997 3.602 8.956 5.29 1.096.626 2.167 1.228 3.21 1.804l.506.28c4.699 2.58 8.645 4.532 11.584 5.68 1.662.649 2.962 1.022 3.825 1.101.216.02.386.02.504.007-.064-1.502-3.443-5.682-9.024-11.149l-.883-.858-.608-.583c-.974-.929-1.997-1.885-3.064-2.864-3.043-2.791-6.305-5.647-9.567-8.412l-.425-.36-1.224-1.03-1.505-1.253-1.192-.98 1.332-2.036 2.096 1.052c.51.253 1.05.52 1.619.798l1.429.694c2.393 1.156 4.841 2.302 7.252 3.382 1.158.518 2.286 1.012 3.378 1.478 4.247 1.81 7.808 3.133 10.437 3.83 1.424.377 2.536.558 3.27.537.187-.005.333-.023.434-.047l-.016-.063c-.2-.668-1.431-2.44-3.533-4.74l-.26-.284c-1.936-2.093-4.51-4.604-7.613-7.452l-.9-.822-.89-.805-1.333-1.194-1.377-1.22c-3.564-3.14-7.384-6.384-11.204-9.546l-.497-.41-1.891-1.555-1.306-1.064-1.397-1.13 1.532-1.908zM29.03 57.498c.089-.63 1.306-.662 3.652-.1l91.597 44.115 8.502.026-.008 2.446-8.778-.027-.524-.12-91.195-43.563c-2.253-1.222-3.335-2.148-3.246-2.777z" transform="translate(-817 -516) translate(817 516) rotate(-8 96.5 112.5)"/>
                <path fill="#FDC130" d="M86 61c6.627 0 12-5.373 12-12s-5.373-12-12-12-12 5.373-12 12 5.373 12 12 12z" transform="translate(-817 -516) translate(817 516)"/>
                <path fill="#002C76" d="M323 238c3.866 0 7-3.134 7-7s-3.134-7-7-7-7 3.134-7 7 3.134 7 7 7z" transform="translate(-817 -516) translate(817 516)"/>
                <path fill="#002C76" fill-rule="nonzero" d="M110.042 197.646c.137-.453.574-.718 1.007-.629l.1.027 15.239 5.142c.463.156.718.68.57 1.168-.137.453-.574.718-1.007.629l-.1-.027-15.239-5.142c-.463-.156-.718-.68-.57-1.168z" transform="translate(-817 -516) translate(817 516)"/>
                <path stroke="#333" stroke-linecap="round" stroke-linejoin="round" stroke-width="1.8" d="M54 67L83 76" transform="translate(-817 -516) translate(817 516)"/>
            </g>
        </g>
    </g>
</svg>
