<svg xmlns="http://www.w3.org/2000/svg" width="352" height="352" viewBox="0 0 352 352">
    <defs>
        <linearGradient id="j6pfdzxyea" x1="74.619%" x2="42.738%" y1="15.731%" y2="87.614%">
            <stop offset="0%" stop-color="#B9DCFE"/>
            <stop offset="100%" stop-color="#FFF"/>
        </linearGradient>
    </defs>
    <g fill="none" fill-rule="evenodd">
        <g>
            <g transform="translate(-2353 -516) translate(2344 516)">
                <path fill="url(#j6pfdzxyea)" d="M276.936 168.014c23.577 28.63 51.837 54.529 53.945 85.966 2.03 31.438-22.093 68.415-51.056 74.187-28.963 5.773-62.766-19.814-111.714-35.182-48.87-15.368-113.04-20.516-131.854-50.94-18.892-30.424 7.572-86.044 44.966-117.872 37.394-31.828 85.874-39.785 119.52-28.005 33.647 11.701 52.617 43.217 76.193 71.846z" opacity=".202" transform="rotate(-162 180.5 210)"/>
                <circle cx="55.5" cy="242.5" r="15.5" fill="#E33031"/>
                <circle cx="297.5" cy="169.5" r="7.5" fill="#0040A8"/>
                <path fill="#FDC130" d="M214.133 65.396C205.402 50.674 215.953 32 233.004 32h51.993c17.05 0 27.601 18.674 18.87 33.396l-25.997 43.83c-8.52 14.366-29.219 14.366-37.74 0l-25.997-43.83z" transform="rotate(165 259 76)"/>
                <path fill="#FFF" fill-rule="nonzero" d="M214.866 76.112c1.99-3.267 6.331-4.455 12.62-4.029l.764.06c.386.033.78.072 1.18.116l.81.097.829.112c.279.04.56.082.846.127l.864.14.438.076.89.163.909.176c.305.062.614.125.925.19 7.179 1.518 15.222 4.12 23.078 7.154l.981.382-.98 2.535c-8.04-3.148-16.33-5.864-23.635-7.408l-.893-.184-.875-.17-.856-.154-.836-.14-.817-.127c-.27-.04-.535-.077-.797-.112l-.778-.098c-.255-.03-.508-.057-.757-.083l-.736-.068-.361-.029-.706-.046-.345-.018-.674-.025c-4.532-.118-7.57.793-8.783 2.784-1.446 2.373.548 6.19 5.215 10.958l.597.602.309.304.638.615c.326.31.663.624 1.009.941l.705.639.732.647.375.327.77.66.796.67.82.676.846.685.87.692.443.349.906.703.929.711.952.718.975.724.998.73 1.02.738 1.042.743 1.603 1.126 1.095.757 1.116.763 1.136.768 1.156.772 1.176.778.595.39-1.473 2.281c-.499-.326-.993-.652-1.483-.976l-1.457-.972c-.24-.162-.48-.323-.718-.485l-1.416-.964-.698-.48-1.372-.957c-5.886-4.13-10.935-8.094-14.834-11.762l-.629-.6-.607-.592-.585-.585c-.19-.194-.378-.387-.561-.579l-.54-.572c-.175-.189-.347-.377-.515-.564l-.493-.559c-.24-.277-.471-.552-.694-.824l-.433-.54c-3.367-4.3-4.414-7.934-2.621-10.877z" transform="rotate(165 237 90.5)"/>
                <path fill="#FFF" fill-rule="nonzero" d="M279.277 43c.109.26.215.519.317.774l.297.756c1.812 4.738 2.346 8.433 1.177 10.935-.67 1.435-2.088 2.236-4.162 2.663l-.447.084-.345.057-.348.051-.358.046-.37.04-.391.036-.631.045-.702.038-1.074.041-1.269.035-1.135.028-.967.031-.598.025-.831.045-.511.034-.478.038-.446.042-.415.047-.384.052-.355.056-.326.062c-.157.032-.303.066-.44.103l-.26.075c-.412.131-.72.287-.946.472l-.086.076.013.03c.103.232.287.54.552.914l.247.337.286.366.321.394.359.42.396.45.434.48.473.51.514.54.553.575.488.497 2.258 2.237 8.29 8.149 1.24 1.229.752.753c3.029 3.064 5.595 5.806 7.847 8.42l.668.783.647.774.626.763.604.753.294.373.572.74c.373.489.733.971 1.077 1.448l.505.71.483.7c.236.347.463.691.682 1.031l.427.677c3.318 5.371 4.43 9.836 2.966 13.503-1.594 3.993-6.301 6.257-13.61 7.174l-.792.093-.813.082c-.274.026-.552.05-.832.073l-.852.063c-.288.02-.578.037-.872.053l-.89.043-.452.018-.92.028-.937.02-.957.009-.485.001-.49-.001.012-2.692h.492l.969-.005.947-.015.926-.026.903-.036c.298-.013.592-.028.882-.045l.86-.056c.425-.03.84-.064 1.248-.102l.804-.08c.264-.03.525-.06.781-.091l.758-.101c5.974-.845 9.727-2.65 10.829-5.408 1.22-3.056-.197-7.413-3.98-12.938l-.474-.683-.499-.694c-.425-.583-.875-1.178-1.348-1.785l-.58-.735-.603-.746c-.205-.25-.414-.502-.626-.757l-.649-.768-.332-.388c-1.765-2.05-3.735-4.187-5.983-6.507l-1.147-1.177-1.01-1.02-3.947-3.9-7.115-6.993-.661-.656-.603-.606-.501-.514-.704-.732-.438-.462-.608-.657-.375-.414-.35-.397-.324-.38-.3-.364-.275-.348c-.132-.17-.254-.335-.368-.495l-.214-.312c-.978-1.479-1.111-2.502-.464-3.44.9-1.303 2.122-1.923 4.539-2.238l.453-.054.48-.048.251-.022.524-.04.843-.05.916-.041.992-.033 1.838-.047.64-.02.898-.037.822-.045.509-.035.704-.06.432-.046.205-.024.389-.052.36-.058.17-.03.32-.065.15-.035.28-.073c.85-.24 1.321-.563 1.524-.998.682-1.458.391-4.061-.767-7.478l-.235-.671c-.081-.227-.167-.458-.256-.691l-.278-.71-.146-.363-.152-.367L279.277 43z" transform="rotate(165 279 79.5)"/>
                <ellipse cx="181" cy="299.5" fill="#0040A8" stroke="#979797" stroke-width=".9" rx="90" ry="20.5"/>
                <path fill="#FDC130" d="M126.931 135.092c-4.226-47.827 31.224-63.04 24.619-60.897-39.207 12.724-63.632 45.77-57.653 81.617 3.328 19.952 31.392 55.375 84.191 106.27 2.488 2.398 6.128 3.16 9.369 1.962l24.543-9.08c-53.895-48.03-82.251-87.986-85.069-119.872z" transform="rotate(-1 152.5 170)"/>
                <path fill="#002C76" fill-rule="nonzero" d="M150.517 73.265c-40.333 13.129-64.631 47.179-58.604 83.424 3.397 20.425 31.569 56.098 84.611 107.387 2.877 2.783 7.102 3.667 10.858 2.273L214 256.472l-1.67-1.493c-53.693-47.997-81.895-87.858-84.675-119.426-1.749-19.85 3.087-35.462 12.283-47.585 3.012-3.97 6.12-7.102 9.464-9.876l.727-.593 2.05-1.628.257-.211.047-.04c.202-.183.334-.325.453-.54.486-.878-.054-1.967-1.089-2.07-.272-.027-.487 0-.85.105l-.302.092-.178.058zm-5.102 4.705l-.306.28c-2.541 2.341-4.966 4.966-7.333 8.087-9.59 12.643-14.631 28.916-12.822 49.453l.094.975c3.27 31.618 30.709 70.68 82.253 117.332l1.552 1.4-22.416 8.318c-2.777 1.03-5.9.377-8.026-1.68-52.589-50.851-80.561-86.27-83.824-105.888-5.445-32.748 14.933-63.727 49.9-77.906l.928-.371z" transform="rotate(-1 152.5 170)"/>
                <path fill="#002C76" fill-rule="nonzero" d="M80.54 157.263c.586-.445 1.408-.311 1.835.298 7.193 10.256 11.95 20.485 13.607 30.848.119.745-.365 1.449-1.08 1.572-.716.124-1.393-.38-1.512-1.124-1.58-9.884-6.167-19.745-13.138-29.685-.427-.61-.299-1.465.288-1.91z" transform="rotate(-180 88 173.5)"/>
                <path fill="#FFF" d="M261.481 138.407C254.996 99.523 218.06 68 178.988 68c-39.075 0-65.494 31.523-59.01 70.407 5.553 33.289 68.658 96.886 86.706 114.502 2.519 2.459 5.857 3.122 7.989-.061 11.853-17.701 52.354-81.19 46.808-114.44z" transform="rotate(-1 190.5 161.5)"/>
                <path fill="#002C76" fill-rule="nonzero" d="M179.462 66c-39.994 0-67.097 32.325-60.463 72.088 1.497 8.973 7.01 20.313 15.886 33.579l.914 1.355.938 1.369c.316.458.636.92.96 1.382l.982 1.395 1.006 1.407 1.028 1.42c.173.239.347.477.522.716l1.061 1.439.539.724 1.094 1.458.555.734 1.127 1.477 1.148 1.488.583.75 1.18 1.506 1.202 1.518 1.222 1.531 1.244 1.542 1.264 1.554 1.285 1.565 1.306 1.577 1.325 1.588.67.798c15.287 18.165 32.43 36.142 48.225 51.55 3.334 3.253 7.565 3.478 10.08-.275 10.35-15.45 21.154-33.447 30.078-51.626l.391-.799.77-1.59.754-1.577.737-1.567.363-.78.713-1.549.35-.77.689-1.532.671-1.52.655-1.509.638-1.496c.105-.249.21-.496.313-.744l.613-1.478.3-.735.586-1.46.57-1.447c.187-.48.37-.959.552-1.435l.535-1.422.516-1.41c.508-1.403.99-2.787 1.444-4.15l.445-1.358c.218-.676.429-1.346.633-2.012l.4-1.324c.324-1.098.63-2.182.916-3.252l.334-1.276c2.541-9.945 3.34-18.612 2.145-25.772C256.85 98.053 219.278 66 179.462 66zm0 2.7c38.485 0 74.932 31.092 81.321 69.388 1.187 7.11.266 15.928-2.495 26.157l-.347 1.26c-.416 1.477-.87 2.983-1.359 4.517l-.428 1.32-.221.667-.456 1.341-.473 1.355c-.16.453-.324.91-.49 1.367l-.508 1.381-.525 1.394-.542 1.406-.56 1.419-.576 1.431-.295.72-.601 1.45-.619 1.463c-.209.49-.42.98-.635 1.474l-.651 1.486c-.22.498-.443.997-.668 1.498l-.684 1.51-.348.759-.708 1.527-.725 1.538-.74 1.55-.376.779-.763 1.566c-8.863 18.054-19.61 35.956-29.899 51.313-1.442 2.153-3.688 2.034-5.93-.154-15.737-15.352-32.824-33.27-48.044-51.356l-1.317-1.572-1.298-1.56-1.277-1.55-1.257-1.537-1.237-1.527-1.216-1.515c-.402-.503-.8-1.004-1.196-1.503l-1.174-1.492-1.154-1.48-1.133-1.467-.558-.73-1.1-1.449-1.08-1.437-1.057-1.424c-.175-.236-.348-.472-.52-.708l-1.025-1.405c-.338-.466-.672-.93-1.003-1.393l-.98-1.38c-.162-.228-.322-.456-.482-.684l-.947-1.36c-.311-.451-.62-.9-.924-1.347l-.901-1.334c-.297-.442-.59-.882-.878-1.32l-.856-1.306c-7.734-11.911-12.539-22.09-13.875-30.1-6.362-38.128 19.48-68.947 57.79-68.947z" transform="rotate(-1 191 161)"/>
                <path fill="#002C76" fill-rule="nonzero" d="M163.132 114.452l-2.05-.452-.966 1.902c-2.342 4.517-3.405 9.823-3.049 15.49 1.06 16.893 14.467 32.563 30.803 36.161l2.028.447.96-1.845c2.363-4.543 3.431-9.86 3.075-15.539-1.06-16.894-14.463-32.563-30.801-36.164zm-.583 2.654c15.074 3.323 27.687 17.912 28.676 33.68.334 5.313-.693 10.115-2.773 14.113-15.071-3.32-27.688-17.91-28.677-33.677-.322-5.125.622-9.774 2.555-13.685l.219-.431z"/>
                <path fill="#002C76" fill-rule="nonzero" d="M160 115.369c13.166 3.498 22.37 10.186 27.616 20.064 4.583 8.63 5.32 19.71.528 32.259 17.783 2.472 32.94-10.194 31.795-28.221-1.12-17.613-15.95-33.726-33.301-36.138-11.605-1.613-21.5 2.672-26.638 12.036z"/>
            </g>
        </g>
    </g>
</svg>
