<svg xmlns="http://www.w3.org/2000/svg" width="352" height="352" viewBox="0 0 352 352">
    <defs>
        <linearGradient id="9e8il5sm5a" x1="74.619%" x2="42.738%" y1="15.145%" y2="88.258%">
            <stop offset="0%" stop-color="#B9DCFE"/>
            <stop offset="100%" stop-color="#FFF"/>
        </linearGradient>
    </defs>
    <g fill="none" fill-rule="evenodd">
        <g>
            <g transform="translate(-1329 -516) translate(1329 516)">
                <path fill="url(#9e8il5sm5a)" d="M331.131 73.485c18.29 20.698 1.518 71.47-17.952 107.457-19.554 35.988-41.805 57.024-73.749 81.438-31.944 24.33-73.496 52.039-117.24 45.703-43.827-6.336-89.762-46.632-93.892-89.379-4.046-42.746 33.798-88.027 70.462-112.863 36.748-24.837 72.316-29.399 116.65-36.41 44.417-7.012 97.516-16.558 115.721 4.054z" opacity=".202" transform="rotate(-15 183.5 185)"/>
                <path fill="#002C76" fill-rule="nonzero" d="M185 56c31.48 0 57 25.587 57 57.15V173H128v-59.85C128 81.587 153.52 56 185 56zm0 25.2c-17.423 0-31.58 14.02-31.862 31.422l-.005.528v34.65h63.733v-34.65c0-17.469-13.983-31.664-31.339-31.946L185 81.2z" transform="rotate(7 185 114.5)"/>
                <path fill="#002C76" fill-rule="nonzero" d="M186 48c35.346 0 64 28.688 64 64.077V167H122v-54.923C122 76.688 150.654 48 186 48zm0 2.707c-33.514 0-60.746 26.93-61.288 60.355l-.008 1.015v52.215h122.592v-52.215c0-33.555-26.897-60.82-60.282-61.361L186 50.707z" transform="rotate(7 186 107.5)"/>
                <path fill="#002C76" fill-rule="nonzero" d="M187.632 84c.756 0 1.368.612 1.368 1.368 0 .755-.612 1.367-1.368 1.367-14.854 0-26.897 12.043-26.897 26.897 0 .756-.612 1.368-1.367 1.368-.756 0-1.368-.612-1.368-1.368C158 97.267 171.267 84 187.632 84z" transform="rotate(7 173.5 99.5)"/>
                <path fill="#FDC130" d="M38.133 260.396C29.402 245.674 39.953 227 57.004 227h51.993c17.05 0 27.601 18.674 18.87 33.396l-25.997 43.83c-8.52 14.366-29.219 14.366-37.74 0l-25.997-43.83z"/>
                <path stroke="#FFF" stroke-linejoin="round" stroke-width="1.8" d="M131 254.642c-10.801-4.183-38.145-13.715-43.36-5.247-4.356 7.07 14.441 21.087 29.151 30.605M122.738 232c-1.774.428-2.969 1.102-3.42 2.072-2.062 4.433 6.375 13.708 11.682 18.928M60.988 297.999c10.488.047 19.42-1.572 21.496-6.798 5.646-14.214-36.924-44.796-34.374-48.512 2.551-3.716 16.26-.117 18.22-4.337 1.178-2.533.06-6.89-1.8-11.352"/>
                <path fill="#FF2C2D" d="M240 279.893l-30.222 22.442c-2.521 1.872-5.874 2.191-8.703.827l-100.376-48.365c-2.186-1.052-3.798-7.237-1.77-8.566L132.97 228 240 279.893z" transform="rotate(-19 169 266)"/>
                <path fill="#003EAC" d="M158 137l-32.58 18.268c-.996.56-1.797 1.408-2.293 2.433L73.163 260.764c-.688 1.418.939 2.836 2.262 1.973l32.642-21.288.27-2.08L158 137z" transform="rotate(-19 115.5 200)"/>
                <path fill="#FFF" d="M211.616 268.453l-98.501-47.494c-1.324-.637-2.32-1.753-2.804-3.14-.485-1.387-.4-2.88.238-4.203l47.492-98.503c.912-1.891 2.859-3.113 4.96-3.113.828 0 1.63.184 2.384.547l98.5 47.493c1.324.639 2.32 1.754 2.804 3.14.485 1.388.4 2.88-.237 4.204l-47.492 98.503C218.048 267.778 216.1 269 214 269c-.829 0-1.631-.184-2.384-.547z" transform="rotate(-19 188.5 190.5)"/>
                <path fill="#002C76" fill-rule="nonzero" d="M163.453 111c-2.625 0-5.049 1.522-6.188 3.884l-47.581 98.689c-.795 1.649-.9 3.515-.297 5.243.604 1.73 1.85 3.124 3.5 3.918l98.684 47.583c.936.452 1.94.683 2.977.683 2.624 0 5.048-1.521 6.188-3.884l47.58-98.689c.795-1.65.9-3.516.297-5.244-.603-1.727-1.849-3.122-3.498-3.918l-98.685-47.582c-.938-.453-1.943-.683-2.977-.683zm0 2.704c.626 0 1.229.138 1.801.414l98.684 47.582c1.003.484 1.752 1.323 2.12 2.374.367 1.052.303 2.176-.18 3.18l-47.58 98.689c-.689 1.427-2.165 2.353-3.75 2.353-.627 0-1.23-.138-1.8-.413l-98.686-47.584c-1.002-.482-1.752-1.322-2.12-2.374-.367-1.052-.303-2.176.18-3.18l47.582-98.688c.688-1.427 2.164-2.353 3.749-2.353z" transform="rotate(-19 189 191)"/>
                <rect width="9" height="52" x="184" y="167" fill="#002C76" rx="4.491" transform="rotate(7 188.5 193)"/>
                <circle cx="191" cy="175" r="10" fill="#002C76"/>
                <circle cx="80" cy="83" r="7" fill="#0040A8"/>
                <circle cx="292" cy="235" r="14" fill="#FDC130"/>
                <path fill="#002C76" fill-rule="nonzero" d="M261.868 150.01c.663.084 1.148.687 1.132 1.377l-.01.13-6.428 56.29c-.085.743-.725 1.273-1.43 1.183-.663-.084-1.148-.687-1.132-1.377l.01-.13 6.428-56.29c.08-.7.651-1.21 1.306-1.193l.124.01z"/>
            </g>
        </g>
    </g>
</svg>
