<svg xmlns="http://www.w3.org/2000/svg" width="352" height="352" viewBox="0 0 352 352">
    <defs>
        <linearGradient id="rd5vkrut3a" x1="63.286%" x2="46.081%" y1="-4.812%" y2="110.164%">
            <stop offset="0%" stop-color="#B9DCFE"/>
            <stop offset="100%" stop-color="#FFF"/>
        </linearGradient>
    </defs>
    <g fill="none" fill-rule="evenodd">
        <g>
            <g transform="translate(-1841 -516) translate(1841 511)">
                <path fill="url(#rd5vkrut3a)" d="M209.479 116.49c27.852 40.634 61.59 70.657 66.813 112.77 5.139 42.033-18.237 96.074-52.14 102.16-33.904 6.005-78.253-35.945-110.747-65.638-32.412-29.694-53.052-46.967-60.347-69.834-7.295-22.867-1.243-51.326 15.004-89.245C84.392 68.7 110.918 21.24 135.289 23.05c24.288 1.728 46.338 52.89 74.19 93.44z" opacity=".202" transform="rotate(-14 163.5 177.5)"/>
                <path fill="#002C76" d="M131.614 287.32c-2.041 8.65-6.153 16.27-11.685 22.462-3.007 3.366-6.438 6.312-10.185 8.767-11.404 7.482-25.74 10.442-40.06 7.065-27.678-6.527-44.824-34.255-38.298-61.932 6.527-27.678 34.257-44.825 61.93-38.295 27.678 6.527 44.824 34.255 38.298 61.932" transform="rotate(26 81.5 275.5)"/>
                <path fill="#FFF" fill-rule="nonzero" d="M25.84 295.246l-.84-1.64 1.92-.951c20.504-10.12 35.113-15.782 38.675-12.909 2.632 2.123 1.631 6.732-1.826 13.848-.382.787-.794 1.6-1.242 2.46l-.72 1.36c-.91 1.69-3.144 5.73-3.517 6.432l-.259.493c-.16.31-.3.588-.42.835l-.129.273.555-.238.811-.373c.857-.409 4.417-2.138 5.687-2.725 1.625-.752 3.087-1.383 4.481-1.92 6.41-2.468 10.883-2.788 13.144.112 2.15 2.757.02 9.017-4.664 16.336l-.232.361-1.57-.99.438-.685c4.084-6.48 5.968-12.085 4.55-13.902-1.537-1.972-5.324-1.702-10.987.48-1.183.455-2.423.983-3.78 1.6l-.588.27c-1.293.6-5.054 2.427-5.759 2.76l-.536.25c-2.04.936-2.717 1.114-3.378.581-.817-.659-.607-1.344.73-3.886l.499-.935c.765-1.405 2.775-5.043 3.438-6.288l.548-1.039c.353-.677.682-1.323.991-1.95l.228-.466c3.035-6.245 3.924-10.344 2.327-11.632-2.65-2.137-18.508 4.117-37.983 13.784l-.592.294z" transform="rotate(26 54 298)"/>
                <path fill="#FFF" fill-rule="nonzero" d="M125.542 259l.203 1.851-2.082.234c-9.665 1.107-18.628 2.392-25.957 3.84l-.779.155c-9.96 2.014-15.911 4.282-16.065 6.028-.289 3.291 5.653 6.346 15.698 8.668 3.565.824 7.39 1.501 11.215 2.041l1.124.155c.733.098 1.43.186 2.089.264l1.037.12.843.088c1.067.103 1.136 1.644.082 1.843l-.61.122-.526.11c-.511.109-1.065.232-1.653.37-2.098.49-4.195 1.058-6.147 1.692l-.667.222c-4.701 1.599-7.61 3.364-7.738 4.83-.254 2.91 13.487 8.877 33.178 15.203l1.213.388-.558 1.776-2.002-.641c-21.318-6.871-34.059-12.485-33.674-16.888.233-2.666 3.783-4.745 9.68-6.662 1.146-.373 2.338-.722 3.55-1.046l.435-.114-1.204-.175c-3.011-.45-6.006-.984-8.864-1.61l-1.217-.273-.876-.206c-10.54-2.532-16.658-5.807-16.25-10.44.446-5.09 17.787-8.697 44.853-11.758l1.67-.187z" transform="rotate(26 104.5 284)"/>
                <path fill="#FFF" fill-rule="nonzero" d="M92.37 217l1.63.877c-3.892 7.501-8.378 15.264-12.982 21.88l-.62.881c-6.474 9.134-12.097 14.354-16.727 14.362-4.759.009-7.387-5.717-8.618-15.445l-.053-.432 1.83-.229c1.093 9.048 3.412 14.235 6.838 14.229 3.92-.007 9.473-5.296 15.845-14.452 4.322-6.21 8.554-13.468 12.273-20.554L92.37 217z" transform="rotate(26 74.5 236)"/>
                <path fill="#FFF" d="M99 320.83c-2.917 3.52-6.246 6.603-9.882 9.17-.077-.574-.118-1.17-.118-1.777 0-5.094 2.8-9.223 6.256-9.223 1.404 0 2.7.678 3.744 1.83" transform="rotate(26 94 324.5)"/>
                <path fill="#FFF" d="M65.135 260.054c5.243-.383 9.656 1.297 9.858 3.752.2 2.456-3.885 4.756-9.128 5.14-5.243.383-9.657-1.297-9.858-3.752-.201-2.456 3.886-4.756 9.128-5.14" transform="rotate(26 65.5 264.5)"/>
                <path fill="#E33031" d="M211 144L113.594 168.459 97 198 194.406 173.541z" transform="rotate(26 154 171)"/>
                <path fill="#0040A8" d="M185 209.719L209.499 307 226 277.281 201.501 180z" transform="rotate(26 205.5 243.5)"/>
                <path fill="#FFF" d="M82 208.023L176.978 184 201 278.977 106.022 303z" transform="rotate(26 141.5 243.5)"/>
                <path fill="#130A29" d="M81 206.628L105.83 304 204 279.372 179.17 182 81 206.628zm2.983 1.764l93.408-23.434 23.626 92.65-93.407 23.433-23.627-92.649z" transform="rotate(26 142.5 243)"/>
                <path fill="#000" stroke="#000" stroke-width=".837" d="M193.517 108.052c1.112-1.066 2.329-1.426 3.574-.809 1.622.804 2.157 2.655 1.872 5.444l.193-.173h0l.451-.385c1.385-1.156 2.677-1.989 3.854-2.383 1.6-.536 3.014-.238 3.881 1.1.98 1.511-.963 4.52-5.574 10.056h0l-.677.808-.758.894-.627.73c-1.535 1.778-3.155 3.59-4.76 5.342h0l-.277.302-1.27 1.37-.424.455c-1.618 3.616-4.532 5.59-8.215 6.234-1.501.262-3.033.285-4.523.136-.425-.043-.808-.095-1.142-.15-.595 1.601-1.196 3.171-1.796 4.693-4.413 11.196-7.524 17.132-10.128 17.104-2.073-.021-2.46-2.845-2.237-8.84h0l.015-.382c.15-3.598.567-8.22 1.203-13.652h0l.14-1.177.22-1.81c.658-5.27 1.455-10.89 2.315-16.494h0l.1-.649.388-2.48.365-2.283.336-2.053 2.073.347-.125.755-.668 4.16-.39 2.52c-.858 5.586-1.653 11.187-2.307 16.435h0l-.075.604c-.766 6.217-1.273 11.477-1.457 15.475h0l-.032.758-.023.71c-.056 2.019-.01 3.607.143 4.715.068.5.157.886.254 1.138h0l.053-.04c.519-.417 1.515-1.784 2.669-3.916h0l.259-.486c1.198-2.287 2.543-5.28 3.994-8.835h0l.573-1.42.387-.976c1.466-3.718 2.94-7.728 4.35-11.755h0l.183-.524.523-1.512.635-1.862.494-1.478 1.996.657-.81 2.407-.675 1.964-.79 2.258c-.463 1.308-.932 2.612-1.404 3.902.192.027.394.051.603.072 1.314.132 2.658.112 3.954-.115 3.074-.537 5.401-2.13 6.701-5.121 5.017-11.539 7.21-19.633 5.053-20.702-.665-.33-1.55.52-3.296 3.367h0l-1.063 1.737c-2.315 3.711-3.979 5.378-6.399 5.406h0l-.02-2.11c1.368-.016 2.65-1.272 4.492-4.181h0l.295-.474 1.192-1.945c.878-1.406 1.483-2.235 2.16-2.883zm11.907 3.756c-.271-.255-.659-.276-1.3-.061-.876.293-1.973 1-3.175 2.003-.697.583-1.385 1.227-2.03 1.882h0l-.323.331-.287.304-.016.019c-.068.271-.14.548-.217.83h0l-.107.39c-.633 2.262-1.51 4.778-2.615 7.587.938-1.046 1.866-2.099 2.764-3.138.472-.547.929-1.082 1.368-1.605 1.785-2.12 3.245-3.971 4.293-5.467h0l.317-.46c.579-.857.991-1.563 1.22-2.088.084-.195.139-.354.164-.469h0zM179.782 80.3c5.28-5.349 10.54-6.96 14.175-3.079 2.457 2.623 3.041 5.741 2.096 9.074-.626 2.205-1.875 4.375-3.52 6.443-.603.76-1.219 1.452-1.816 2.065-.16.165-.305.31-.43.431h0l-.173.167-.2.186-1.4-1.573.18-.168.247-.24.274-.276c.55-.565 1.12-1.205 1.677-1.906 1.485-1.867 2.601-3.808 3.139-5.703.753-2.655.314-5.003-1.607-7.053-2.561-2.735-6.596-1.498-11.15 3.116-4.196 4.25-7.935 10.627-9.07 15.387-.95 3.987.766 8.054 4.4 11.696 2.808 2.815 6.64 5.068 8.27 5.2h0l.024-.05c.055-.127.104-.344.13-.64.072-.838-.064-2.088-.376-3.621-.122-.599-.27-1.231-.437-1.888-.256-1.003-.548-2.013-.85-2.979h0l-.053-.166-.244-.751-.112-.332 1.985-.699.121.36h0l.148.45.16.502c.313 1 .615 2.045.881 3.087.176.689.33 1.354.46 1.989.35 1.715.504 3.14.411 4.226-.14 1.632-.914 2.729-2.399 2.616-2.215-.167-6.47-2.666-9.606-5.81-4.1-4.11-6.105-8.86-4.957-13.677 1.23-5.155 5.166-11.87 9.622-16.384zm147.725-26.178c4.54-9.108 6.71-8.75 1.88.941h0l-.493.989c-1.803 3.608-3.548 7.055-5.229 10.322h0l-1.36 2.632-.89 1.709c-6.816 13.04-12.191 22.317-15.806 27.015h0l-.285.366-.271.338c-2.372 2.915-6.968 5.478-13.572 7.782-7.781 2.716-18.206 5.022-30.637 6.959h0l-1.472.226-1.49.223c-9.92 1.462-20.443 2.62-30.897 3.503-3.658.31-7.047.562-10.082.763h0l-.774.05-2.044.127-1 .056-.104-2.107 1.294-.074c.735-.044 1.569-.096 2.494-.157h0l1.991-.136c1.294-.09 2.644-.19 4.044-.3h0l1.704-.134 2.305-.19c10.414-.88 20.894-2.033 30.767-3.489 13.622-2.009 24.973-4.437 33.214-7.313 6.266-2.186 10.567-4.584 12.632-7.122 3.486-4.285 9.021-13.768 16.127-27.364h0l.888-1.704c1.491-2.872 3.038-5.897 4.635-9.061h0l1.45-2.885zm-53.235-11.52c2.72-4.826 5.24-5.27 2.473-.133h0l-.27.495-.374.674c-2.545 4.514-8.095 8.952-16.221 13.355-6.487 3.515-14.487 6.934-23.635 10.227-8.195 2.95-16.853 5.638-25.432 8.012-2.033.562-3.962 1.08-5.768 1.55h0l-1.331.343-1.169.297-1.79.445-1.339.323-.472-2.055 1.59-.384 2.078-.521c1.506-.383 3.113-.803 4.81-1.258h0l1.474-.4 1.362-.374c8.532-2.361 17.14-5.034 25.28-7.964 9.058-3.26 16.965-6.64 23.346-10.097 7.806-4.23 13.085-8.45 15.388-12.536z"/>
                <circle cx="262.5" cy="204.5" r="13.5" fill="#FDC130" transform="rotate(26 262.5 204.5)"/>
                <circle cx="65" cy="80" r="10" fill="#0040A8"/>
            </g>
        </g>
    </g>
</svg>
