<svg xmlns="http://www.w3.org/2000/svg" xmlns:xlink="http://www.w3.org/1999/xlink" width="280" height="280" viewBox="0 0 280 280">
    <defs>
        <path id="e43okkvr9a" d="M0 0H280V280H0z"/>
        <path id="4kpkwswj2d" d="M0 56.056c0 30.96 24.962 56.057 55.753 56.057 30.792 0 55.754-25.097 55.754-56.057C111.507 25.097 86.545 0 55.753 0 24.962 0 0 25.097 0 56.056z"/>
        <linearGradient id="vddefifi5c" x1="62.955%" x2="4.857%" y1="-8.359%" y2="32.806%">
            <stop offset="0%" stop-color="#FFE8C1"/>
            <stop offset="100%" stop-color="#FFF" stop-opacity=".01"/>
        </linearGradient>
    </defs>
    <g fill="none" fill-rule="evenodd">
        <g>
            <g>
                <g transform="translate(-160 -208) translate(48 208) translate(112)">
                    <mask id="96sea50y5b" fill="#fff">
                        <use xlink:href="#e43okkvr9a"/>
                    </mask>
                    <g mask="url(#96sea50y5b)">
                        <g transform="translate(5.526 -56.894)">
                            <path fill="#F6F8FA" d="M259.573 141.951c17.1 44.63 8.624 93.035-7.955 124.363-16.578 31.326-41.186 45.487-63.935 54.327-22.75 8.925-43.64 12.53-82.298 9.87-38.66-2.746-95.086-11.672-104.081-38.45-8.922-26.778 29.663-71.408 63.489-120.329 33.826-49.006 62.895-102.304 98.877-108.655 35.908-6.35 78.73 34.33 95.903 78.874z"/>
                            <path fill="#002C76" d="M136.703 180.634c-5.273 3.927-11.54 6.356-18.119 7.02l-17.548 5.32c-6.47 4.743-15.323 8.628-27.398 9.954l-1.902 27.47s-6.848-9.575-10.785-22.632c-6.465 2.12-13.084 3.429-19.826 3.154-14.198-.58-29.337-10.649-29.886-24.73-.224-5.407 1.63-10.536 3.493-15.69 1.394-3.857 2.794-7.73 3.331-11.742.366-2.861.29-5.762.213-8.668-.072-2.699-.143-5.401.14-8.077.128-5.722 3.464-10.905 8.668-13.465 2.628-.965 5.471-.81 8.314-.656 2.844.154 5.687.309 8.315-.656 4.961-1.832 7.383-6.8 9.805-11.767 2.422-4.968 4.844-9.935 9.805-11.768 6.903-2.739 14.158 2.47 19.257 7.717l.082.084c5.08 5.227 10.9 11.218 18.234 10.796 2.747-.176 5.277-1.278 7.824-2.386 1.925-.838 3.86-1.68 5.903-2.128 5.767-1.29 11.787.654 15.655 5.056 3.866 4.402 4.95 10.544 2.817 15.97-.597 1.537-1.433 3.056-2.263 4.566-2.006 3.647-3.98 7.238-2.483 10.867 1.062 2.587 3.519 4.052 6.018 5.542 1.75 1.045 3.522 2.101 4.846 3.564 4.354 4.823 2.353 12.963-2.51 17.285z"/>
                            <path fill="#FDC130" d="M156.58 282.91L16.24 323.287c-11.18-38.56 11.143-78.841 49.881-90.01 38.753-11.148 79.251 11.074 90.457 49.635z"/>
                            <path fill="#FFC7BC" d="M117.676 169.06c-1.827 6.788-10.513 30.185-44.038 33.868l-1.902 27.47s-.795-1.112-2-3.095l-.777 12.409c-.287 4.681 2.17 9.1 6.287 11.313h.2c1.515.794 3.234 1.115 4.933.919 4.863-.67 8.668-4.542 9.272-9.434l2.627-18.549c13.489 0 30.36-6.795 33.703-23.705 2.169-10.97-1.005-22.933-8.305-31.195z"/>
                            <path fill="#0040A8" d="M84.232 147.692l-.342.08-.382.095-.427.112-.23.063c-1.133.31-2.399.705-3.764 1.19-3.902 1.387-7.803 3.214-11.435 5.532-7.545 4.815-12.9 11.074-15.174 18.966-2.85 9.887-.738 21.95 7.389 36.458.426.76.153 1.72-.61 2.145-.764.424-1.728.152-2.154-.608-8.511-15.193-10.77-28.1-7.668-38.866 2.51-8.71 8.366-15.553 16.51-20.75 3.85-2.458 7.965-4.385 12.079-5.847 1.44-.512 2.78-.93 3.986-1.26l.553-.15.59-.148c.168-.04.307-.073.415-.095.854-.183 1.696.359 1.88 1.21.183.852-.361 1.69-1.216 1.873z"/>
                            <circle cx="18.421" cy="75.315" r="7.368" fill="#E33031" fill-rule="nonzero"/>
                            <circle cx="226.579" cy="281.63" r="7.368" fill="#002C76" fill-rule="nonzero"/>
                            <path fill="url(#vddefifi5c)" d="M46.291 96.706L167.842 274.464 275.09 108.15 283.923 46.043 223.431 56.236z"/>
                            <path fill="#FDC130" d="M219.696 56.056c0 30.96 24.962 56.057 55.753 56.057 30.792 0 55.754-25.097 55.754-56.057C331.203 25.097 306.24 0 275.449 0c-30.791 0-55.753 25.097-55.753 56.056z"/>
                            <g transform="translate(219.696)">
                                <mask id="lqiswwkz6e" fill="#fff">
                                    <use xlink:href="#4kpkwswj2d"/>
                                </mask>
                                <g stroke="#FFF" stroke-linejoin="round" mask="url(#lqiswwkz6e)">
                                    <g>
                                        <path d="M0 15.076C9.18 7.901 19.916 3.01 31.333.801c5.091-1.344 10.478-.99 15.35 1.008 4.936 2.263 7.363 7.918 5.614 13.08M40.03 25.54c8.823-5.928 18.906-9.69 29.439-10.987-6.247 3.907-10.139 10.695-10.37 18.088M68.391 26.587c3.195-2.602 7.836-2.326 10.705.635 2.69 3.058 3.755 7.23 2.862 11.212-.907 3.883-2.534 7.56-4.795 10.837-6.8 11.032-15.051 21.09-24.532 29.897M28.434 60.296c6.334-7.79 15.118-13.18 24.903-15.285 1.713-.598 3.607-.334 5.093.71 1.102 1.54 1.354 3.538.67 5.307-2.189 9.272-7.427 17.53-14.869 23.431" transform="translate(-6.505 43.073)"/>
                                        <path d="M4.646 26.064c5.699-6.359 13.38-10.576 21.781-11.96 1.698-.413 3.483-.268 5.092.412 2.181 1.421 3.226 4.077 2.602 6.614-.65 2.455-1.845 4.73-3.494 6.653-8.344 10.612-17.332 20.696-26.91 30.196" transform="translate(-6.505 43.073)"/>
                                    </g>
                                </g>
                            </g>
                        </g>
                    </g>
                </g>
            </g>
        </g>
    </g>
</svg>
